<svg width="64px" height="63px" viewBox="0 0 64 63" version="1.1" xmlns="http://www.w3.org/2000/svg" xmlns:xlink="http://www.w3.org/1999/xlink">
  <!-- Generator: Sketch 48.2 (47327) - http://www.bohemiancoding.com/sketch -->
  <desc>Created with Sketch.</desc>
  <defs>
    <linearGradient x1="50%" y1="-46.3603671%" x2="41.5751596%" y2="98.0794271%" id="linearGradient-1">
      <stop stop-color="#2B617F" offset="0%"></stop>
      <stop stop-color="#3D8DB8" offset="100%"></stop>
    </linearGradient>
  </defs>
  <g id="Page-1" stroke="none" stroke-width="1" fill="none" fill-rule="evenodd">
    <path d="M32,0 C14.32,0 0,14.462225 0,32.2997766 C0,46.5735862 9.168,58.6779275 21.88,62.9441897 C23.48,63.2483459 24.0666667,62.2497445 24.0666667,61.3911088 C24.0666667,60.6239891 24.04,58.5917948 24.0266667,55.9001467 C15.1253333,57.8488999 13.248,51.5665934 13.248,51.5665934 C11.792,47.8386608 9.688,46.842751 9.688,46.842751 C6.78933333,44.8401649 9.912,44.8805396 9.912,44.8805396 C13.1253333,45.106638 14.8133333,48.2074166 14.8133333,48.2074166 C17.6666667,53.1465908 22.304,51.7200173 24.1333333,50.8936814 C24.4213333,48.8049625 25.2453333,47.3810806 26.16,46.5735862 C19.0533333,45.7660918 11.584,42.988311 11.584,30.6121133 C11.584,27.0860543 12.824,24.2059909 14.8773333,21.9450066 C14.5173333,21.1294372 13.4373333,17.8456266 15.1573333,13.3963324 C15.1573333,13.3963324 17.8373333,12.5296217 23.9573333,16.7070595 C26.5173333,15.9883894 29.2373333,15.6330919 31.9573333,15.616942 C34.6773333,15.6330919 37.3973333,15.9883894 39.9573333,16.7070595 C46.0373333,12.5296217 48.7173333,13.3963324 48.7173333,13.3963324 C50.4373333,17.8456266 49.3573333,21.1294372 49.0373333,21.9450066 C51.0773333,24.2059909 52.3173333,27.0860543 52.3173333,30.6121133 C52.3173333,43.0206108 44.8373333,45.7526336 37.7173333,46.5466698 C38.8373333,47.515663 39.8773333,49.496716 39.8773333,52.5221284 C39.8773333,56.8449152 39.8373333,60.3171412 39.8373333,61.3668839 C39.8373333,62.2147531 40.3973333,63.2241211 42.0373333,62.9011233 C54.84,58.6644693 64,46.552053 64,32.2997766 C64,14.462225 49.672,1.6435813e-15 32,1.6435813e-15" id="Shape" fill="url(#linearGradient-1)" fill-rule="nonzero"></path>
  </g>
</svg>