<svg width="47px" height="47px" viewBox="0 0 47 47" version="1.1" xmlns="http://www.w3.org/2000/svg" xmlns:xlink="http://www.w3.org/1999/xlink">
  <!-- Generator: Sketch 48.2 (47327) - http://www.bohemiancoding.com/sketch -->
  <desc>Created with Sketch.</desc>
  <defs>
    <linearGradient x1="50%" y1="-46.3603671%" x2="41.5751596%" y2="98.0794271%" id="linearGradient-1">
      <stop stop-color="#2B617F" offset="0%"></stop>
      <stop stop-color="#3D8DB8" offset="100%"></stop>
    </linearGradient>
  </defs>
  <g id="Page-1" stroke="none" stroke-width="1" fill="none" fill-rule="evenodd">
    <g id="linkedin" fill="url(#linearGradient-1)" fill-rule="nonzero">
      <path d="M46.5253333,46.5386667 L37.048,46.5386667 L37.048,31.688 C37.048,28.1466667 36.976,23.5893333 32.1093333,23.5893333 C27.168,23.5893333 26.4133333,27.4426667 26.4133333,31.4266667 L26.4133333,46.5386667 L16.936,46.5386667 L16.936,16 L26.04,16 L26.04,20.1626667 L26.1626667,20.1626667 C27.4346667,17.7626667 30.528,15.2293333 35.1493333,15.2293333 C44.752,15.2293333 46.528,21.5493333 46.528,29.776 L46.528,46.5386667 L46.5253333,46.5386667 Z M6.232,11.8213333 C3.18133333,11.8213333 0.730666667,9.352 0.730666667,6.31466667 C0.730666667,3.28 3.184,0.813333333 6.232,0.813333333 C9.272,0.813333333 11.736,3.28 11.736,6.31466667 C11.736,9.352 9.26933333,11.8213333 6.232,11.8213333 Z M10.984,46.5386667 L1.48,46.5386667 L1.48,16 L10.984,16 L10.984,46.5386667 Z" id="Shape"></path>
    </g>
  </g>
</svg>