<?xml version="1.0" encoding="UTF-8"?>
<svg width="592px" height="415px" viewBox="0 0 592 415" version="1.1" xmlns="http://www.w3.org/2000/svg" xmlns:xlink="http://www.w3.org/1999/xlink">
    <!-- Generator: Sketch 48.2 (47327) - http://www.bohemiancoding.com/sketch -->
    <title>logo-out</title>
    <desc>Created with Sketch.</desc>
    <defs>
        <polygon id="path-1" points="0 0 19.4382102 75.5262783 66.7670455 75.5262783 44.9488636 338.243607 19.4382102 338.243607 0 414.383522 200.424716 414.383522 200.424716 338.243607 166.828125 338.243607 166.828125 104.358665 248.002841 414.383522 343.133522 414.383522 424.035511 104.358665 424.035511 338.243607 392.607953 338.243607 392.607953 414.383522 590.887073 414.383522 573.366478 338.243607 547.766335 338.243607 525.948153 75.5262783 573.366478 75.5262783 590.887073 0 351.161932 0 295.443537 207.191761 242.02841 0"></polygon>
        <linearGradient x1="50%" y1="0%" x2="50%" y2="100%" id="linearGradient-3">
            <stop stop-color="#3D8DB8" offset="0%"></stop>
            <stop stop-color="#2B617F" offset="100%"></stop>
        </linearGradient>
        <linearGradient x1="48.0547701%" y1="71.118282%" x2="50.9281845%" y2="-13.3322011%" id="linearGradient-4">
            <stop stop-color="#2B617F" offset="0%"></stop>
            <stop stop-color="#3D8DB8" offset="100%"></stop>
        </linearGradient>
        <linearGradient x1="48.8019049%" y1="51.8998139%" x2="54.225616%" y2="1.82033189%" id="linearGradient-5">
            <stop stop-color="#2B617F" offset="0%"></stop>
            <stop stop-color="#3881A8" offset="59.5846398%"></stop>
            <stop stop-color="#3D8DB8" offset="100%"></stop>
        </linearGradient>
        <linearGradient x1="48.4682187%" y1="51.8998139%" x2="55.4025092%" y2="1.82033189%" id="linearGradient-6">
            <stop stop-color="#2B617F" offset="0%"></stop>
            <stop stop-color="#3881A8" offset="59.5846398%"></stop>
            <stop stop-color="#3D8DB8" offset="100%"></stop>
        </linearGradient>
        <linearGradient x1="36.8822704%" y1="92.0309177%" x2="12.0781784%" y2="-23.0811435%" id="linearGradient-7">
            <stop stop-color="#2B617F" offset="0%"></stop>
            <stop stop-color="#3D8DB8" offset="100%"></stop>
        </linearGradient>
        <linearGradient x1="47.8043856%" y1="102.783439%" x2="38.6146399%" y2="13.635077%" id="linearGradient-8">
            <stop stop-color="#2B617F" offset="0%"></stop>
            <stop stop-color="#3D8DB8" offset="100%"></stop>
        </linearGradient>
        <linearGradient x1="55.7560539%" y1="7.4926404%" x2="45.0238245%" y2="93.1796309%" id="linearGradient-9">
            <stop stop-color="#2B617F" offset="0%"></stop>
            <stop stop-color="#3D8DB8" offset="100%"></stop>
        </linearGradient>
        <linearGradient x1="48.6601472%" y1="2.59349385%" x2="49.5990333%" y2="98.0794271%" id="linearGradient-10">
            <stop stop-color="#2B617F" offset="0%"></stop>
            <stop stop-color="#3D8DB8" offset="100%"></stop>
        </linearGradient>
        <linearGradient x1="54.7650184%" y1="41.0193435%" x2="43.2759958%" y2="6.48428676%" id="linearGradient-11">
            <stop stop-color="#2B617F" offset="0%"></stop>
            <stop stop-color="#3D8DB8" offset="100%"></stop>
        </linearGradient>
        <linearGradient x1="83.9565002%" y1="57.2525532%" x2="58.8068248%" y2="45.5685407%" id="linearGradient-12">
            <stop stop-color="#2B617F" offset="0%"></stop>
            <stop stop-color="#3D8DB8" offset="100%"></stop>
        </linearGradient>
        <linearGradient x1="37.2404062%" y1="49.4032607%" x2="85.40909%" y2="58.2639358%" id="linearGradient-13">
            <stop stop-color="#2B617F" offset="0%"></stop>
            <stop stop-color="#3D8DB8" offset="100%"></stop>
        </linearGradient>
        <polygon id="path-14" points="0 0 19.4382102 75.5262783 66.7670455 75.5262783 44.9488636 338.243607 19.4382102 338.243607 0 414.383522 200.424716 414.383522 200.424716 338.243607 166.828125 338.243607 166.828125 104.358665 248.002841 414.383522 343.133522 414.383522 424.035511 104.358665 424.035511 338.243607 392.607953 338.243607 392.607953 414.383522 590.887073 414.383522 573.366478 338.243607 547.766335 338.243607 525.948153 75.5262783 573.366478 75.5262783 590.887073 0 351.161932 0 295.443537 207.191761 242.02841 0"></polygon>
    </defs>
    <g id="Page-1" stroke="none" stroke-width="1" fill="none" fill-rule="evenodd">
        <g id="logo-out" transform="translate(-4.000000, -2.000000)">
            <g id="Mask">
                <g id="path-1-link" transform="translate(4.363636, 2.181818)" fill-rule="nonzero">
                    <polygon id="path-1" points="0 0 19.4382102 75.5262783 66.7670455 75.5262783 44.9488636 338.243607 19.4382102 338.243607 0 414.383522 200.424716 414.383522 200.424716 338.243607 166.828125 338.243607 166.828125 104.358665 248.002841 414.383522 343.133522 414.383522 424.035511 104.358665 424.035511 338.243607 392.607953 338.243607 392.607953 414.383522 590.887073 414.383522 573.366478 338.243607 547.766335 338.243607 525.948153 75.5262783 573.366478 75.5262783 590.887073 0 351.161932 0 295.443537 207.191761 242.02841 0"></polygon>
                </g>
                <polygon id="Shape" points="299.851704 200.80654 353.852972 0 597.996604 0 579.46373 79.8899147 532.682315 79.8899147 554.138105 338.243607 579.466892 338.243607 597.991608 418.747159 394.789772 418.747159 394.789772 338.243607 426.217329 338.243607 426.217329 123.542381 349.182689 418.747159 250.682383 418.747159 173.373579 123.487112 173.373579 338.243607 206.97017 338.243607 206.97017 418.747159 1.55483003 418.747159 22.1070589 338.243607 47.3043668 338.243607 68.7601567 79.8899147 22.1104608 79.8899147 1.54918069 0 248.082718 0"></polygon>
            </g>
            <g id="Gradients-Clipped" transform="translate(4.363636, 2.181818)">
                <g>
                    <mask id="mask-2" fill="white">
                        <use xlink:href="#path-1"></use>
                    </mask>
                    <g id="path-1"></g>
                    <g id="Gradients" mask="url(#mask-2)">
                        <g transform="translate(-1230.545455, -600.000000)" id="Group">
                            <g>
                                <g fill-rule="nonzero">
                                    <polygon id="Rectangle" fill="url(#linearGradient-3)" points="248.727273 388.363636 2864.72727 388.363636 2864.72727 1224 248.727273 1224"></polygon>
                                    <polygon id="Rectangle-2" fill="url(#linearGradient-4)" points="1591.875 560.727273 2419.63636 560.727273 2419.63636 1012.36364 1478.1733 1012.36364"></polygon>
                                    <polygon id="Path" fill="url(#linearGradient-5)" points="1607.16995 398.555614 2564.48989 425.000001 2564.48989 1267.63636 1391.33586 1253.60839"></polygon>
                                    <polygon id="Rectangle-2" fill="url(#linearGradient-6)" transform="translate(1248.362216, 641.771306) scale(-1, 1) translate(-1248.362216, -641.771306) " points="538.580965 52.5426135 1996.36364 52.5426135 1977.21294 1231 500.360795 1231"></polygon>
                                    <polygon id="Rectangle-2" fill="url(#linearGradient-7)" points="1733.36932 1.81534091 2449.50853 1.81534091 2414.19035 990.545455 1515.51136 803.267044"></polygon>
                                    <polygon id="Rectangle-2" fill="url(#linearGradient-8)" points="1963.88352 89.4545455 2752.37217 89.4545455 2752.37217 691.636364 1810.90909 691.636364"></polygon>
                                    <polygon id="Rectangle-2" fill="url(#linearGradient-9)" transform="translate(774.004261, 399.272727) scale(-1, 1) translate(-774.004261, -399.272727) " points="456.247159 98.1818182 1244.73579 98.1818182 1244.73579 700.363636 303.272727 700.363636"></polygon>
                                    <polygon id="Rectangle-2" fill="url(#linearGradient-10)" points="1729.1391 687.272727 2923.63636 687.272727 2923.63636 1352.72727 1498.90909 1352.72727"></polygon>
                                    <polygon id="Rectangle-2" fill="url(#linearGradient-11)" points="156.256084 687.272727 1293.81818 687.272727 1250.67164 1522.90909 0 1442.77752"></polygon>
                                    <polygon id="Rectangle-2" fill="url(#linearGradient-12)" points="1656.60085 738.519886 1758.01704 960.724431 1814.65909 937.15483 1984.15909 1659.54545 1412.63778 1675.2017"></polygon>
                                    <polygon id="Rectangle-2" fill="url(#linearGradient-13)" transform="translate(1327.401988, 1207.836648) scale(-1, 1) translate(-1327.401988, -1207.836648) " points="1257.46875 726.545455 1361.42045 960.724431 1413.5625 934.031249 1617.60938 1689.12784 1037.1946 1629.36648"></polygon>
                                </g>
                            </g>
                        </g>
                    </g>
                </g>
            </g>
            <g id="Path-Clipped" transform="translate(4.363636, 2.181818)">
                <g>
                    <mask id="mask-15" fill="white">
                        <use xlink:href="#path-14"></use>
                    </mask>
                    <g id="path-14"></g>
                    <polygon id="Path" mask="url(#mask-15)" points="295.554862 185.774163 346.980443 -5.45454545 597.751811 -5.45454545 577.70052 80.9808238 531.874466 80.9808238 552.786668 332.789062 577.708423 332.789062 597.739316 419.838068 387.153408 419.838068 387.153408 332.789062 418.580965 332.789062 418.580965 146.863409 347.347346 419.838068 243.792602 419.838068 172.28267 146.725238 172.28267 332.789062 205.879261 332.789062 205.879261 419.838068 -7.02201587 419.838068 15.2012409 332.789062 39.9285303 332.789062 60.8407327 80.9808238 15.2097455 80.9808238 -7.03613917 -5.45454545 246.255092 -5.45454545"></polygon>
                </g>
            </g>
        </g>
    </g>
</svg>