
<svg width="277px" height="194px" viewBox="0 0 277 194" version="1.1" xmlns="http://www.w3.org/2000/svg" xmlns:xlink="http://www.w3.org/1999/xlink">
  <!-- Generator: Sketch 48.2 (47327) - http://www.bohemiancoding.com/sketch -->
  <desc>Created with Sketch.</desc>
  <defs>
    <polygon id="path-1" points="0 0 8.90917969 34.6162109 30.6015625 34.6162109 20.6015625 155.02832 8.90917969 155.02832 0 189.925781 91.8613281 189.925781 91.8613281 155.02832 76.4628906 155.02832 76.4628906 47.8310547 113.667969 189.925781 157.269531 189.925781 194.349609 47.8310547 194.349609 155.02832 179.945312 155.02832 179.945312 189.925781 270.823242 189.925781 262.792969 155.02832 251.05957 155.02832 241.05957 34.6162109 262.792969 34.6162109 270.823242 0 160.949219 0 135.411621 94.9628906 110.929688 0"></polygon>
    <linearGradient x1="50%" y1="0%" x2="50%" y2="100%" id="linearGradient-3">
      <stop stop-color="#3D8DB8" offset="0%"></stop>
      <stop stop-color="#2B617F" offset="100%"></stop>
    </linearGradient>
    <linearGradient x1="13.2693613%" y1="71.118282%" x2="67.5263658%" y2="-13.3322011%" id="linearGradient-4">
      <stop stop-color="#2B617F" offset="0%"></stop>
      <stop stop-color="#3D8DB8" offset="100%"></stop>
    </linearGradient>
    <linearGradient x1="46.0219439%" y1="51.8998139%" x2="64.0303873%" y2="1.82033189%" id="linearGradient-5">
      <stop stop-color="#2B617F" offset="0%"></stop>
      <stop stop-color="#3881A8" offset="59.5846398%"></stop>
      <stop stop-color="#3D8DB8" offset="100%"></stop>
    </linearGradient>
    <linearGradient x1="36.8822704%" y1="102.783439%" x2="12.0781784%" y2="-41.7770607%" id="linearGradient-6">
      <stop stop-color="#2B617F" offset="0%"></stop>
      <stop stop-color="#3D8DB8" offset="100%"></stop>
    </linearGradient>
    <linearGradient x1="36.8822704%" y1="102.783439%" x2="-18.0219979%" y2="13.635077%" id="linearGradient-7">
      <stop stop-color="#2B617F" offset="0%"></stop>
      <stop stop-color="#3D8DB8" offset="100%"></stop>
    </linearGradient>
    <linearGradient x1="84.3896257%" y1="7.4926404%" x2="20.2697687%" y2="93.1796309%" id="linearGradient-8">
      <stop stop-color="#2B617F" offset="0%"></stop>
      <stop stop-color="#3D8DB8" offset="100%"></stop>
    </linearGradient>
    <linearGradient x1="21.8479218%" y1="2.59349385%" x2="41.5751596%" y2="98.0794271%" id="linearGradient-9">
      <stop stop-color="#2B617F" offset="0%"></stop>
      <stop stop-color="#3D8DB8" offset="100%"></stop>
    </linearGradient>
    <linearGradient x1="77.3834561%" y1="41.0193435%" x2="11.3587068%" y2="6.48428676%" id="linearGradient-10">
      <stop stop-color="#2B617F" offset="0%"></stop>
      <stop stop-color="#3D8DB8" offset="100%"></stop>
    </linearGradient>
    <linearGradient x1="83.9565002%" y1="102.327451%" x2="58.8068248%" y2="18.0268503%" id="linearGradient-11">
      <stop stop-color="#2B617F" offset="0%"></stop>
      <stop stop-color="#3D8DB8" offset="100%"></stop>
    </linearGradient>
    <linearGradient x1="37.2404062%" y1="45.4857825%" x2="85.40909%" y2="112.515073%" id="linearGradient-12">
      <stop stop-color="#2B617F" offset="0%"></stop>
      <stop stop-color="#3D8DB8" offset="100%"></stop>
    </linearGradient>
    <linearGradient x1="33.5248068%" y1="35.7828922%" x2="133.131403%" y2="156.481767%" id="linearGradient-13">
      <stop stop-color="#3D8DB8" offset="0%"></stop>
      <stop stop-color="#2B617F" offset="100%"></stop>
    </linearGradient>
  </defs>
  <g id="Page-1" stroke="none" stroke-width="1" fill="none" fill-rule="evenodd">
    <g id="Gradients-+-Path-+-{-+-{-Mask" transform="translate(3.000000, 2.000000)">
      <mask id="mask-2" fill="white">
        <use xlink:href="#path-1"></use>
      </mask>
      <g id="Mask">
        <use fill="#FFFFFF" fill-rule="evenodd" xlink:href="#path-1"></use>
        <path stroke="#FFFFFF" stroke-width="2" d="M135.432031,91.0363309 L160.182612,-1 L272.081777,-1 L263.587543,35.6162109 L242.146061,35.6162109 L251.979965,154.02832 L263.588992,154.02832 L272.079487,190.925781 L178.945312,190.925781 L178.945312,154.02832 L193.349609,154.02832 L193.349609,55.6235912 L158.042066,190.925781 L112.896092,190.925781 L77.4628906,55.5982598 L77.4628906,154.02832 L92.8613281,154.02832 L92.8613281,190.925781 L-1.28736957,190.925781 L8.13240197,154.02832 L19.6811681,154.02832 L29.5150718,35.6162109 L8.13396116,35.6162109 L-1.28995885,-1 L111.704579,-1 L135.432031,91.0363309 Z"></path>
      </g>
      <g id="Gradients" mask="url(#mask-2)">
        <g transform="translate(-564.000000, -275.000000)">
          <polygon id="Rectangle" fill="url(#linearGradient-3)" points="114 178 1313 178 1313 561 114 561"></polygon>
          <polygon id="Rectangle-2" fill="url(#linearGradient-4)" points="729.609375 257 1109 257 1109 464 677.496094 464"></polygon>
          <polygon id="Path" fill="url(#linearGradient-5)" points="736.61956 182.671323 1175.3912 194.791667 1175.3912 581 637.695602 574.570514"></polygon>
          <polygon id="Rectangle-2" fill="url(#linearGradient-5)" transform="translate(572.166016, 294.145182) scale(-1, 1) translate(-572.166016, -294.145182) " points="246.849609 24.0820312 915 24.0820312 906.222597 564.208333 229.332031 564.208333"></polygon>
          <polygon id="Rectangle-2" fill="url(#linearGradient-6)" points="794.460938 0.83203125 1122.69141 0.83203125 1106.50391 454 694.609375 368.164062"></polygon>
          <polygon id="Rectangle-2" fill="url(#linearGradient-7)" points="900.113281 41 1261.50391 41 1261.50391 317 830 317"></polygon>
          <polygon id="Rectangle-2" fill="url(#linearGradient-8)" transform="translate(354.751953, 183.000000) scale(-1, 1) translate(-354.751953, -183.000000) " points="209.113281 45 570.503906 45 570.503906 321 139 321"></polygon>
          <polygon id="Rectangle-2" fill="url(#linearGradient-9)" points="792.522089 315 1340 315 1340 620 687 620"></polygon>
          <polygon id="Rectangle-2" fill="url(#linearGradient-10)" points="71.617372 315 593 315 573.224501 698 0 661.273032"></polygon>
          <polygon id="Rectangle-2" fill="url(#linearGradient-11)" points="759.275391 338.488281 805.757812 440.332031 831.71875 429.529297 909.40625 760.625 647.458984 767.800781"></polygon>
          <polygon id="Rectangle-2" fill="url(#linearGradient-12)" transform="translate(608.392578, 553.591797) scale(-1, 1) translate(-608.392578, -553.591797) " points="576.339844 333 623.984375 440.332031 647.882812 428.097656 741.404297 774.183594 475.380859 746.792969"></polygon>
        </g>
      </g>
      <path d="M135.462645,85.1464912 L159.032703,-2.5 L273.96958,-2.5 L264.779405,37.1162109 L243.775797,37.1162109 L253.360556,152.52832 L264.783027,152.52832 L273.963853,192.425781 L177.445312,192.425781 L177.445312,152.52832 L191.849609,152.52832 L191.849609,67.312396 L159.200867,192.425781 L111.738276,192.425781 L78.9628906,67.2490676 L78.9628906,152.52832 L94.3613281,152.52832 L94.3613281,192.425781 L-3.21842394,192.425781 L6.96723539,152.52832 L18.3005764,152.52832 L27.8853358,37.1162109 L6.97113336,37.1162109 L-3.22489712,-2.5 L112.866917,-2.5 L135.462645,85.1464912 Z" id="Path" stroke="url(#linearGradient-13)" stroke-width="5" mask="url(#mask-2)"></path>
    </g>
  </g>
</svg>