<?xml version="1.0" standalone="no"?>
<!DOCTYPE svg PUBLIC "-//W3C//DTD SVG 1.1//EN" "http://www.w3.org/Graphics/SVG/1.1/DTD/svg11.dtd" >
<svg xmlns="http://www.w3.org/2000/svg">
<metadata></metadata>
<defs>
<font id="simplo_w00_blackregular" horiz-adv-x="1069" >
<font-face units-per-em="2048" ascent="1558" descent="-490" />
<missing-glyph horiz-adv-x="491" />
<glyph horiz-adv-x="2048" />
<glyph horiz-adv-x="2048" />
<glyph unicode="&#xd;" horiz-adv-x="2048" />
<glyph unicode=" "  horiz-adv-x="491" />
<glyph unicode="&#x09;" horiz-adv-x="491" />
<glyph unicode="&#xa0;" horiz-adv-x="491" />
<glyph unicode="!" horiz-adv-x="624" d="M114 181q0 83 59 142.5t142 59.5t142 -59.5t59 -142.5t-59 -142t-142 -59t-142 59t-59 142zM141 469v907h349v-907h-349z" />
<glyph unicode="&#x22;" horiz-adv-x="876" d="M79 1534h306l-30 -628h-245zM498 1534h306l-30 -628h-245z" />
<glyph unicode="#" horiz-adv-x="1187" d="M65 377v224h219l28 176h-195v224h227l58 375h227l-58 -375h157l57 375h228l-58 -375h168v-224h-201l-27 -176h173v-224h-207l-59 -377h-227l59 377h-157l-58 -377h-227l58 377h-185zM512 601h156l27 176h-156z" />
<glyph unicode="$" d="M33 266l276 160q102 -145 208 -145q36 0 70 26.5t34 69.5q0 40 -27 78t-70.5 71.5t-96 68.5t-105 78t-96 92.5t-70.5 119t-27 149.5q0 125 82.5 218t221.5 127v203h226v-194q160 -32 325 -203l-235 -189q-91 98 -163 98q-28 0 -50.5 -16.5t-22.5 -48.5q0 -31 27.5 -63.5 t71 -64t96 -67t105.5 -80t96.5 -94.5t71 -118.5t27.5 -145.5q0 -155 -92.5 -262t-262.5 -140v-199h-235v193q-227 40 -385 278z" />
<glyph unicode="%" horiz-adv-x="1705" d="M45 984q0 103 36.5 192.5t113.5 149.5t179 60q103 0 179.5 -60t112.5 -149.5t36 -192.5q0 -77 -20 -150t-58.5 -135t-103 -99.5t-146.5 -37.5q-66 0 -121 25t-93 66.5t-64.5 96.5t-38.5 114t-12 120zM280 984q0 -39 5 -76t15.5 -71.5t29.5 -55.5t44 -21q48 0 71 68.5 t23 155.5q0 51 -9.5 95.5t-31.5 76.5t-53 32t-53 -32t-31.5 -76.5t-9.5 -95.5zM315 -39l821 1455h250l-821 -1455h-250zM998 412q0 103 36.5 192.5t113 149.5t179.5 60q77 0 141 -34.5t104 -92t61.5 -128.5t21.5 -147q0 -77 -20 -150t-58.5 -135t-103 -99.5t-146.5 -37.5 q-66 0 -121 25t-93 66.5t-64.5 96.5t-38.5 114t-12 120zM1233 412q0 -87 23 -155.5t71 -68.5t71 68.5t23 155.5q0 80 -24.5 142t-69.5 62q-31 0 -53 -32t-31.5 -76.5t-9.5 -95.5z" />
<glyph unicode="&#x26;" horiz-adv-x="1389" d="M34 410q0 118 65 203t214 188q-115 137 -115 256q0 157 110.5 248t283.5 91q105 0 194 -37.5t145 -113.5t56 -175q0 -93 -56.5 -167.5t-153.5 -146.5l148 -170l131 146l224 -221l-148 -165l295 -346h-424l-100 118q-166 -138 -377 -138q-134 0 -246 54t-179 153.5 t-67 222.5zM379 412q0 -60 43.5 -107.5t97.5 -47.5q72 0 179 96l-190 221q-130 -88 -130 -162zM522 1081q0 -8 1.5 -15t3 -13t5.5 -13.5t6.5 -12t9.5 -13.5t10.5 -13t12.5 -15t13 -16q39 29 59.5 53.5t20.5 54.5q0 37 -21.5 57t-54.5 20q-27 0 -46.5 -20t-19.5 -54z" />
<glyph unicode="'" horiz-adv-x="457" d="M79 1534h306l-30 -628h-245z" />
<glyph unicode="(" horiz-adv-x="683" d="M82 547q0 480 296 912h318q-297 -455 -297 -912q0 -454 297 -905h-317q-134 179 -215.5 414.5t-81.5 490.5z" />
<glyph unicode=")" horiz-adv-x="683" d="M-12 -358q296 444 296 905q0 459 -296 912h318q296 -432 296 -912q0 -255 -81 -490t-215 -415h-318z" />
<glyph unicode="*" horiz-adv-x="795" d="M63 1006l153 90l-153 86l92 159l155 -89v179h182v-177l154 87l91 -158l-153 -87l153 -90l-91 -159l-154 88v-175h-182v176l-155 -89z" />
<glyph unicode="+" horiz-adv-x="1102" d="M63 444v269h351v354h273v-354h353v-269h-353v-355h-273v355h-351z" />
<glyph unicode="," horiz-adv-x="594" d="M7 -274l204 629h340l-276 -629h-268z" />
<glyph unicode="-" horiz-adv-x="790" d="M117 388v269h562v-269h-562z" />
<glyph unicode="." horiz-adv-x="544" d="M80 175q0 80 57.5 137t137.5 57t137 -57t57 -137t-57.5 -137.5t-136.5 -57.5t-137 58t-58 137z" />
<glyph unicode="/" horiz-adv-x="851" d="M-18 -159l559 1583h310l-558 -1583h-311z" />
<glyph unicode="0" horiz-adv-x="1270" d="M84 705q0 104 22.5 203.5t68.5 187.5t110.5 155t155 106t195.5 39t195.5 -39t155 -106t110.5 -155t68.5 -187.5t22.5 -203.5q0 -105 -20 -206.5t-64.5 -195.5t-107.5 -165.5t-156 -114.5t-204 -43t-204 43t-156 114.5t-107.5 165.5t-64.5 195.5t-20 206.5zM455 705 q0 -69 9.5 -135t30 -127t57 -98t84.5 -37t85 37t57 98t29.5 127t9.5 135q0 65 -11 128t-32.5 116.5t-57 86t-80.5 32.5t-80.5 -32.5t-57 -86t-32.5 -116.5t-11 -128z" />
<glyph unicode="1" horiz-adv-x="777" d="M68 1050v326h577v-1376h-378v1050h-199z" />
<glyph unicode="2" horiz-adv-x="1137" d="M25 0l564 745q34 45 56 98.5t22 99.5q0 56 -33.5 91t-82.5 35q-99 0 -140 -171h-348q3 99 45.5 191t110.5 159t158.5 107.5t184.5 40.5q107 0 199 -37t153.5 -99.5t96.5 -144.5t35 -171q0 -66 -11.5 -120.5t-37 -102t-44 -74t-54.5 -71.5l-199 -248h346v-328h-1021z" />
<glyph unicode="3" horiz-adv-x="1131" d="M49 462h347q7 -69 48.5 -111.5t98.5 -42.5q54 0 91.5 38.5t37.5 100.5q0 71 -51 109.5t-138 38.5v238q74 0 114.5 33t40.5 93q0 52 -30 80.5t-73 28.5q-96 0 -122 -137h-330q3 125 74 234t177.5 170t216.5 61q102 0 190 -35t147.5 -93.5t93 -135t33.5 -159.5 q0 -77 -29.5 -130.5t-91.5 -111.5q81 -63 119 -132t38 -170q0 -87 -35 -168t-98 -143.5t-158.5 -100t-208.5 -37.5q-70 0 -141.5 22.5t-134.5 66t-113.5 101.5t-80.5 134t-32 158z" />
<glyph unicode="4" horiz-adv-x="1168" d="M2 224v182l708 970h255v-825h137v-327h-137v-224h-379v224h-584zM388 540h209v286z" />
<glyph unicode="5" horiz-adv-x="1120" d="M16 256l240 167q85 -115 201 -115q86 0 141.5 56t55.5 140q0 89 -67 143t-171 54q-141 0 -294 -103l225 778h669v-323h-437l-30 -105h21q120 0 226 -59t171.5 -166t65.5 -236q0 -142 -71 -258.5t-191 -182.5t-263 -66q-153 0 -279 70.5t-213 205.5z" />
<glyph unicode="6" horiz-adv-x="1189" d="M57 498q0 173 125 333l426 545h444l-320 -407l14 -4q163 -40 271 -170.5t108 -296.5q0 -140 -72 -259.5t-195 -189t-267 -69.5q-145 0 -268 69.5t-194.5 189t-71.5 259.5zM415 498q0 -80 51.5 -133t124.5 -53q72 0 124 52.5t52 133.5q0 80 -51.5 132.5t-124.5 52.5 q-72 0 -124 -52.5t-52 -132.5z" />
<glyph unicode="7" horiz-adv-x="1279" d="M52 0l599 1050h-577v326h1219l-806 -1376h-435z" />
<glyph unicode="8" horiz-adv-x="1148" d="M83 429q0 96 39 164.5t121 134.5q-66 61 -96 113.5t-30 131.5q0 185 128.5 304t329.5 119q199 0 328 -119.5t129 -303.5q0 -78 -30.5 -132t-96.5 -113q82 -68 122 -137t40 -162q0 -188 -140.5 -318.5t-351.5 -130.5q-213 0 -352.5 129.5t-139.5 319.5zM442 429 q0 -57 38.5 -95t94.5 -38t94 38t38 95t-38 95t-94 38t-94.5 -38t-38.5 -95zM463 976q0 -50 33 -80.5t79 -30.5q45 0 78 30.5t33 80.5t-33 81t-78 31t-78.5 -31t-33.5 -81z" />
<glyph unicode="9" horiz-adv-x="1184" d="M66 879q0 140 72 259t195 188.5t267 69.5q145 0 268 -69.5t194.5 -188.5t71.5 -259q0 -174 -125 -334l-426 -545h-444l320 407l-14 4q-163 40 -271 171t-108 297zM424 879q0 -80 51.5 -132.5t124.5 -52.5q72 0 123.5 52t51.5 133q0 80 -51 132.5t-124 52.5 q-72 0 -124 -52.5t-52 -132.5z" />
<glyph unicode=":" horiz-adv-x="591" d="M104 175q0 80 57 137t137 57t137 -57t57 -137t-57.5 -137.5t-136.5 -57.5t-136.5 57.5t-57.5 137.5zM104 671q0 79 57 136.5t137 57.5t137 -57.5t57 -136.5q0 -81 -57 -138t-137 -57t-137 57t-57 138z" />
<glyph unicode=";" horiz-adv-x="656" d="M3 -274l203 629h340l-276 -629h-267zM195 671q0 80 57 137t136 57q81 0 138 -57t57 -137q0 -81 -57 -138t-138 -57q-80 0 -136.5 57t-56.5 138z" />
<glyph unicode="&#x3c;" horiz-adv-x="1201" d="M57 465v227l1024 403v-279l-618 -238l618 -238v-279z" />
<glyph unicode="=" horiz-adv-x="1213" d="M119 229v270h977v-270h-977zM119 657v270h977v-270h-977z" />
<glyph unicode="&#x3e;" horiz-adv-x="1201" d="M122 61v279l618 238l-618 238v279l1025 -403v-227z" />
<glyph unicode="?" horiz-adv-x="938" d="M15 995q3 108 68.5 201.5t166 146.5t207.5 53q98 0 183.5 -30.5t143 -81.5t90.5 -117.5t33 -138.5q0 -71 -29.5 -128t-71 -95.5t-83 -74t-71 -80.5t-29.5 -98v-83h-346v128q0 58 15.5 107t40 82.5t54 61t59 48.5t54 40t40 40t15.5 44q0 35 -25.5 58.5t-64.5 23.5 q-89 0 -114 -107h-336zM249 181q0 83 59 142.5t142 59.5t142 -59.5t59 -142.5t-59 -142t-142 -59t-142 59t-59 142z" />
<glyph unicode="@" horiz-adv-x="1698" d="M73 450q0 200 96.5 356.5t260 240.5t363.5 84q63 0 127 -14.5t125.5 -47t109 -78.5t76.5 -114t29 -148v-480q-190 -130 -408 -130q-168 0 -280.5 88.5t-112.5 240.5q0 149 101.5 232.5t271.5 83.5q90 0 164 -41q-17 88 -70.5 130t-132.5 42q-204 0 -334 -121t-130 -324 q0 -211 148.5 -355.5t374.5 -144.5t374 144.5t148 355.5q0 100 -51 223l234 94q74 -170 74 -317q0 -151 -60.5 -287t-164 -234t-248 -156t-306.5 -58t-306.5 58t-248 156t-164 234t-60.5 287zM716 446q0 -46 40.5 -70t106.5 -24q67 0 140 33v66q-44 77 -173 77 q-47 0 -80.5 -23t-33.5 -59z" />
<glyph unicode="A" horiz-adv-x="1321" d="M-43 0l730 1416l673 -1416h-412l-60 146h-445l-66 -146h-420zM563 411h215l-103 250z" />
<glyph unicode="B" horiz-adv-x="1279" d="M143 0v1376h514q136 0 247 -48t178 -141.5t67 -216.5q0 -73 -29.5 -127.5t-89.5 -114.5q93 -64 140.5 -135.5t47.5 -178.5q0 -126 -72 -221.5t-191 -144t-264 -48.5h-548zM528 313h165q66 0 102.5 31.5t36.5 92.5q0 133 -137 133h-167v-257zM528 830h125q52 0 81 32 t29 91q0 110 -117 110h-118v-233z" />
<glyph unicode="C" horiz-adv-x="1375" d="M63 688q0 144 57.5 275t154.5 226t231.5 151t282.5 56q157 0 308 -75.5t275 -209.5l-254 -216q-79 90 -152.5 124.5t-176.5 34.5q-140 0 -239.5 -107.5t-99.5 -258.5t99.5 -258.5t239.5 -107.5q103 0 178 37.5t165 135.5l235 -234q-122 -132 -271.5 -206.5t-306.5 -74.5 q-148 0 -282.5 56t-231.5 151t-154.5 226t-57.5 275z" />
<glyph unicode="D" horiz-adv-x="1415" d="M143 0v1376h392q168 0 316.5 -47.5t260 -134.5t176 -218t64.5 -288q0 -141 -55.5 -267.5t-152.5 -219t-238 -147t-303 -54.5h-460zM528 332h83q152 0 254 104t102 252q0 162 -120.5 259.5t-303.5 97.5h-15v-713z" />
<glyph unicode="E" d="M143 0v1376h814v-331h-428v-180h360v-332h-360v-201h457v-332h-843z" />
<glyph unicode="F" horiz-adv-x="1010" d="M143 0v1376h814v-331h-429v-180h360v-332h-360v-533h-385z" />
<glyph unicode="G" horiz-adv-x="1516" d="M58 688q0 144 57.5 275t155 226t232 151t282.5 56q157 0 308 -75.5t274 -209.5l-254 -216q-81 90 -153.5 124.5t-174.5 34.5q-140 0 -240 -107.5t-100 -258.5t100 -258.5t240 -107.5q170 0 245 133h-248v288h693q-2 -221 -89.5 -394.5t-244 -271t-356.5 -97.5 q-148 0 -282.5 56t-232 151t-155 226t-57.5 275z" />
<glyph unicode="H" horiz-adv-x="1496" d="M143 0v1376h385v-511h439v511h386v-1376h-386v533h-439v-533h-385z" />
<glyph unicode="I" horiz-adv-x="666" d="M143 0v1376h386v-1376h-386z" />
<glyph unicode="J" horiz-adv-x="974" d="M-26 79l145 281q74 -47 153 -47q183 0 183 219v844h387v-894q0 -135 -43 -235.5t-117.5 -157t-163.5 -83t-194 -26.5q-190 0 -350 99z" />
<glyph unicode="K" horiz-adv-x="1433" d="M143 0v1376h385v-546l434 546h448l-542 -650l576 -726h-435l-481 614v-614h-385z" />
<glyph unicode="L" horiz-adv-x="945" d="M143 0v1376h385v-1044h413v-332h-798z" />
<glyph unicode="M" horiz-adv-x="1726" d="M-19 0l483 1416l397 -747l397 747l485 -1416h-397l-182 535l-303 -574l-300 574l-185 -535h-395z" />
<glyph unicode="N" horiz-adv-x="1581" d="M143 0v1416l907 -687v647h386v-1415l-908 687v-648h-385z" />
<glyph unicode="O" horiz-adv-x="1579" d="M63 688q0 144 57.5 275t154.5 226t231.5 151t282.5 56t282.5 -56t231.5 -151t154.5 -226t57.5 -275t-57.5 -275t-154.5 -226t-231.5 -151t-282.5 -56t-282.5 56t-231.5 151t-154.5 226t-57.5 275zM450 688q0 -151 99.5 -258.5t239.5 -107.5t239.5 107.5t99.5 258.5 t-99.5 258.5t-239.5 107.5t-239.5 -107.5t-99.5 -258.5z" />
<glyph unicode="P" horiz-adv-x="1210" d="M143 0v1376h550q137 0 247 -52.5t177.5 -160t67.5 -254.5t-67.5 -254.5t-177.5 -160t-247 -52.5h-164v-442h-386zM529 747h118q68 0 110 42t42 120q0 67 -42.5 101.5t-111.5 34.5h-116v-298z" />
<glyph unicode="Q" horiz-adv-x="1615" d="M63 688q0 144 57.5 275t155 226t232 151t282.5 56t282.5 -56t231.5 -151t154.5 -226t57.5 -275q0 -217 -125 -397q55 -21 125 -21v-290q-214 0 -345 106q-176 -106 -381 -106q-148 0 -282.5 56t-232 151t-155 226t-57.5 275zM451 688q0 -151 99.5 -258.5t239.5 -107.5 q80 0 148 36q-67 52 -158 52v290q216 0 336 -113q13 52 13 101q0 151 -99.5 258.5t-239.5 107.5t-239.5 -107.5t-99.5 -258.5z" />
<glyph unicode="R" horiz-adv-x="1270" d="M143 0v1376h549q135 0 246.5 -54.5t179 -158.5t67.5 -236q0 -113 -51.5 -211.5t-144.5 -163.5l261 -552h-418l-213 477h-91v-477h-385zM528 782h118q75 0 114 35.5t39 101.5q0 61 -39 93.5t-115 32.5h-117v-263z" />
<glyph unicode="S" horiz-adv-x="1050" d="M20 266l276 160q102 -145 208 -145q36 0 70 26.5t34 69.5q0 40 -27 78t-70.5 71.5t-96 68.5t-105 78t-96 92.5t-70.5 119t-27 149.5q0 156 126.5 259t323.5 103q200 0 405 -211l-235 -189q-91 98 -163 98q-28 0 -50.5 -16.5t-22.5 -48.5q0 -31 27.5 -63.5t71 -64t96 -67 t105.5 -80t96.5 -94.5t71 -118.5t27.5 -145.5q0 -187 -132.5 -301.5t-367.5 -114.5q-285 0 -475 286z" />
<glyph unicode="T" horiz-adv-x="978" d="M-4 1045v331h986v-331h-300v-1045h-386v1045h-300z" />
<glyph unicode="U" horiz-adv-x="1466" d="M135 538v838h386v-783q0 -84 18.5 -141.5t54 -87.5t78 -42t99.5 -12q93 0 172 45v1021h386v-1214q-124 -85 -267 -133.5t-287 -48.5q-115 0 -205 13.5t-174 50.5t-139.5 98t-88.5 161t-33 235z" />
<glyph unicode="V" horiz-adv-x="1314" d="M-21 1376h414l276 -629l252 629h415l-667 -1415z" />
<glyph unicode="W" horiz-adv-x="2025" d="M-20 1376h414l297 -629l325 669l333 -669l281 629h414l-667 -1415l-361 686l-347 -686z" />
<glyph unicode="X" horiz-adv-x="1297" d="M-22 0l450 719l-410 657h443l188 -301l189 301h444l-411 -657l449 -719h-443l-228 365l-227 -365h-444z" />
<glyph unicode="Y" horiz-adv-x="1273" d="M-24 1376h443l219 -349l218 349h443l-468 -750v-626h-386v626z" />
<glyph unicode="Z" horiz-adv-x="1257" d="M13 0l595 1045h-513v331h1131l-595 -1044h564v-332h-1182z" />
<glyph unicode="[" horiz-adv-x="672" d="M139 -344v1789h508v-270h-206v-1249h206v-270h-508z" />
<glyph unicode="\" horiz-adv-x="855" d="M6 1424h310l558 -1583h-311z" />
<glyph unicode="]" horiz-adv-x="672" d="M26 -74h206v1249h-206v270h508v-1789h-508v270z" />
<glyph unicode="^" horiz-adv-x="980" d="M30 563l346 813h229l346 -813h-286l-175 419l-175 -419h-285z" />
<glyph unicode="_" horiz-adv-x="1008" d="M-15 -179h1039v-102h-1039v102z" />
<glyph unicode="`" horiz-adv-x="561" d="M-1 1427h341l174 -322h-274z" />
<glyph unicode="a" horiz-adv-x="1050" d="M36 291q0 115 93.5 187.5t249.5 72.5q131 0 220 -59q0 31 -8 56t-20 41t-32 27t-36.5 16.5t-42 8.5t-40 3.5t-38.5 0.5q-94 0 -190 -35l-73 179q176 76 401 76q75 0 138.5 -11t121 -37.5t98 -67.5t64 -105.5t23.5 -147.5v-365q-108 -73 -237 -112t-244 -39 q-121 0 -220.5 33t-163.5 105t-64 173zM370 289q0 -39 30 -62.5t83 -23.5q60 0 116 29v76q-44 64 -126 64q-45 0 -74 -22t-29 -61z" />
<glyph unicode="b" horiz-adv-x="1099" d="M101 131v1403h363v-712q67 43 165 43q81 0 155.5 -28t134.5 -80.5t96 -135.5t36 -184q0 -207 -137 -332t-378 -125q-230 0 -435 151zM464 275q34 -19 78 -19q60 0 102.5 49.5t42.5 129.5q0 84 -38 121.5t-91 37.5q-57 0 -94 -54v-265z" />
<glyph unicode="c" horiz-adv-x="960" d="M43 423q0 120 66.5 222t180.5 161t249 59q214 0 387 -168l-203 -166q-41 41 -77.5 57t-85.5 16q-69 0 -120.5 -49.5t-51.5 -131.5t52 -132t120 -50q104 0 177 99l214 -161q-79 -93 -186.5 -146t-225.5 -53q-135 0 -249 59t-180.5 161.5t-66.5 222.5z" />
<glyph unicode="d" horiz-adv-x="1098" d="M50 437q0 101 36 184t95.5 135.5t134.5 80.5t155 28q98 0 165 -43v712h364v-1403q-207 -151 -437 -151q-242 0 -377.5 125t-135.5 332zM413 435q0 -80 42.5 -129.5t102.5 -49.5q44 0 78 19v265q-37 54 -93 54q-54 0 -92 -37.5t-38 -121.5z" />
<glyph unicode="e" horiz-adv-x="1034" d="M47 423q0 131 64.5 232.5t172.5 155.5t240 54q212 0 344.5 -140t132.5 -383h-616q6 -66 58 -104.5t123 -38.5q117 0 214 86l166 -135q-186 -170 -403 -170q-216 0 -356 122.5t-140 320.5zM385 509h286q-11 62 -49.5 96t-97.5 34q-54 0 -91.5 -34.5t-47.5 -95.5z" />
<glyph unicode="f" horiz-adv-x="691" d="M100 -466v1563q0 218 151.5 336t404.5 120v-319q-193 -3 -193 -176v-213h185v-306h-185v-1005h-363z" />
<glyph unicode="g" horiz-adv-x="1099" d="M52 409q0 207 136.5 331.5t378.5 124.5q230 0 435 -150v-750q0 -215 -126.5 -333t-366.5 -118q-192 0 -413 90l90 228q175 -60 275 -60q105 0 141.5 43.5t36.5 156.5v52q-69 -44 -165 -44q-80 0 -155 28.5t-135 80.5t-96 135.5t-36 184.5zM416 410q0 -84 37.5 -121.5 t91.5 -37.5q55 0 94 54v265q-35 19 -78 19q-60 0 -102.5 -49.5t-42.5 -129.5z" />
<glyph unicode="h" horiz-adv-x="1141" d="M102 0v1534h363v-735q33 30 93 48t116 18q186 0 282 -106t96 -316v-443h-363v445q0 79 -27.5 119.5t-77.5 40.5q-119 0 -119 -159v-446h-363z" />
<glyph unicode="i" horiz-adv-x="552" d="M77 1219q0 83 59.5 142t141.5 59q83 0 142.5 -59t59.5 -142t-59.5 -142t-142.5 -59t-142 59t-59 142zM96 0v845h364v-845h-364z" />
<glyph unicode="j" horiz-adv-x="550" d="M76 1219q0 83 59 142t142 59t142 -59t59 -142t-59 -142t-142 -59t-142 59t-59 142zM95 -466v1311h363v-1311h-363z" />
<glyph unicode="k" horiz-adv-x="1139" d="M102 0v1534h363v-983l267 294h405l-363 -401l378 -444h-401l-286 335v-335h-363z" />
<glyph unicode="l" horiz-adv-x="560" d="M105 0v1534h363v-1534h-363z" />
<glyph unicode="m" horiz-adv-x="1627" d="M102 0v845h363v-71q35 41 92 66t119 25q75 0 125.5 -28.5t98.5 -90.5q117 119 269 119q185 0 275 -100t90 -322v-443h-363v449q0 156 -85 156q-87 0 -87 -161v-444h-362v449q0 156 -85 156q-87 0 -87 -161v-444h-363z" />
<glyph unicode="n" horiz-adv-x="1141" d="M102 0v845h363v-71q35 41 92.5 66t120.5 25q185 0 279.5 -106t94.5 -316v-443h-363v445q0 79 -27.5 119.5t-77.5 40.5q-119 0 -119 -159v-446h-363z" />
<glyph unicode="o" horiz-adv-x="1082" d="M47 423q0 120 66.5 222t180.5 161t249 59q134 0 248 -59t180.5 -161t66.5 -222t-66.5 -222.5t-180.5 -161.5t-248 -59q-135 0 -249 59t-180.5 161.5t-66.5 222.5zM391 423q0 -80 44.5 -131t107.5 -51t106.5 50.5t43.5 131.5t-43.5 131t-106.5 50t-107.5 -50.5 t-44.5 -130.5z" />
<glyph unicode="p" horiz-adv-x="1097" d="M100 -466v1181q204 150 436 150q241 0 377.5 -124.5t136.5 -331.5q0 -101 -36 -184.5t-96 -135.5t-134.5 -80.5t-155.5 -28.5q-96 0 -165 44v-490h-363zM463 305q37 -54 94 -54q53 0 91 37.5t38 121.5q0 80 -42.5 129.5t-102.5 49.5q-44 0 -78 -19v-265z" />
<glyph unicode="q" horiz-adv-x="1096" d="M49 409q0 207 136.5 331.5t377.5 124.5q232 0 436 -150v-1181h-363v490q-69 -44 -165 -44q-81 0 -155.5 28.5t-134.5 80.5t-96 135.5t-36 184.5zM413 410q0 -84 38 -121.5t91 -37.5q57 0 94 54v265q-34 19 -78 19q-60 0 -102.5 -49.5t-42.5 -129.5z" />
<glyph unicode="r" horiz-adv-x="814" d="M102 0v845h364v-87q107 107 224 107q91 0 150 -40l-128 -229q-40 20 -88 20q-68 0 -113 -50.5t-45 -134.5v-431h-364z" />
<glyph unicode="s" horiz-adv-x="786" d="M27 124l156 157q50 -39 85.5 -59.5t49 -24t29.5 -3.5q27 0 41 13.5t14 34.5q0 25 -34.5 52t-83.5 55.5t-98 62.5t-83.5 86t-34.5 113q0 118 89 186t227 68q180 0 294 -100l-134 -155q-56 45 -103 45q-16 0 -27.5 -9t-11.5 -23q0 -23 36.5 -49t88 -55.5t103.5 -65 t88.5 -90t36.5 -117.5q0 -127 -97.5 -196.5t-275.5 -69.5q-185 0 -355 144z" />
<glyph unicode="t" horiz-adv-x="690" d="M100 0v1156h363v-311h185v-306h-185v-539h-363z" />
<glyph unicode="u" horiz-adv-x="1129" d="M95 382v463h365v-428q0 -101 31.5 -138.5t87.5 -37.5q48 0 88 25v579h364v-714q-209 -151 -453 -151q-84 0 -150.5 9.5t-130.5 36.5t-107 71t-69 116t-26 169z" />
<glyph unicode="v" horiz-adv-x="1015" d="M-25 845h371l162 -309l162 309h372l-534 -884z" />
<glyph unicode="w" horiz-adv-x="1514" d="M-22 845h372l177 -306l222 346l216 -347l196 307h371l-540 -884l-243 356l-249 -356z" />
<glyph unicode="x" horiz-adv-x="1075" d="M-34 0l375 464l-309 381h401l108 -133l107 133h400l-308 -381l374 -464h-401l-172 215l-174 -215h-401z" />
<glyph unicode="y" d="M-23 845h374l184 -366l184 366h375l-658 -1311h-376l288 573z" />
<glyph unicode="z" horiz-adv-x="1051" d="M12 0l422 571h-337v274h901l-424 -570h424v-275h-986z" />
<glyph unicode="{" horiz-adv-x="712" d="M55 419v266q74 0 113.5 50t39.5 126v301q0 77 22.5 133t63 88t91 47t111.5 15h196v-262h-62q-63 0 -92 -43t-29 -114v-230q0 -108 -45.5 -168t-106.5 -76v-1q61 -16 106.5 -75.5t45.5 -167.5v-232q0 -72 29.5 -115t91.5 -43h62v-262h-196q-130 0 -209 67.5t-79 221.5v297 q0 76 -39.5 126.5t-113.5 50.5z" />
<glyph unicode="|" horiz-adv-x="554" d="M139 -466v2000h283v-2000h-283z" />
<glyph unicode="}" horiz-adv-x="712" d="M21 -82h62q62 0 91.5 43t29.5 115v232q0 108 45.5 167t106.5 76v1q-60 16 -106 76.5t-46 167.5v230q0 71 -29 114t-92 43h-62v262h196q61 0 111.5 -15t91 -47t63 -88t22.5 -133v-301q0 -76 40 -126t113 -50v-266q-73 0 -113 -50.5t-40 -126.5v-297q0 -154 -79 -221.5 t-209 -67.5h-196v262z" />
<glyph unicode="~" horiz-adv-x="1187" d="M79 412q19 212 103.5 324t203.5 112q65 0 116 -16.5t82 -40t57 -47.5t56 -40.5t64 -16.5q69 0 97 154h258q-19 -213 -103 -325t-204 -112q-66 0 -117 16.5t-81.5 40t-56.5 47.5t-55.5 40.5t-64.5 16.5q-69 0 -97 -153h-258z" />
<glyph unicode="&#xa1;" horiz-adv-x="625" d="M114 855q0 83 59.5 142t142.5 59t142 -59t59 -142t-59.5 -142t-141.5 -59q-83 0 -142.5 59t-59.5 142zM141 -340v907h349v-907h-349z" />
<glyph unicode="&#xa2;" horiz-adv-x="974" d="M49 688q0 153 104.5 272t266.5 156v165h231v-162q158 -35 281 -156l-203 -166q-41 41 -78 57t-86 16q-69 0 -120.5 -50t-51.5 -132t51.5 -131.5t120.5 -49.5q105 0 178 99l214 -162q-124 -148 -306 -187v-161h-231v164q-162 37 -266.5 156t-104.5 272z" />
<glyph unicode="&#xa3;" horiz-adv-x="1224" d="M93 0v229q177 166 187 302h-167v251h98q-26 81 -26 161q0 90 35 172t97 144.5t154 99.5t200 37q128 0 241 -68.5t181 -183t71 -245.5h-349q-36 165 -140 165q-49 0 -76.5 -32.5t-27.5 -90.5q0 -27 7.5 -57.5t13.5 -45.5t23 -56h203v-251h-151q0 -100 -61 -199h526v-332 h-1039z" />
<glyph unicode="&#xa4;" horiz-adv-x="1295" d="M73 280l148 144q-63 106 -63 233q0 130 64 241l-149 147l187 187l151 -151q109 60 237 60q127 0 235 -58l149 148l190 -186l-149 -145q67 -115 67 -243q0 -127 -66 -235l148 -142l-190 -190l-150 150q-111 -60 -234 -60q-133 0 -239 60l-149 -151zM435 659q0 -89 62 -154 t151 -65q85 0 149 64t64 155q0 92 -62 157.5t-151 65.5q-87 0 -150 -64.5t-63 -158.5z" />
<glyph unicode="&#xa5;" horiz-adv-x="1253" d="M32 1376h408l188 -349l187 349h408l-302 -563h171v-217h-270v-143h270v-218h-270v-235h-387v235h-272v218h272v143h-272v217h171z" />
<glyph unicode="&#xa6;" horiz-adv-x="519" d="M121 340h283v-691h-283v691zM121 728v691h283v-691h-283z" />
<glyph unicode="&#xa7;" horiz-adv-x="1137" d="M70 590q0 105 48.5 198t135.5 160q-106 113 -106 250q0 149 124 252t299 103q109 0 205.5 -54t155.5 -149t60 -208h-310q-2 58 -32.5 92.5t-73.5 34.5q-39 0 -63.5 -25t-24.5 -59q0 -54 54.5 -88.5t127.5 -50.5q172 -37 287 -164t115 -292q0 -105 -49 -197.5t-136 -160.5 q107 -114 107 -249q0 -149 -124 -253t-299 -104q-109 0 -205.5 54t-156 149.5t-60.5 207.5h311q1 -57 32 -91t73 -34q39 0 63.5 25t24.5 59q0 55 -55 90t-126 49q-174 33 -288 160t-114 295zM411 590q0 -76 45 -128t115 -52t115 52t45 128t-45 127.5t-115 51.5t-115 -51.5 t-45 -127.5z" />
<glyph unicode="&#xa8;" horiz-adv-x="912" d="M83 1252q0 68 46.5 114.5t113.5 46.5q69 0 114.5 -46.5t45.5 -114.5t-45.5 -113.5t-114.5 -45.5q-68 0 -114 46t-46 113zM511 1252q0 68 46.5 114.5t114.5 46.5q69 0 114.5 -46.5t45.5 -114.5t-45.5 -113.5t-114.5 -45.5q-68 0 -114.5 46t-46.5 113z" />
<glyph unicode="&#xa9;" horiz-adv-x="1547" d="M66 690q0 144 56 275t151 225t226 150t275 56t275 -56t225.5 -150t150.5 -225t56 -275q0 -192 -94.5 -355.5t-257.5 -259t-355 -95.5q-144 0 -275 56.5t-226 151.5t-151 226.5t-56 275.5zM253 690q0 -148 68.5 -269.5t188.5 -191t264 -69.5q145 0 264.5 69.5t188 191 t68.5 269.5q0 223 -150.5 375t-370.5 152q-144 0 -264 -69.5t-188.5 -190.5t-68.5 -267zM425 690q0 106 39 196t121 149t194 59q56 0 110 -18t101 -52.5t80.5 -92.5t42.5 -130h-186q-10 63 -49.5 97t-98.5 34q-71 0 -114.5 -65t-43.5 -177t42 -175t116 -63q55 0 96 38.5 t52 104.5h186q-13 -141 -108 -227t-226 -86q-172 0 -263 113.5t-91 294.5z" />
<glyph unicode="&#xaa;" horiz-adv-x="801" d="M64 965q0 77 64.5 126.5t170.5 49.5q93 0 155 -42q0 33 -11 56.5t-25 34.5t-39 17t-39 7t-39 1q-64 0 -131 -24l-47 117q122 51 275 51q306 0 306 -251v-250q-75 -50 -163.5 -76.5t-168.5 -26.5q-84 0 -152 22t-112 70.5t-44 117.5zM291 964q0 -29 22 -46.5t59 -17.5 q38 0 82 22v58q-33 46 -90 46q-32 0 -52.5 -16t-20.5 -46z" />
<glyph unicode="&#xab;" horiz-adv-x="1154" d="M14 440l294 415h305l-266 -415l266 -415h-305zM512 440l294 415h306l-267 -415l267 -415h-306z" />
<glyph unicode="&#xac;" horiz-adv-x="1226" d="M86 533v269h978v-641h-281v372h-697z" />
<glyph unicode="&#xad;" horiz-adv-x="790" d="M117 388v269h562v-269h-562z" />
<glyph unicode="&#xae;" horiz-adv-x="990" d="M66 963q0 179 126.5 305.5t305.5 126.5t305.5 -126.5t126.5 -305.5t-126.5 -306t-305.5 -127t-305.5 127t-126.5 306zM192 963q0 -132 88.5 -221t217.5 -89t217 89t88 221q0 131 -88 220.5t-217 89.5q-128 0 -217 -90t-89 -220zM339 746v453h168q95 0 138 -35.5 t43 -105.5q0 -90 -74 -123l92 -189h-134l-81 168h-31v-168h-121zM460 1019h35q75 0 75 39q0 37 -77 37h-33v-76z" />
<glyph unicode="&#xaf;" horiz-adv-x="831" d="M101 1140v217h634v-217h-634z" />
<glyph unicode="&#xb0;" horiz-adv-x="782" d="M61 1064q0 137 97.5 234.5t235.5 97.5q137 0 234.5 -97.5t97.5 -234.5q0 -138 -97.5 -235t-234.5 -97q-138 0 -235.5 97t-97.5 235zM245 1064q0 -62 43.5 -105.5t105.5 -43.5t105.5 43.5t43.5 105.5q0 61 -43.5 104.5t-105.5 43.5t-105.5 -43t-43.5 -105z" />
<glyph unicode="&#xb1;" horiz-adv-x="1186" d="M106 -10v270h977v-270h-977zM106 619v270h349v276h279v-276h349v-270h-349v-277h-279v277h-349z" />
<glyph unicode="&#xb2;" horiz-adv-x="681" d="M15 802l330 436q43 55 43 111q0 31 -16.5 49.5t-40.5 18.5q-50 0 -72 -98h-220q4 119 93.5 207t204.5 88q128 0 208.5 -77.5t80.5 -186.5q0 -49 -15.5 -93t-28.5 -63t-43 -58l-109 -136h196v-198h-611z" />
<glyph unicode="&#xb3;" horiz-adv-x="673" d="M29 1078h220q4 -40 25 -64t49 -24q27 0 46 20.5t19 54.5q0 39 -29.5 60.5t-79.5 21.5v145q42 0 66 18t24 50q0 28 -14.5 43.5t-34.5 15.5q-48 0 -62 -79h-209q4 113 90 194.5t189 81.5q122 0 199.5 -73.5t77.5 -174.5q0 -44 -16.5 -74t-52.5 -65q47 -37 68.5 -76.5 t21.5 -97.5q0 -107 -82.5 -185t-215.5 -78q-110 0 -202.5 82.5t-96.5 203.5z" />
<glyph unicode="&#xb4;" horiz-adv-x="562" d="M55 1105l174 322h341l-241 -322h-274z" />
<glyph unicode="&#xb5;" horiz-adv-x="1185" d="M146 -466v1311h290v-461q0 -72 33.5 -117.5t89.5 -45.5q40 0 69 16t45.5 41.5t25.5 68.5t12 86t3 106v306h291v-470q0 -40 0.5 -58t4.5 -46.5t12 -42.5t24 -29t40 -23v-196q-119 0 -195 30.5t-108 77.5q-50 -61 -102.5 -84.5t-125.5 -23.5q-76 0 -119 33v-479h-290z" />
<glyph unicode="&#xb6;" horiz-adv-x="1299" d="M26 944q0 213 144 322.5t402 109.5h568v-1679h-238v1469h-174v-1469h-238v828q-204 13 -334 132t-130 287z" />
<glyph unicode="&#xb7;" horiz-adv-x="565" d="M90 565q0 79 57 136.5t137 57.5t137.5 -57.5t57.5 -136.5q0 -81 -57.5 -138t-137.5 -57t-137 57t-57 138z" />
<glyph unicode="&#xb8;" horiz-adv-x="464" d="M-2 -374l43 111q69 -36 128 -36q52 0 52 37q0 35 -50.5 50t-117.5 15l118 197h188l-70 -110q60 -14 100 -50.5t40 -90.5q0 -89 -70 -132t-175 -43q-99 0 -186 52z" />
<glyph unicode="&#xb9;" horiz-adv-x="474" d="M42 1408v197h352v-801h-238v604h-114z" />
<glyph unicode="&#xba;" horiz-adv-x="801" d="M62 1057q0 125 100 213.5t242 88.5t241.5 -88.5t99.5 -213.5t-99.5 -213.5t-241.5 -88.5t-242 88.5t-100 213.5zM297 1057q0 -58 31.5 -94t75.5 -36t75 36t31 94t-31 94t-75 36t-75.5 -36t-31.5 -94z" />
<glyph unicode="&#xbb;" horiz-adv-x="1155" d="M51 25l267 415l-267 415h305l294 -415l-294 -415h-305zM549 25l267 415l-267 415h306l293 -415l-293 -415h-306z" />
<glyph unicode="&#xbc;" horiz-adv-x="1475" d="M32 1178v197h352v-801h-238v604h-114zM178 -39l821 1455h250l-820 -1455h-251zM764 131v109l411 563h164v-475h79v-197h-79v-129h-238v129h-337zM1010 321h97v133z" />
<glyph unicode="&#xbd;" horiz-adv-x="1597" d="M31 1178v197h352v-801h-237v604h-115zM178 -39l820 1455h251l-821 -1455h-250zM917 -1l331 437q42 54 42 111q0 31 -16 49.5t-40 18.5q-49 0 -71 -98h-220q4 119 93 207t205 88q127 0 207.5 -77.5t80.5 -186.5q0 -50 -15 -93.5t-29 -64t-43 -57.5l-109 -136h196v-198 h-612z" />
<glyph unicode="&#xbe;" horiz-adv-x="1643" d="M34 849h220q4 -40 25.5 -64.5t49.5 -24.5q27 0 45.5 21t18.5 55q0 38 -29.5 59.5t-79.5 21.5v145q42 0 66 18t24 50q0 28 -15 43t-35 15q-47 0 -61 -78h-209q4 113 90 194.5t189 81.5q122 0 200 -73t78 -174q0 -77 -70 -140q47 -37 69 -77t22 -97q0 -107 -82.5 -185 t-216.5 -78q-110 0 -202.5 83t-96.5 204zM348 -39l821 1455h250l-821 -1455h-250zM934 131v109l411 563h164v-475h79v-197h-79v-129h-238v129h-337zM1180 321h97v133z" />
<glyph unicode="&#xbf;" horiz-adv-x="914" d="M23 8q0 52 15.5 97t40.5 76.5t55 60t60.5 54.5t55.5 53t40.5 61.5t15.5 73.5v83h346v-128q0 -67 -20.5 -122.5t-51.5 -89t-67 -64t-67 -50.5t-51.5 -45.5t-20.5 -51.5q0 -35 25.5 -58.5t64.5 -23.5q89 0 114 107h336q-5 -108 -69.5 -201.5t-164.5 -146.5t-208 -53 q-196 0 -322.5 109.5t-126.5 258.5zM278 855q0 83 59 142t142 59t142 -59t59 -142t-59 -142t-142 -59t-142 59t-59 142z" />
<glyph unicode="&#xc0;" horiz-adv-x="1321" d="M-43 0l730 1416l673 -1416h-412l-60 146h-445l-66 -146h-420zM291 1756h365l186 -260h-293zM563 411h215l-103 250z" />
<glyph unicode="&#xc1;" horiz-adv-x="1321" d="M-43 0l730 1416l673 -1416h-412l-60 146h-445l-66 -146h-420zM536 1491l186 261h364l-257 -261h-293zM563 411h215l-103 250z" />
<glyph unicode="&#xc2;" horiz-adv-x="1321" d="M-43 0l730 1416l673 -1416h-412l-60 146h-445l-66 -146h-420zM315 1491l279 263h184l285 -263h-273l-101 102l-105 -102h-269zM563 411h215l-103 250z" />
<glyph unicode="&#xc3;" horiz-adv-x="1321" d="M-43 0l730 1416l673 -1416h-412l-60 146h-445l-66 -146h-420zM373 1507q7 137 66.5 212.5t135.5 75.5q47 0 82.5 -17t52 -37t33.5 -37t31 -17q20 0 31.5 24t19.5 79h180q-8 -137 -67.5 -213t-135.5 -76q-47 0 -82.5 17t-52 38t-33.5 38t-31 17q-20 0 -31.5 -24.5 t-19.5 -79.5h-179zM563 411h215l-103 250z" />
<glyph unicode="&#xc4;" horiz-adv-x="1321" d="M-43 0l730 1416l673 -1416h-412l-60 146h-445l-66 -146h-420zM315 1657q0 68 46.5 114.5t114.5 46.5q69 0 114 -46t45 -115q0 -68 -45 -114t-114 -46q-68 0 -114.5 46.5t-46.5 113.5zM563 411h215l-103 250zM743 1657q0 68 46.5 114.5t114.5 46.5q69 0 114.5 -46 t45.5 -115q0 -68 -45.5 -114t-114.5 -46q-68 0 -114.5 46.5t-46.5 113.5z" />
<glyph unicode="&#xc5;" horiz-adv-x="1321" d="M-43 0l730 1416l673 -1416h-412l-60 146h-445l-66 -146h-420zM478 1682q0 87 60.5 148t147.5 61t148 -61t61 -148t-61 -148t-148 -61t-147.5 61t-60.5 148zM563 411h215l-103 250zM605 1682q0 -35 23.5 -59t57.5 -24t58.5 24.5t24.5 58.5t-24.5 58t-58.5 24t-57.5 -24 t-23.5 -58z" />
<glyph unicode="&#xc6;" horiz-adv-x="1727" d="M-49 0l896 1376h768v-331h-428v-180h360v-332h-360v-201h457v-332h-843v146h-322l-82 -146h-446zM629 411h172v305z" />
<glyph unicode="&#xc7;" horiz-adv-x="1375" d="M63 688q0 144 57.5 275t154.5 226t231.5 151t282.5 56q157 0 308 -75.5t275 -209.5l-254 -216q-79 90 -152.5 124.5t-176.5 34.5q-140 0 -239.5 -107.5t-99.5 -258.5t99.5 -258.5t239.5 -107.5q103 0 178 37.5t165 135.5l235 -234q-199 -216 -449 -267l-59 -94 q60 -14 99.5 -50.5t39.5 -90.5q0 -89 -70 -131.5t-175 -42.5q-101 0 -186 51l43 111q69 -36 128 -36q53 0 53 37q0 34 -51 49.5t-117 15.5l101 170q-183 16 -334.5 113.5t-239 254t-87.5 337.5z" />
<glyph unicode="&#xc8;" d="M143 0v1376h814v-331h-428v-180h360v-332h-360v-201h457v-332h-843zM188 1756h364l187 -260h-294z" />
<glyph unicode="&#xc9;" d="M143 0v1376h814v-331h-428v-180h360v-332h-360v-201h457v-332h-843zM382 1491l186 261h364l-257 -261h-293z" />
<glyph unicode="&#xca;" d="M143 0v1376h814v-331h-428v-180h360v-332h-360v-201h457v-332h-843zM190 1491l279 263h185l284 -263h-273l-101 102l-104 -102h-270z" />
<glyph unicode="&#xcb;" d="M143 0v1376h814v-331h-428v-180h360v-332h-360v-201h457v-332h-843zM173 1659q0 68 46.5 114t114.5 46q69 0 114 -45.5t45 -114.5q0 -68 -45 -114t-114 -46q-68 0 -114.5 46.5t-46.5 113.5zM602 1659q0 68 46.5 114t114.5 46q69 0 114 -45.5t45 -114.5q0 -68 -45 -114 t-114 -46q-68 0 -114.5 46.5t-46.5 113.5z" />
<glyph unicode="&#xcc;" horiz-adv-x="666" d="M-31 1756h364l186 -260h-293zM143 0v1376h386v-1376h-386z" />
<glyph unicode="&#xcd;" horiz-adv-x="666" d="M143 0v1376h386v-1376h-386zM153 1491l186 261h365l-258 -261h-293z" />
<glyph unicode="&#xce;" horiz-adv-x="666" d="M-38 1491l279 263h184l285 -263h-273l-101 102l-105 -102h-269zM143 0v1376h386v-1376h-386z" />
<glyph unicode="&#xcf;" horiz-adv-x="666" d="M-39 1659q0 68 46.5 114t114.5 46q69 0 114.5 -46t45.5 -114t-45.5 -114t-114.5 -46q-68 0 -114.5 46.5t-46.5 113.5zM143 0v1376h386v-1376h-386zM390 1659q0 68 46.5 114t114.5 46q69 0 114 -45.5t45 -114.5q0 -68 -45 -114t-114 -46q-68 0 -114.5 46.5t-46.5 113.5z " />
<glyph unicode="&#xd1;" horiz-adv-x="1581" d="M143 0v1416l907 -687v647h386v-1415l-908 687v-648h-385zM473 1546q9 137 67.5 213t134.5 76q47 0 82.5 -17t52 -37.5t33.5 -37.5t31 -17q21 0 32.5 24t19.5 79h179q-9 -137 -67.5 -213t-134.5 -76q-38 0 -68.5 11.5t-48 27.5t-31 32t-26.5 27.5t-25 11.5q-38 0 -52 -104 h-179z" />
<glyph unicode="&#xd2;" horiz-adv-x="1579" d="M63 688q0 144 57.5 275t154.5 226t231.5 151t282.5 56t282.5 -56t231.5 -151t154.5 -226t57.5 -275t-57.5 -275t-154.5 -226t-231.5 -151t-282.5 -56t-282.5 56t-231.5 151t-154.5 226t-57.5 275zM412 1757h364l186 -260h-293zM450 688q0 -151 99.5 -258.5t239.5 -107.5 t239.5 107.5t99.5 258.5t-99.5 258.5t-239.5 107.5t-239.5 -107.5t-99.5 -258.5z" />
<glyph unicode="&#xd3;" horiz-adv-x="1579" d="M63 688q0 144 57.5 275t154.5 226t231.5 151t282.5 56t282.5 -56t231.5 -151t154.5 -226t57.5 -275t-57.5 -275t-154.5 -226t-231.5 -151t-282.5 -56t-282.5 56t-231.5 151t-154.5 226t-57.5 275zM450 688q0 -151 99.5 -258.5t239.5 -107.5t239.5 107.5t99.5 258.5 t-99.5 258.5t-239.5 107.5t-239.5 -107.5t-99.5 -258.5zM630 1493l185 260h365l-258 -260h-292z" />
<glyph unicode="&#xd4;" horiz-adv-x="1579" d="M63 688q0 144 57.5 275t154.5 226t231.5 151t282.5 56t282.5 -56t231.5 -151t154.5 -226t57.5 -275t-57.5 -275t-154.5 -226t-231.5 -151t-282.5 -56t-282.5 56t-231.5 151t-154.5 226t-57.5 275zM415 1493l279 262h184l285 -262h-273l-102 102l-104 -102h-269zM450 688 q0 -151 99.5 -258.5t239.5 -107.5t239.5 107.5t99.5 258.5t-99.5 258.5t-239.5 107.5t-239.5 -107.5t-99.5 -258.5z" />
<glyph unicode="&#xd5;" horiz-adv-x="1579" d="M63 688q0 144 57.5 275t154.5 226t231.5 151t282.5 56t282.5 -56t231.5 -151t154.5 -226t57.5 -275t-57.5 -275t-154.5 -226t-231.5 -151t-282.5 -56t-282.5 56t-231.5 151t-154.5 226t-57.5 275zM450 688q0 -151 99.5 -258.5t239.5 -107.5t239.5 107.5t99.5 258.5 t-99.5 258.5t-239.5 107.5t-239.5 -107.5t-99.5 -258.5zM473 1506q9 137 67.5 213t134.5 76q47 0 82.5 -17t52 -37.5t33.5 -37.5t31 -17q20 0 31.5 24t19.5 79h180q-8 -137 -67.5 -212.5t-135.5 -75.5q-47 0 -82.5 17t-51.5 37.5t-33 37.5t-31 17q-38 0 -52 -104h-179z" />
<glyph unicode="&#xd6;" horiz-adv-x="1579" d="M63 688q0 144 57.5 275t154.5 226t231.5 151t282.5 56t282.5 -56t231.5 -151t154.5 -226t57.5 -275t-57.5 -275t-154.5 -226t-231.5 -151t-282.5 -56t-282.5 56t-231.5 151t-154.5 226t-57.5 275zM415 1658q0 68 46 114.5t114 46.5q69 0 114.5 -46t45.5 -115 q0 -68 -45.5 -113.5t-114.5 -45.5q-68 0 -114 46t-46 113zM450 688q0 -151 99.5 -258.5t239.5 -107.5t239.5 107.5t99.5 258.5t-99.5 258.5t-239.5 107.5t-239.5 -107.5t-99.5 -258.5zM843 1658q0 68 46.5 114.5t114.5 46.5q69 0 114.5 -46t45.5 -115q0 -68 -45.5 -113.5 t-114.5 -45.5q-68 0 -114.5 46t-46.5 113z" />
<glyph unicode="&#xd7;" horiz-adv-x="1005" d="M65 318l260 260l-260 261l181 178l259 -259l260 260l176 -180l-258 -259l260 -259l-178 -182l-261 261l-260 -261z" />
<glyph unicode="&#xd8;" horiz-adv-x="1579" d="M63 688q0 144 57.5 275t154.5 226t231.5 151t282.5 56q171 0 321 -72l153 209l183 -145l-145 -198q101 -98 157.5 -227.5t56.5 -274.5q0 -144 -57.5 -275t-154.5 -226t-231.5 -151t-282.5 -56q-171 0 -320 73l-154 -210l-183 145l145 198q-101 97 -157.5 227.5 t-56.5 274.5zM450 688q0 -108 52 -195l396 542q-51 19 -109 19q-140 0 -239.5 -107.5t-99.5 -258.5zM680 341q54 -19 109 -19q140 0 239.5 107.5t99.5 258.5q0 107 -51 195z" />
<glyph unicode="&#xd9;" horiz-adv-x="1466" d="M135 538v838h386v-783q0 -84 18.5 -141.5t54 -87.5t78 -42t99.5 -12q93 0 172 45v1021h386v-1214q-124 -85 -267 -133.5t-287 -48.5q-115 0 -205 13.5t-174 50.5t-139.5 98t-88.5 161t-33 235zM361 1756h365l186 -260h-293z" />
<glyph unicode="&#xda;" horiz-adv-x="1466" d="M135 538v838h386v-783q0 -84 18.5 -141.5t54 -87.5t78 -42t99.5 -12q93 0 172 45v1021h386v-1214q-124 -85 -267 -133.5t-287 -48.5q-115 0 -205 13.5t-174 50.5t-139.5 98t-88.5 161t-33 235zM564 1491l186 261h365l-258 -261h-293z" />
<glyph unicode="&#xdb;" horiz-adv-x="1466" d="M135 538v838h386v-783q0 -84 18.5 -141.5t54 -87.5t78 -42t99.5 -12q93 0 172 45v1021h386v-1214q-124 -85 -267 -133.5t-287 -48.5q-115 0 -205 13.5t-174 50.5t-139.5 98t-88.5 161t-33 235zM369 1491l280 263h184l285 -263h-274l-101 102l-104 -102h-270z" />
<glyph unicode="&#xdc;" horiz-adv-x="1466" d="M135 538v838h386v-783q0 -84 18.5 -141.5t54 -87.5t78 -42t99.5 -12q93 0 172 45v1021h386v-1214q-124 -85 -267 -133.5t-287 -48.5q-115 0 -205 13.5t-174 50.5t-139.5 98t-88.5 161t-33 235zM357 1659q0 68 46.5 114t114.5 46q69 0 114.5 -46t45.5 -114t-45.5 -114 t-114.5 -46q-68 0 -114.5 46.5t-46.5 113.5zM787 1659q0 68 46 114t114 46q69 0 114.5 -46t45.5 -114t-45.5 -114t-114.5 -46q-67 0 -113.5 46.5t-46.5 113.5z" />
<glyph unicode="&#xdd;" horiz-adv-x="1273" d="M-24 1376h443l219 -349l218 349h443l-468 -750v-626h-386v626zM481 1485l186 261h365l-258 -261h-293z" />
<glyph unicode="&#xdf;" horiz-adv-x="1273" d="M102 0v1059q0 124 43.5 220.5t119.5 155t172.5 88.5t207.5 30q230 0 376.5 -113.5t146.5 -290.5q0 -62 -18 -115t-45.5 -87.5t-59 -66t-59 -53.5t-45.5 -47t-18 -49q0 -29 34.5 -62.5t83.5 -69.5t98 -78.5t83.5 -106t34.5 -136.5q0 -140 -95.5 -219t-274.5 -79 q-106 0 -192.5 32.5t-171.5 116.5l163 173q90 -72 152 -72q24 0 39.5 15.5t15.5 44.5q0 32 -34 65.5t-82 68t-96.5 75.5t-82.5 103t-34 134q0 45 13 83.5t34.5 66.5t47 53t51 48t47 46.5t34.5 53t13 62.5q0 55 -42.5 91.5t-116.5 36.5q-179 0 -179 -218v-1059h-364z" />
<glyph unicode="&#xe0;" horiz-adv-x="1050" d="M36 291q0 115 93.5 187.5t249.5 72.5q131 0 220 -59q0 31 -8 56t-20 41t-32 27t-36.5 16.5t-42 8.5t-40 3.5t-38.5 0.5q-94 0 -190 -35l-73 180q174 75 401 75q75 0 138.5 -11t121 -37.5t98 -67.5t64 -105.5t23.5 -147.5v-365q-108 -73 -237 -112t-244 -39 q-121 0 -220.5 33t-163.5 105t-64 173zM165 1296h340l174 -322h-273zM370 289q0 -39 30 -62.5t83 -23.5q60 0 116 29v76q-44 64 -126 64q-45 0 -74 -22t-29 -61z" />
<glyph unicode="&#xe1;" horiz-adv-x="1050" d="M36 291q0 115 93.5 187.5t249.5 72.5q131 0 220 -59q0 31 -8 56t-20 41t-32 27t-36.5 16.5t-42 8.5t-40 3.5t-38.5 0.5q-94 0 -190 -35l-73 180q174 75 401 75q75 0 138.5 -11t121 -37.5t98 -67.5t64 -105.5t23.5 -147.5v-365q-108 -73 -237 -112t-244 -39 q-121 0 -220.5 33t-163.5 105t-64 173zM370 289q0 -39 30 -62.5t83 -23.5q60 0 116 29v76q-44 64 -126 64q-45 0 -74 -22t-29 -61zM378 974l174 322h340l-240 -322h-274z" />
<glyph unicode="&#xe2;" horiz-adv-x="1050" d="M36 291q0 115 93.5 187.5t249.5 72.5q131 0 220 -59q0 31 -8 56t-20 41t-32 27t-36.5 16.5t-42 8.5t-40 3.5t-38.5 0.5q-94 0 -190 -35l-73 179q176 76 401 76q75 0 138.5 -11t121 -37.5t98 -67.5t64 -105.5t23.5 -147.5v-365q-108 -73 -237 -112t-244 -39 q-121 0 -220.5 33t-163.5 105t-64 173zM207 973l261 325h172l266 -325h-255l-94 127l-98 -127h-252zM370 289q0 -39 30 -62.5t83 -23.5q60 0 116 29v76q-44 64 -126 64q-45 0 -74 -22t-29 -61z" />
<glyph unicode="&#xe3;" horiz-adv-x="1050" d="M36 291q0 115 93.5 187.5t249.5 72.5q131 0 220 -59q0 31 -8 56t-20 41t-32 27t-36.5 16.5t-42 8.5t-40 3.5t-38.5 0.5q-94 0 -190 -35l-73 179q176 76 401 76q75 0 138.5 -11t121 -37.5t98 -67.5t64 -105.5t23.5 -147.5v-365q-108 -73 -237 -112t-244 -39 q-121 0 -220.5 33t-163.5 105t-64 173zM218 1003q7 143 66.5 222.5t135.5 79.5q47 0 82.5 -18t51.5 -39t33 -39t31 -18q38 0 52 108h179q-8 -144 -67.5 -222.5t-135.5 -78.5q-47 0 -82.5 18t-51.5 39t-33 39t-31 18q-38 0 -52 -109h-178zM370 289q0 -39 30 -62.5t83 -23.5 q60 0 116 29v76q-44 64 -126 64q-45 0 -74 -22t-29 -61z" />
<glyph unicode="&#xe4;" horiz-adv-x="1050" d="M36 291q0 115 93.5 187.5t249.5 72.5q131 0 220 -59q0 31 -8 56t-20 41t-32 27t-36.5 16.5t-42 8.5t-40 3.5t-38.5 0.5q-94 0 -190 -35l-73 179q176 76 401 76q75 0 138.5 -11t121 -37.5t98 -67.5t64 -105.5t23.5 -147.5v-365q-108 -73 -237 -112t-244 -39 q-121 0 -220.5 33t-163.5 105t-64 173zM168 1152q0 68 46.5 114t114.5 46q69 0 114 -45.5t45 -114.5q0 -68 -45 -114t-114 -46q-68 0 -114.5 46.5t-46.5 113.5zM370 289q0 -39 30 -62.5t83 -23.5q60 0 116 29v76q-44 64 -126 64q-45 0 -74 -22t-29 -61zM597 1152 q0 68 46.5 114t114.5 46q69 0 114 -45.5t45 -114.5q0 -68 -45 -114t-114 -46q-68 0 -114.5 46.5t-46.5 113.5z" />
<glyph unicode="&#xe5;" horiz-adv-x="1050" d="M36 291q0 115 93.5 187.5t249.5 72.5q131 0 220 -59q0 31 -8 56t-20 41t-32 27t-36.5 16.5t-42 8.5t-40 3.5t-38.5 0.5q-94 0 -190 -35l-73 179q176 76 401 76q75 0 138.5 -11t121 -37.5t98 -67.5t64 -105.5t23.5 -147.5v-365q-108 -73 -237 -112t-244 -39 q-121 0 -220.5 33t-163.5 105t-64 173zM324 1172q0 87 61.5 148t147.5 61t147.5 -61t61.5 -148t-61.5 -148t-147.5 -61t-147.5 61t-61.5 148zM370 289q0 -39 30 -62.5t83 -23.5q60 0 116 29v76q-44 64 -126 64q-45 0 -74 -22t-29 -61zM452 1172q0 -34 23.5 -58t57.5 -24 q35 0 59 24t24 58t-24.5 58t-58.5 24t-57.5 -24t-23.5 -58z" />
<glyph unicode="&#xe6;" horiz-adv-x="1614" d="M36 291q0 115 93.5 187.5t249.5 72.5q131 0 220 -59q0 31 -8 56t-20 41t-32 27t-36.5 16.5t-42 8.5t-40 3.5t-38.5 0.5q-94 0 -190 -35l-73 179q176 76 401 76q196 0 308 -75q119 75 276 75q139 0 245.5 -61t168.5 -180.5t63 -281.5h-617q6 -66 58 -104.5t123 -38.5 q118 0 215 86l165 -135q-186 -170 -403 -170q-166 0 -293 77q-173 -77 -345 -77q-121 0 -220.5 33t-163.5 105t-64 173zM370 289q0 -39 30 -62.5t83 -23.5q60 0 116 29v76q-44 64 -126 64q-45 0 -74 -22t-29 -61zM964 509h286q-11 62 -49 96t-97 34q-55 0 -92.5 -34.5 t-47.5 -95.5z" />
<glyph unicode="&#xe7;" horiz-adv-x="960" d="M43 423q0 120 66.5 222t180.5 161t249 59q214 0 387 -168l-203 -166q-41 41 -77.5 57t-85.5 16q-69 0 -120.5 -49.5t-51.5 -131.5t52 -132t120 -50q104 0 177 99l214 -161q-113 -132 -268 -178l-64 -101q60 -14 99.5 -50.5t39.5 -90.5q0 -89 -70 -131.5t-176 -42.5 q-101 0 -184 51l41 111q69 -36 129 -36q53 0 53 37q0 34 -51 49.5t-117 15.5l101 170q-187 19 -314 144.5t-127 295.5z" />
<glyph unicode="&#xe8;" horiz-adv-x="1034" d="M47 423q0 131 64.5 232.5t172.5 155.5t240 54q212 0 344.5 -140t132.5 -383h-616q6 -66 58 -104.5t123 -38.5q117 0 214 86l166 -135q-186 -170 -403 -170q-216 0 -356 122.5t-140 320.5zM210 1296h341l173 -322h-274zM385 509h286q-11 62 -49.5 96t-97.5 34 q-54 0 -91.5 -34.5t-47.5 -95.5z" />
<glyph unicode="&#xe9;" horiz-adv-x="1034" d="M47 423q0 131 64.5 232.5t172.5 155.5t240 54q212 0 344.5 -140t132.5 -383h-616q6 -66 58 -104.5t123 -38.5q117 0 214 86l166 -135q-186 -170 -403 -170q-216 0 -356 122.5t-140 320.5zM385 509h286q-11 62 -49.5 96t-97.5 34q-54 0 -91.5 -34.5t-47.5 -95.5zM391 974 l174 322h340l-240 -322h-274z" />
<glyph unicode="&#xea;" horiz-adv-x="1034" d="M47 423q0 131 64.5 232.5t172.5 155.5t240 54q212 0 344.5 -140t132.5 -383h-616q6 -66 58 -104.5t123 -38.5q117 0 214 86l166 -135q-186 -170 -403 -170q-216 0 -356 122.5t-140 320.5zM194 973l261 325h172l266 -325h-255l-95 127l-98 -127h-251zM385 509h286 q-11 62 -49.5 96t-97.5 34q-54 0 -91.5 -34.5t-47.5 -95.5z" />
<glyph unicode="&#xeb;" horiz-adv-x="1034" d="M47 423q0 131 64.5 232.5t172.5 155.5t240 54q212 0 344.5 -140t132.5 -383h-616q6 -66 58 -104.5t123 -38.5q117 0 214 86l166 -135q-186 -170 -403 -170q-216 0 -356 122.5t-140 320.5zM178 1152q0 68 46.5 114t114.5 46q69 0 114.5 -46t45.5 -114t-45.5 -114 t-114.5 -46q-68 0 -114.5 46.5t-46.5 113.5zM385 509h286q-11 62 -49.5 96t-97.5 34q-54 0 -91.5 -34.5t-47.5 -95.5zM607 1152q0 68 46.5 114t114.5 46q69 0 114.5 -46t45.5 -114t-45.5 -114t-114.5 -46q-68 0 -114.5 46.5t-46.5 113.5z" />
<glyph unicode="&#xec;" horiz-adv-x="551" d="M-65 1298h340l174 -322h-273zM96 0v845h364v-845h-364z" />
<glyph unicode="&#xed;" horiz-adv-x="551" d="M96 0v845h364v-845h-364zM105 976l174 322h340l-240 -322h-274z" />
<glyph unicode="&#xee;" horiz-adv-x="551" d="M-71 976l260 325h172l267 -325h-256l-94 127l-98 -127h-251zM96 0v845h364v-845h-364z" />
<glyph unicode="&#xef;" horiz-adv-x="551" d="M-96 1153q0 68 46.5 114t114.5 46q69 0 114 -45.5t45 -114.5q0 -68 -45 -114t-114 -46q-68 0 -114.5 46.5t-46.5 113.5zM96 0v845h364v-845h-364zM332 1153q0 68 46.5 114t114.5 46q69 0 114.5 -46t45.5 -114t-45.5 -114t-114.5 -46q-68 0 -114.5 46.5t-46.5 113.5z" />
<glyph unicode="&#xf1;" horiz-adv-x="1141" d="M102 0v845h363v-71q35 41 92.5 66t120.5 25q185 0 279.5 -106t94.5 -316v-443h-363v445q0 79 -27.5 119.5t-77.5 40.5q-119 0 -119 -159v-446h-363zM270 1006q8 144 67.5 222.5t135.5 78.5q38 0 68.5 -11.5t48.5 -28.5t31.5 -33.5t25.5 -28t24 -11.5q21 0 32.5 24.5 t19.5 82.5h180q-8 -144 -67.5 -222.5t-135.5 -78.5q-47 0 -82.5 18t-51.5 39t-33 39t-32 18q-38 0 -52 -108h-179z" />
<glyph unicode="&#xf2;" horiz-adv-x="1082" d="M47 423q0 120 66.5 222t180.5 161t249 59q134 0 248 -59t180.5 -161t66.5 -222t-66.5 -222.5t-180.5 -161.5t-248 -59q-135 0 -249 59t-180.5 161.5t-66.5 222.5zM206 1296h340l174 -322h-273zM391 423q0 -80 44.5 -131t107.5 -51t106.5 50.5t43.5 131.5t-43.5 131 t-106.5 50t-107.5 -50.5t-44.5 -130.5z" />
<glyph unicode="&#xf3;" horiz-adv-x="1082" d="M47 423q0 120 66.5 222t180.5 161t249 59q134 0 248 -59t180.5 -161t66.5 -222t-66.5 -222.5t-180.5 -161.5t-248 -59q-135 0 -249 59t-180.5 161.5t-66.5 222.5zM374 974l174 322h341l-241 -322h-274zM391 423q0 -80 44.5 -131t107.5 -51t106.5 50.5t43.5 131.5 t-43.5 131t-106.5 50t-107.5 -50.5t-44.5 -130.5z" />
<glyph unicode="&#xf4;" horiz-adv-x="1082" d="M47 423q0 120 66.5 222t180.5 161t249 59q134 0 248 -59t180.5 -161t66.5 -222t-66.5 -222.5t-180.5 -161.5t-248 -59q-135 0 -249 59t-180.5 161.5t-66.5 222.5zM192 973l261 325h173l266 -325h-255l-95 127l-98 -127h-252zM391 423q0 -80 44.5 -131t107.5 -51 t106.5 50.5t43.5 131.5t-43.5 131t-106.5 50t-107.5 -50.5t-44.5 -130.5z" />
<glyph unicode="&#xf5;" horiz-adv-x="1082" d="M47 423q0 120 66.5 222t180.5 161t249 59q134 0 248 -59t180.5 -161t66.5 -222t-66.5 -222.5t-180.5 -161.5t-248 -59q-135 0 -249 59t-180.5 161.5t-66.5 222.5zM226 1003q9 144 67.5 223t134.5 79q39 0 69.5 -11.5t48 -28.5t31 -34t26 -28.5t24.5 -11.5q38 0 52 108 h179q-8 -144 -67 -222.5t-135 -78.5q-47 0 -82.5 18t-52 39t-33.5 39t-31 18q-21 0 -32.5 -25.5t-19.5 -83.5h-179zM391 423q0 -80 44.5 -131t107.5 -51t106.5 50.5t43.5 131.5t-43.5 131t-106.5 50t-107.5 -50.5t-44.5 -130.5z" />
<glyph unicode="&#xf6;" horiz-adv-x="1082" d="M47 423q0 120 66.5 222t180.5 161t249 59q134 0 248 -59t180.5 -161t66.5 -222t-66.5 -222.5t-180.5 -161.5t-248 -59q-135 0 -249 59t-180.5 161.5t-66.5 222.5zM168 1152q0 68 46 114t114 46q69 0 114.5 -46t45.5 -114t-45.5 -114t-114.5 -46q-68 0 -114 46t-46 114z M391 423q0 -80 44.5 -131t107.5 -51t106.5 50.5t43.5 131.5t-43.5 131t-106.5 50t-107.5 -50.5t-44.5 -130.5zM597 1152q0 68 46.5 114t114.5 46q69 0 114 -45.5t45 -114.5q0 -68 -45 -114t-114 -46q-68 0 -114.5 46.5t-46.5 113.5z" />
<glyph unicode="&#xf7;" horiz-adv-x="1085" d="M55 443v270h977v-270h-977zM372 187q0 71 50 121t121 50t121 -50t50 -121t-50 -121t-121 -50t-121 50t-50 121zM372 969q0 71 50 121t121 50t121 -50t50 -121t-50 -121t-121 -50t-121 50t-50 121z" />
<glyph unicode="&#xf8;" horiz-adv-x="1082" d="M47 423q0 120 66.5 222t180.5 161t249 59q115 0 220 -46l103 136l101 -79l-94 -124q77 -62 121 -147.5t44 -181.5q0 -120 -66.5 -222.5t-180.5 -161.5t-248 -59q-116 0 -221 46l-104 -137l-100 81l94 123q-77 61 -121 147.5t-44 182.5zM391 423q0 -40 13 -76l188 248 q-24 9 -49 9q-63 0 -107.5 -50.5t-44.5 -130.5zM492 251q27 -10 51 -10q63 0 106.5 50.5t43.5 131.5q0 41 -12 76z" />
<glyph unicode="&#xf9;" horiz-adv-x="1129" d="M95 382v463h365v-428q0 -101 31.5 -138.5t87.5 -37.5q48 0 88 25v579h364v-714q-209 -151 -453 -151q-84 0 -150.5 9.5t-130.5 36.5t-107 71t-69 116t-26 169zM213 1298h340l174 -322h-274z" />
<glyph unicode="&#xfa;" horiz-adv-x="1129" d="M95 382v463h365v-428q0 -101 31.5 -138.5t87.5 -37.5q48 0 88 25v579h364v-714q-209 -151 -453 -151q-84 0 -150.5 9.5t-130.5 36.5t-107 71t-69 116t-26 169zM409 976l174 322h341l-241 -322h-274z" />
<glyph unicode="&#xfb;" horiz-adv-x="1129" d="M95 382v463h365v-428q0 -101 31.5 -138.5t87.5 -37.5q48 0 88 25v579h364v-714q-209 -151 -453 -151q-84 0 -150.5 9.5t-130.5 36.5t-107 71t-69 116t-26 169zM214 976l260 325h172l267 -325h-256l-94 127l-98 -127h-251z" />
<glyph unicode="&#xfc;" horiz-adv-x="1129" d="M95 382v463h365v-428q0 -101 31.5 -138.5t87.5 -37.5q48 0 88 25v579h364v-714q-209 -151 -453 -151q-84 0 -150.5 9.5t-130.5 36.5t-107 71t-69 116t-26 169zM189 1153q0 68 46.5 114t114.5 46q69 0 114 -45.5t45 -114.5q0 -68 -45 -114t-114 -46q-68 0 -114.5 46.5 t-46.5 113.5zM618 1153q0 68 46.5 114t114.5 46q69 0 114 -45.5t45 -114.5q0 -68 -45 -114t-114 -46q-68 0 -114.5 46.5t-46.5 113.5z" />
<glyph unicode="&#xfd;" d="M-23 845h374l184 -366l184 366h375l-658 -1311h-376l288 573zM413 976l173 322h341l-241 -322h-273z" />
<glyph unicode="&#xff;" d="M-23 845h374l184 -366l184 366h375l-658 -1311h-376l288 573zM184 1153q0 67 46 113.5t114 46.5q69 0 114.5 -46t45.5 -114t-45.5 -114t-114.5 -46q-68 0 -114 46t-46 114zM613 1153q0 67 46.5 113.5t113.5 46.5q69 0 114.5 -46t45.5 -114t-45.5 -114t-114.5 -46 q-68 0 -114 46t-46 114z" />
<glyph unicode="&#x152;" horiz-adv-x="2054" d="M63 688q0 144 57.5 275t154.5 226t231.5 151t282.5 56q180 0 339 -82v62h814v-331h-428v-180h359v-332h-359v-201h457v-332h-843v62q-159 -82 -339 -82q-148 0 -282.5 56t-231.5 151t-154.5 226t-57.5 275zM450 688q0 -151 99.5 -258.5t239.5 -107.5t239.5 107.5 t99.5 258.5t-99.5 258.5t-239.5 107.5t-239.5 -107.5t-99.5 -258.5z" />
<glyph unicode="&#x153;" horiz-adv-x="1679" d="M47 423q0 120 66.5 222t180.5 161t248 59q177 0 315 -101q131 101 313 101q139 0 246 -61t168.5 -180.5t62.5 -281.5h-617q6 -67 58 -105t124 -38q117 0 214 86l165 -135q-186 -170 -403 -170q-196 0 -330 102q-139 -102 -316 -102q-134 0 -248 59t-180.5 161.5 t-66.5 222.5zM391 423q0 -81 44 -131.5t107 -50.5t107 50.5t44 131.5q0 80 -44 130.5t-107 50.5t-107 -50.5t-44 -130.5zM1030 509h286q-11 62 -49 96t-97 34q-54 0 -92.5 -35t-47.5 -95z" />
<glyph unicode="&#x178;" horiz-adv-x="1273" d="M-24 1376h443l219 -350l218 350h443l-468 -750v-626h-386v626zM277 1653q0 68 46 114t114 46q69 0 114.5 -46t45.5 -114t-45.5 -114t-114.5 -46q-67 0 -113.5 46.5t-46.5 113.5zM705 1653q0 68 46.5 114t114.5 46q69 0 114.5 -46t45.5 -114t-45.5 -114t-114.5 -46 q-68 0 -114.5 46.5t-46.5 113.5z" />
<glyph unicode="&#x2c6;" horiz-adv-x="785" d="M45 1104l262 325h172l266 -325h-256l-94 127l-98 -127h-252z" />
<glyph unicode="&#x2dc;" horiz-adv-x="768" d="M79 1112q8 144 67 222.5t135 78.5q39 0 69.5 -11.5t48 -28.5t31 -34t26 -28.5t24.5 -11.5q38 0 52 108h179q-8 -144 -67.5 -222.5t-135.5 -78.5q-38 0 -68.5 11.5t-48.5 28t-31.5 33.5t-25.5 28.5t-24 11.5q-21 0 -32.5 -24.5t-19.5 -82.5h-179z" />
<glyph unicode="&#x2000;" horiz-adv-x="945" />
<glyph unicode="&#x2001;" horiz-adv-x="1891" />
<glyph unicode="&#x2002;" horiz-adv-x="945" />
<glyph unicode="&#x2003;" horiz-adv-x="1891" />
<glyph unicode="&#x2004;" horiz-adv-x="630" />
<glyph unicode="&#x2005;" horiz-adv-x="472" />
<glyph unicode="&#x2006;" horiz-adv-x="315" />
<glyph unicode="&#x2007;" horiz-adv-x="315" />
<glyph unicode="&#x2008;" horiz-adv-x="236" />
<glyph unicode="&#x2009;" horiz-adv-x="378" />
<glyph unicode="&#x200a;" horiz-adv-x="105" />
<glyph unicode="&#x2010;" horiz-adv-x="790" d="M117 388v269h562v-269h-562z" />
<glyph unicode="&#x2011;" horiz-adv-x="790" d="M117 388v269h562v-269h-562z" />
<glyph unicode="&#x2012;" horiz-adv-x="790" d="M117 388v269h562v-269h-562z" />
<glyph unicode="&#x2013;" horiz-adv-x="1216" d="M117 394v259h988v-259h-988z" />
<glyph unicode="&#x2014;" horiz-adv-x="2170" d="M117 394v259h1942v-259h-1942z" />
<glyph unicode="&#x2018;" horiz-adv-x="567" d="M44 936l262 598h254l-193 -598h-323z" />
<glyph unicode="&#x2019;" horiz-adv-x="564" d="M55 936l193 598h323l-262 -598h-254z" />
<glyph unicode="&#x201a;" horiz-adv-x="573" d="M12 -256l193 598h323l-262 -598h-254z" />
<glyph unicode="&#x201c;" horiz-adv-x="1009" d="M44 936l263 598h253l-193 -598h-323zM485 936l263 598h254l-193 -598h-324z" />
<glyph unicode="&#x201d;" horiz-adv-x="1006" d="M55 936l193 598h323l-262 -598h-254zM497 936l193 598h323l-262 -598h-254z" />
<glyph unicode="&#x201e;" horiz-adv-x="1015" d="M12 -256l193 598h323l-262 -598h-254zM454 -256l193 598h323l-262 -598h-254z" />
<glyph unicode="&#x2022;" horiz-adv-x="700" d="M78 661q0 114 80.5 194.5t194.5 80.5t195 -80.5t81 -194.5t-81 -195t-195 -81t-194.5 81t-80.5 195z" />
<glyph unicode="&#x2026;" horiz-adv-x="1855" d="M80 175q0 80 57 137t137 57q81 0 138 -57t57 -137t-57 -137.5t-138 -57.5q-79 0 -136.5 57.5t-57.5 137.5zM736 175q0 80 57 137t137 57q81 0 137.5 -57t56.5 -137t-56.5 -137.5t-137.5 -57.5q-79 0 -136.5 57.5t-57.5 137.5zM1391 175q0 80 57 137t137 57t137.5 -57 t57.5 -137t-57.5 -137.5t-137.5 -57.5q-79 0 -136.5 57.5t-57.5 137.5z" />
<glyph unicode="&#x202f;" horiz-adv-x="378" />
<glyph unicode="&#x2039;" horiz-adv-x="656" d="M14 440l294 415h305l-266 -415l266 -415h-305z" />
<glyph unicode="&#x203a;" horiz-adv-x="657" d="M51 25l267 415l-267 415h305l294 -415l-294 -415h-305z" />
<glyph unicode="&#x205f;" horiz-adv-x="472" />
<glyph unicode="&#x20ac;" horiz-adv-x="1397" d="M33 468l85 177h104q-3 18 -1 43l1 44h-189l85 176h136q67 215 242 351.5t395 136.5q256 0 475 -217l-254 -217q-54 51 -105.5 71.5t-115.5 20.5q-70 0 -130 -39t-101 -107h439l-86 -176h-409q-2 -30 -2 -44q0 -15 2 -43h370l-85 -177h-229q40 -67 100.5 -106.5 t130.5 -39.5q67 0 120.5 23t112.5 80l235 -235q-102 -100 -222 -155t-246 -55q-221 0 -395.5 136.5t-241.5 351.5h-221z" />
<glyph unicode="&#x2122;" horiz-adv-x="1853" d="M48 1203v173h665v-173h-234v-652h-196v652h-235zM827 551v825h253l196 -497l192 497h251v-825h-196v471h-2l-183 -471h-130l-184 470h-1v-470h-196z" />
<glyph unicode="&#x25fc;" horiz-adv-x="844" d="M0 0v845h845v-845h-845z" />
<glyph unicode="&#xfb01;" horiz-adv-x="1248" d="M100 -466v1501q0 242 153 380t403 138q287 0 520 -175v-300h-364v153q-66 28 -156 28q-92 0 -142.5 -74t-50.5 -188v-152h185v-306h-185v-1005h-363zM812 0v845h364v-845h-364z" />
<glyph unicode="&#xfb02;" horiz-adv-x="1284" d="M100 -466v1501q0 161 73 279.5t200 178.5t291 60q295 0 528 -175v-1378h-363v1231q-66 28 -165 28q-93 0 -147 -74.5t-54 -187.5v-152h185v-306h-185v-1005h-363z" />
<glyph unicode="&#xfb03;" horiz-adv-x="1966" d="M100 -466v1492q0 242 154.5 380t404.5 138q184 0 365 -87q142 96 350 96q287 0 520 -175v-300h-364v153q-66 28 -156 28q-92 0 -142.5 -74t-50.5 -188v-152h184v-306h-184v-1005h-363v1501q0 100 24 175q-67 39 -183 39q-92 0 -144 -74.5t-52 -187.5v-142h185v-306h-185 v-1005h-363zM1530 0v845h364v-845h-364z" />
<glyph unicode="&#xfb04;" horiz-adv-x="2001" d="M100 -466v1492q0 242 154.5 380t404.5 138q188 0 367 -88q144 97 356 97q295 0 528 -175v-1378h-363v1231q-66 28 -165 28q-90 0 -145.5 -72t-55.5 -180v-162h184v-306h-184v-1005h-363v1501q0 97 25 175q-67 39 -184 39q-92 0 -144 -74.5t-52 -187.5v-142h185v-306h-185 v-1005h-363z" />
</font>
</defs>
</svg>
