<?xml version="1.0" standalone="no"?>
<!DOCTYPE svg PUBLIC "-//W3C//DTD SVG 1.1//EN" "http://www.w3.org/Graphics/SVG/1.1/DTD/svg11.dtd" >
<svg xmlns="http://www.w3.org/2000/svg">
<metadata></metadata>
<defs>
<font id="simplo_w00_thinregular" horiz-adv-x="1169" >
<font-face units-per-em="2048" ascent="1558" descent="-490" />
<missing-glyph horiz-adv-x="645" />
<glyph horiz-adv-x="2048" />
<glyph horiz-adv-x="2048" />
<glyph unicode="&#xd;" horiz-adv-x="2048" />
<glyph unicode=" "  horiz-adv-x="645" />
<glyph unicode="&#x09;" horiz-adv-x="645" />
<glyph unicode="&#xa0;" horiz-adv-x="645" />
<glyph unicode="!" horiz-adv-x="491" d="M174 55q0 31 21.5 53t52.5 22t53 -22t22 -53t-21.5 -53t-53.5 -22q-31 0 -52.5 22t-21.5 53zM206 294v1082h85v-1082h-85z" />
<glyph unicode="&#x22;" horiz-adv-x="570" d="M127 1534h100l-17 -457h-66zM351 1534h100l-17 -457h-65z" />
<glyph unicode="#" horiz-adv-x="1075" d="M87 426v78h206l50 370h-205v79h215l57 423h82l-56 -423h296l57 423h83l-57 -423h180v-79h-190l-49 -370h184v-78h-195l-57 -426h-82l56 426h-296l-57 -426h-83l57 426h-196zM376 504h297l49 370h-297z" />
<glyph unicode="$" horiz-adv-x="889" d="M73 206l73 42q55 -93 131.5 -139t189.5 -46q107 0 184.5 68.5t77.5 174.5q0 76 -33.5 141t-86.5 113.5t-117.5 93.5t-129.5 91.5t-118 97t-86.5 121t-33.5 152.5q0 109 75.5 188.5t185.5 89.5v194h78v-195q147 -17 263 -153l-61 -49q-120 128 -237 128q-92 0 -156 -54 t-64 -158q0 -65 33.5 -124t87.5 -105t118.5 -91.5t129.5 -93t119 -99t87.5 -120.5t33.5 -148q0 -147 -87.5 -241.5t-236.5 -103.5v-193h-79v195q-233 21 -341 223z" />
<glyph unicode="%" horiz-adv-x="1534" d="M87 993q0 104 32.5 192.5t97.5 144.5t150 56t150 -56t98 -144.5t33 -192.5q0 -108 -30.5 -200.5t-96 -154.5t-154.5 -62t-154.5 62t-95.5 154.5t-30 200.5zM166 993q0 -59 11 -116.5t33.5 -110.5t63.5 -85.5t93 -32.5t93 32.5t63.5 85.5t34 110.5t11.5 116.5 q0 52 -11 105t-33.5 103.5t-63.5 82t-94 31.5t-93.5 -32t-63 -82t-33.5 -103.5t-11 -104.5zM312 -39l820 1455h89l-820 -1455h-89zM882 407q0 104 32.5 192.5t97.5 144.5t150 56q126 0 203 -116t77 -277q0 -108 -30 -200.5t-95.5 -154.5t-154.5 -62t-154.5 62t-95.5 154.5 t-30 200.5zM960 407q0 -59 11.5 -117t34 -110.5t63.5 -85.5t93 -33t93 33t63.5 85.5t33.5 110.5t11 117q0 52 -11 105t-33.5 103.5t-63 82t-93.5 31.5t-93.5 -32t-63.5 -82t-34 -103.5t-11 -104.5z" />
<glyph unicode="&#x26;" horiz-adv-x="1136" d="M88 361q0 114 69.5 205t261.5 235q-162 197 -162 331q0 114 74.5 189t190.5 75q110 0 187.5 -73t77.5 -186q0 -90 -62 -170t-193 -184l325 -430l145 183l56 -62l-148 -188l216 -286h-103l-171 227q-104 -126 -201 -186.5t-198 -60.5q-154 0 -259.5 108t-105.5 273z M172 363q0 -127 80.5 -214.5t195.5 -87.5q41 0 81 13t72.5 32t70 52t64 61t65.5 72l-333 442q-79 -57 -127 -96.5t-90 -85.5t-60.5 -91.5t-18.5 -96.5zM341 1132q0 -47 29.5 -109.5t111.5 -171.5q221 162 221 288q0 81 -55 129t-130 48q-79 0 -128 -52t-49 -132z" />
<glyph unicode="'" horiz-adv-x="346" d="M127 1534h100l-17 -457h-66z" />
<glyph unicode="(" horiz-adv-x="544" d="M130 547q0 479 294 912h86q-288 -454 -288 -912q0 -460 287 -905h-85q-134 180 -214 415t-80 490z" />
<glyph unicode=")" horiz-adv-x="544" d="M34 -358q287 445 287 905q0 459 -287 912h86q294 -433 294 -912q0 -255 -80 -489.5t-214 -415.5h-86z" />
<glyph unicode="*" horiz-adv-x="774" d="M96 989l220 128l-219 125l34 62l223 -128v255h71v-252l221 125l34 -62l-220 -125l221 -128l-36 -62l-220 126v-251h-71v253l-223 -128z" />
<glyph unicode="+" horiz-adv-x="1114" d="M68 538v82h445v447h87v-447h447v-82h-447v-450h-87v450h-445z" />
<glyph unicode="," horiz-adv-x="392" d="M65 -311l111 441h113l-153 -441h-71z" />
<glyph unicode="-" horiz-adv-x="744" d="M112 484v79h522v-79h-522z" />
<glyph unicode="." horiz-adv-x="419" d="M138 55q0 31 21.5 53t52.5 22t53 -22t22 -53t-21.5 -53t-53.5 -22q-31 0 -52.5 22t-21.5 53z" />
<glyph unicode="/" horiz-adv-x="710" d="M21 -159l558 1583h91l-559 -1583h-90z" />
<glyph unicode="0" horiz-adv-x="1234" d="M139 709q0 136 33 260t93 219t151.5 151.5t200.5 56.5t200.5 -56.5t151.5 -151.5t93.5 -219t33.5 -260q0 -140 -31 -269t-89 -232.5t-151.5 -165.5t-207.5 -62t-207 62t-151 165.5t-89 232.5t-31 269zM226 709q0 -87 13 -174t43.5 -173.5t74.5 -152.5t111 -107t149 -41 t149 41t111 107t74.5 152.5t43.5 173.5t13 174q0 76 -12.5 155t-42 161t-73 146t-112 104.5t-151.5 40.5t-151 -40.5t-111.5 -104.5t-73.5 -146t-42.5 -161.5t-12.5 -154.5z" />
<glyph unicode="1" horiz-adv-x="603" d="M76 1297l48 79h251v-1376h-87v1297h-212z" />
<glyph unicode="2" horiz-adv-x="962" d="M70 1062q29 139 139 236.5t254 97.5q119 0 211.5 -55.5t140.5 -144.5t48 -194q0 -180 -139 -351l-459 -572h598v-79h-770l553 687q130 161 130 313q0 134 -91.5 225t-225.5 91q-113 0 -189.5 -68.5t-117.5 -185.5h-82z" />
<glyph unicode="3" horiz-adv-x="1049" d="M88 292h83q33 -105 127 -168t200 -63q142 0 237 87t95 222q0 121 -77 207t-194 106v73q102 18 166.5 91t64.5 181q0 119 -86.5 204t-205.5 85q-100 0 -173.5 -59t-108.5 -153h-82q29 122 134 206.5t230 84.5q167 0 271.5 -107t104.5 -251q0 -109 -42.5 -183.5 t-139.5 -131.5q226 -111 226 -353q0 -75 -29 -144.5t-81 -124.5t-133 -88t-177 -33q-144 0 -262.5 88.5t-147.5 223.5z" />
<glyph unicode="4" horiz-adv-x="1018" d="M24 275l753 1141v-1061h166v-80h-166v-275h-87v275h-666zM177 355h513v777z" />
<glyph unicode="5" horiz-adv-x="995" d="M22 186l66 47q59 -82 143 -127t176 -45q166 0 279.5 114t113.5 279q0 166 -114 280.5t-279 114.5q-121 0 -220 -48l164 575h516v-79h-449l-108 -381q54 13 97 13q206 0 343.5 -134.5t137.5 -340.5q0 -205 -136.5 -339.5t-344.5 -134.5q-114 0 -216 54t-169 152z" />
<glyph unicode="6" horiz-adv-x="1124" d="M106 454q0 164 113 312l466 610h106l-355 -465q59 17 129 17q93 0 178 -37.5t146.5 -101t98 -151.5t36.5 -184t-36.5 -184t-98 -151.5t-146.5 -101t-178 -37.5t-178 37.5t-146.5 101t-98 151.5t-36.5 184zM194 454q0 -101 47 -191.5t133.5 -146.5t190.5 -56q103 0 189 55 t134.5 145.5t48.5 193.5q0 157 -107 276t-265 119q-157 0 -264 -117.5t-107 -277.5z" />
<glyph unicode="7" horiz-adv-x="1066" d="M75 1297v79h978l-823 -1376h-98l776 1297h-833z" />
<glyph unicode="8" horiz-adv-x="1080" d="M131 370q0 101 60 199t179 154q-102 55 -149.5 141t-47.5 174q0 151 105.5 254.5t262.5 103.5q159 0 263.5 -102.5t104.5 -255.5q0 -86 -47.5 -173t-148.5 -142q81 -38 136.5 -99.5t78.5 -125t23 -128.5q0 -162 -116 -276t-294 -114q-179 0 -294.5 113t-115.5 277z M219 370q0 -129 94 -219t228 -90t228.5 90t94.5 219q0 130 -93.5 220t-229.5 90q-135 0 -228.5 -90t-93.5 -220zM256 1042q0 -118 83.5 -200.5t201.5 -82.5t202 83t84 200q0 115 -84.5 196.5t-201.5 81.5t-201 -81.5t-84 -196.5z" />
<glyph unicode="9" horiz-adv-x="1120" d="M101 922q0 128 61.5 237.5t167 173t229.5 63.5q93 0 178 -37.5t146.5 -101t98 -151.5t36.5 -184q0 -164 -112 -311l-467 -611h-106l356 465q-59 -17 -130 -17q-124 0 -229.5 63.5t-167 173t-61.5 237.5zM187 922q0 -157 107 -275.5t265 -118.5q104 0 190.5 55t134 145 t47.5 194q0 157 -107.5 275.5t-264.5 118.5q-103 0 -189 -55t-134.5 -145.5t-48.5 -193.5z" />
<glyph unicode=":" horiz-adv-x="409" d="M134 55q0 31 22 53t53 22t52.5 -22t21.5 -53t-21.5 -53t-52.5 -22t-53 22t-22 53zM134 790q0 32 22 53.5t53 21.5t52.5 -22t21.5 -53t-21.5 -52.5t-52.5 -21.5t-53 21.5t-22 52.5z" />
<glyph unicode=";" horiz-adv-x="404" d="M52 -311l112 441h112l-153 -441h-71zM148 790q0 32 22 53.5t53 21.5t52.5 -22t21.5 -53t-21.5 -52.5t-52.5 -21.5t-53 21.5t-22 52.5z" />
<glyph unicode="&#x3c;" horiz-adv-x="1122" d="M63 533v88l940 472v-95l-853 -420l853 -421v-95z" />
<glyph unicode="=" horiz-adv-x="1262" d="M143 334v81h978v-81h-978zM143 741v81h978v-81h-978z" />
<glyph unicode="&#x3e;" horiz-adv-x="1120" d="M120 62v95l853 421l-853 420v95l939 -472v-88z" />
<glyph unicode="?" horiz-adv-x="883" d="M45 1038q5 145 117 251.5t263 106.5q113 0 203.5 -54.5t138.5 -143t48 -190.5q0 -62 -19.5 -114t-51 -88.5t-70 -69.5t-76.5 -67.5t-69.5 -73t-51 -94t-19.5 -122.5v-85h-84v120q0 64 19.5 119.5t51 95t69 75t75.5 68.5t69.5 67t51 78.5t19.5 95.5q0 123 -85.5 213 t-218.5 90q-127 0 -206.5 -84.5t-92.5 -193.5h-81zM342 55q0 31 21.5 53t52.5 22t53 -22t22 -53t-21.5 -53t-53.5 -22q-31 0 -52.5 22t-21.5 53z" />
<glyph unicode="@" horiz-adv-x="1712" d="M120 453q0 198 91.5 354t246 240t343.5 84q194 0 300 -102.5t106 -259.5v-496q-150 -102 -343 -102q-140 0 -234 75t-94 204q0 122 85 193.5t221 71.5q77 0 152.5 -33.5t128.5 -99.5v144q0 324 -322 324q-126 0 -235.5 -43t-189 -119.5t-125.5 -189t-46 -245.5 q0 -179 84.5 -329.5t236.5 -239.5t338 -89q187 0 339 88.5t236 239t84 330.5q0 113 -29 203l77 33q37 -106 37 -236q0 -202 -98 -371.5t-269 -268t-377 -98.5q-155 0 -293 58t-237 157t-156.5 235.5t-57.5 287.5zM622 449q0 -94 70.5 -146t183.5 -52q124 0 247 69v154 q-49 75 -122.5 118t-164.5 43q-90 0 -152 -51t-62 -135z" />
<glyph unicode="A" d="M4 0l606 1416l554 -1416h-91l-109 280h-748l-120 -280h-92zM250 359h683l-327 836z" />
<glyph unicode="B" horiz-adv-x="1100" d="M209 0v1376h294q175 0 288 -91t113 -248q0 -30 -2 -52t-11 -58t-26 -65.5t-49.5 -64t-78.5 -62.5q246 -110 246 -364q0 -169 -125 -270t-316 -101h-333zM296 80h246q69 0 130 17t112 51.5t81 94t30 137.5q0 75 -29 134t-78 94.5t-108.5 53.5t-125.5 18h-258v-600z M296 760h220q57 0 109.5 15.5t96 46.5t69.5 84.5t26 121.5q0 71 -27 124.5t-73 84t-99.5 45.5t-114.5 15h-207v-537z" />
<glyph unicode="C" horiz-adv-x="1423" d="M119 688q0 192 96 355t260.5 258t357.5 95q142 0 274 -53t231 -148l-63 -52q-88 81 -203 127t-239 46q-171 0 -315.5 -84.5t-228 -229t-83.5 -314.5q0 -127 49.5 -243t133 -200t200 -134t244.5 -50t244 47.5t205 132.5l58 -57q-99 -97 -230.5 -150.5t-276.5 -53.5 t-277 56t-228 151t-152.5 226t-56.5 275z" />
<glyph unicode="D" horiz-adv-x="1372" d="M209 0v1376h252q169 0 314 -48t249.5 -135.5t164 -217.5t59.5 -287q0 -142 -50.5 -267.5t-141 -219t-224.5 -147.5t-292 -54h-331zM295 80h249q177 0 318.5 81t219.5 219.5t78 307.5q0 143 -54 259t-148 192t-220 117t-272 41h-171v-1217z" />
<glyph unicode="E" horiz-adv-x="927" d="M209 0v1376h617v-79h-530v-517h452v-79h-452v-621h564v-80h-651z" />
<glyph unicode="F" horiz-adv-x="867" d="M209 0v1376h617v-79h-530v-517h452v-79h-452v-701h-87z" />
<glyph unicode="G" horiz-adv-x="1561" d="M112 688q0 144 56 275t151 226t226 151t275 56q165 0 311.5 -71t247.5 -196l-63 -52q-90 111 -219.5 175t-276.5 64q-169 0 -312 -84.5t-225.5 -229t-82.5 -314.5q0 -128 49 -244t131.5 -200t197.5 -133.5t242 -49.5q133 0 246.5 45.5t199 145t113.5 241.5h-497v80h597 q-19 -258 -202.5 -425.5t-456.5 -167.5q-144 0 -275 56t-226 151t-151 226t-56 275z" />
<glyph unicode="H" horiz-adv-x="1369" d="M209 0v1376h86v-596h777v596h87v-1376h-87v701h-777v-701h-86z" />
<glyph unicode="I" horiz-adv-x="500" d="M209 0v1376h87v-1376h-87z" />
<glyph unicode="J" horiz-adv-x="748" d="M16 18l35 75q64 -32 129 -32q284 0 284 389v926h87v-964q0 -117 -31 -203.5t-84.5 -135t-117 -71t-138.5 -22.5q-90 0 -164 38z" />
<glyph unicode="K" horiz-adv-x="1104" d="M209 0v1376h86v-609l639 609h122l-677 -645l728 -731h-121l-691 693v-693h-86z" />
<glyph unicode="L" horiz-adv-x="763" d="M209 0v1376h86v-1296h452v-80h-538z" />
<glyph unicode="M" horiz-adv-x="1575" d="M56 0l302 1416l428 -1204l428 1204l302 -1416h-86l-236 1108l-408 -1147l-407 1148l-236 -1109h-87z" />
<glyph unicode="N" horiz-adv-x="1601" d="M209 0v1416l1092 -1231v1191h87v-1415l-1093 1231v-1192h-86z" />
<glyph unicode="O" horiz-adv-x="1655" d="M120 688q0 144 56 275t150.5 226t225 151t274.5 56t274.5 -56t225 -151t150.5 -226t56 -275t-56 -275t-150.5 -226t-225 -151t-274.5 -56t-274.5 56t-225 151t-150.5 226t-56 275zM207 688q0 -170 83 -314.5t225.5 -228.5t310.5 -84t310.5 84t225.5 228.5t83 314.5 q0 127 -49 243t-131.5 200.5t-197.5 134.5t-241 50t-241 -50t-197.5 -134.5t-131.5 -200.5t-49 -243z" />
<glyph unicode="P" horiz-adv-x="964" d="M209 0v1376h313q170 0 281.5 -103t111.5 -277q0 -173 -110.5 -276.5t-278.5 -103.5h-230v-616h-87zM296 696h210q136 0 229 75t93 225q0 78 -27 137.5t-73.5 94.5t-103.5 52t-122 17h-206v-601z" />
<glyph unicode="Q" horiz-adv-x="1685" d="M124 688q0 144 56 275t150.5 226t225 151t274.5 56t274.5 -56t225 -151t150.5 -226t56 -275q0 -165 -71.5 -309t-195.5 -244q141 -75 267 -75v-80q-166 0 -341 103q-169 -103 -365 -103q-144 0 -274.5 56t-225 151t-150.5 226t-56 275zM211 688q0 -170 83 -314.5 t225.5 -228.5t310.5 -84q153 0 286 71q-59 37 -86 53.5t-78 41.5t-98 35t-99 10v79q34 0 68.5 -5t59.5 -9.5t60 -19t51.5 -20.5t54 -28t46.5 -27t51 -31.5t47 -29.5q118 88 186.5 220.5t68.5 286.5q0 170 -82.5 314.5t-225 229t-310.5 84.5q-126 0 -241 -50t-197.5 -134.5 t-131.5 -200.5t-49 -243z" />
<glyph unicode="R" horiz-adv-x="1024" d="M209 0v1376h313q172 0 282.5 -96.5t110.5 -261.5q0 -121 -65.5 -213.5t-194.5 -134.5l251 -670h-95l-242 658h-274v-658h-86zM295 737h227q59 0 112 16t97 48.5t70 88t26 128.5t-26 128.5t-70 87.5t-97 47.5t-112 15.5h-227v-560z" />
<glyph unicode="S" horiz-adv-x="913" d="M88 206l72 42q55 -93 132 -139t190 -46q107 0 184.5 68.5t77.5 174.5q0 76 -33.5 141t-87 113.5t-118 93.5t-129 91.5t-118 97t-87 121t-33.5 152.5q0 118 85 199t206 81q178 0 312 -156l-61 -49q-120 128 -237 128q-92 0 -156 -54t-64 -158q0 -65 33.5 -124t87.5 -105 t118.5 -91.5t129.5 -93t119 -99t87.5 -120.5t33.5 -148q0 -154 -96 -250t-257 -96q-270 0 -391 226z" />
<glyph unicode="T" horiz-adv-x="805" d="M17 1297v79h773v-79h-343v-1297h-86v1297h-344z" />
<glyph unicode="U" horiz-adv-x="1369" d="M198 503v873h87v-845q0 -96 16.5 -172t40 -124.5t64.5 -83.5t74.5 -52t86.5 -26t84 -10.5t82 -1.5q183 0 349 109v1206h86v-1257q-95 -65 -209 -102t-226 -37q-82 0 -147 9t-127.5 30t-108.5 60t-81 95.5t-53 139.5t-18 189z" />
<glyph unicode="V" horiz-adv-x="1126" d="M7 1376h91l477 -1185l457 1185h91l-547 -1415z" />
<glyph unicode="W" horiz-adv-x="2008" d="M27 1376h91l463 -1176l432 1216l431 -1213l445 1173h90l-537 -1415l-429 1203l-428 -1203z" />
<glyph unicode="X" horiz-adv-x="967" d="M-1 0l437 727l-389 649h97l341 -566l340 566h100l-391 -649l437 -727h-99l-387 645l-387 -645h-99z" />
<glyph unicode="Y" horiz-adv-x="943" d="M-2 1376h98l378 -626l376 626h99l-432 -721v-655h-86v655z" />
<glyph unicode="Z" horiz-adv-x="898" d="M35 0l665 1297h-627v79h760l-665 -1296h687v-80h-820z" />
<glyph unicode="[" horiz-adv-x="538" d="M182 -344v1789h321v-80h-234v-1629h234v-80h-321z" />
<glyph unicode="\" horiz-adv-x="714" d="M45 1424h90l559 -1583h-91z" />
<glyph unicode="]" horiz-adv-x="538" d="M36 -264h234v1629h-234v80h320v-1789h-320v80z" />
<glyph unicode="^" horiz-adv-x="923" d="M76 661l327 715h121l326 -715h-86l-301 645l-301 -645h-86z" />
<glyph unicode="_" horiz-adv-x="1075" d="M18 -179h1039v-102h-1039v102z" />
<glyph unicode="`" horiz-adv-x="396" d="M28 1402h121l172 -271h-75z" />
<glyph unicode="a" horiz-adv-x="960" d="M90 276q0 129 90 203.5t237 74.5q85 0 166 -32.5t140 -104.5v102q0 69 -15 119t-38.5 78t-61.5 44t-74 20.5t-86 4.5q-90 0 -218 -51l-30 72q132 59 273 59q334 0 334 -322v-461q-157 -102 -368 -102q-149 0 -249 80t-100 216zM176 274q0 -99 79.5 -156t197.5 -57 q139 0 270 70v172q-107 170 -313 170q-99 0 -166.5 -54t-67.5 -145z" />
<glyph unicode="b" horiz-adv-x="1083" d="M163 82v1452h84v-783q153 114 305 114q131 0 228.5 -58.5t146 -155.5t48.5 -217q0 -207 -116.5 -330.5t-338.5 -123.5q-203 0 -357 102zM247 131q129 -70 270 -70q175 0 274 97.5t99 273.5q0 154 -96 253.5t-243 99.5q-172 0 -304 -139v-515z" />
<glyph unicode="c" horiz-adv-x="903" d="M105 423q0 184 127.5 313t307.5 129q153 0 274 -99l-61 -51q-102 70 -213 70q-144 0 -247 -106.5t-103 -255.5t103 -255.5t247 -106.5q138 0 245 99l63 -49q-128 -131 -308 -131t-307.5 129.5t-127.5 313.5z" />
<glyph unicode="d" horiz-adv-x="1083" d="M109 434q0 120 48.5 217t146 155.5t228.5 58.5q152 0 304 -114v783h84v-1452q-155 -102 -357 -102q-222 0 -338 123.5t-116 330.5zM193 432q0 -176 99 -273.5t274 -97.5q141 0 270 70v515q-132 139 -304 139q-147 0 -243 -99.5t-96 -253.5z" />
<glyph unicode="e" horiz-adv-x="985" d="M108 423q0 194 113.5 318t281.5 124q163 0 269.5 -119t123.5 -318h-698q0 -166 91 -266.5t236 -100.5q81 0 140 23.5t118 76.5l61 -52q-139 -129 -319 -129q-182 0 -299.5 124t-117.5 319zM202 507h599q-34 137 -112.5 207.5t-185.5 70.5q-110 0 -194.5 -72t-106.5 -206z " />
<glyph unicode="f" horiz-adv-x="465" d="M151 -466v1711q0 145 66.5 225.5t192.5 82.5v-80q-90 -1 -133 -59t-43 -175v-394h176v-79h-176v-1232h-83z" />
<glyph unicode="g" horiz-adv-x="1085" d="M111 411q0 207 116 330.5t338 123.5q203 0 357 -101v-829q0 -212 -102.5 -316.5t-292.5 -104.5q-166 0 -313 82l31 73q61 -32 142 -53.5t145 -21.5q155 0 231 93t76 254v153q-152 -114 -304 -114q-131 0 -228.5 58.5t-146.5 155.5t-49 217zM196 414q0 -154 96 -253.5 t243 -99.5q172 0 304 139v514q-128 71 -271 71q-175 0 -273.5 -98t-98.5 -273z" />
<glyph unicode="h" horiz-adv-x="1064" d="M164 0v1534h84v-834h1q56 79 143 122t195 43q152 0 238 -94t86 -285v-486h-84v425q0 195 -65.5 277t-208.5 82q-124 0 -214.5 -93.5t-90.5 -260.5v-430h-84z" />
<glyph unicode="i" horiz-adv-x="391" d="M149 1174v90q0 11 6 17.5t16 6.5h55q9 0 15.5 -7t6.5 -17v-90q0 -10 -6.5 -17t-15.5 -7h-55q-9 0 -15.5 7t-6.5 17zM157 0v845h83v-845h-83z" />
<glyph unicode="j" horiz-adv-x="387" d="M147 1174v91q0 10 6.5 16.5t16.5 6.5h54q9 0 15.5 -6.5t6.5 -16.5v-91q0 -10 -6.5 -17t-15.5 -7h-54q-9 0 -16 7t-7 17zM155 -466v1311h83v-1311h-83z" />
<glyph unicode="k" horiz-adv-x="773" d="M162 0v1534h83v-1053l384 364h119l-419 -397l444 -448h-119l-409 412v-412h-83z" />
<glyph unicode="l" horiz-adv-x="406" d="M165 0v1534h84v-1534h-84z" />
<glyph unicode="m" horiz-adv-x="1589" d="M164 0v845h84v-133h1q107 153 297 153q205 0 269 -193q114 193 324 193q138 0 216 -94t78 -285v-486h-84v425q0 195 -57.5 277t-182.5 82q-109 0 -188.5 -93.5t-79.5 -260.5v-430h-84v425q0 195 -58 277t-183 82q-109 0 -188.5 -93.5t-79.5 -260.5v-430h-84z" />
<glyph unicode="n" horiz-adv-x="1063" d="M164 0v845h84v-145h1q56 79 143 122t195 43q152 0 238 -94t86 -285v-486h-84v425q0 195 -65.5 277t-208.5 82q-124 0 -214.5 -93.5t-90.5 -260.5v-430h-84z" />
<glyph unicode="o" horiz-adv-x="1078" d="M105 423q0 184 127 313t307 129t308 -129.5t128 -312.5q0 -184 -128 -313.5t-308 -129.5t-307 129.5t-127 313.5zM190 423q0 -149 102.5 -255.5t246.5 -106.5t247.5 106.5t103.5 255.5t-103.5 255.5t-247.5 106.5t-246.5 -106.5t-102.5 -255.5z" />
<glyph unicode="p" horiz-adv-x="1082" d="M163 -466v1230q152 101 357 101q222 0 338.5 -123.5t116.5 -330.5q0 -120 -48.5 -217t-146 -155.5t-228.5 -58.5q-156 0 -305 114v-560h-84zM247 200q132 -139 304 -139q147 0 243 99.5t96 253.5q0 175 -99 273t-274 98q-142 0 -270 -71v-514z" />
<glyph unicode="q" horiz-adv-x="1082" d="M108 411q0 207 116 330.5t338 123.5q203 0 357 -101v-1230h-83v560q-152 -114 -304 -114q-131 0 -228.5 58.5t-146.5 155.5t-49 217zM193 414q0 -154 96 -253.5t243 -99.5q172 0 304 139v514q-128 71 -270 71q-175 0 -274 -98t-99 -273z" />
<glyph unicode="r" horiz-adv-x="646" d="M164 0v845h83v-138q119 158 271 158q65 0 113 -31l-42 -79q-51 30 -102 30q-98 0 -169 -96.5t-71 -252.5v-436h-83z" />
<glyph unicode="s" horiz-adv-x="691" d="M60 94l56 61q35 -29 61.5 -46.5t72 -33t95.5 -15.5q89 0 133 42t44 119q0 54 -40.5 99t-98 78t-114.5 69t-97.5 90t-40.5 123q0 86 59 135.5t147 49.5q107 0 185 -70l-50 -61q-73 53 -131 53q-57 0 -91 -30t-34 -91q0 -46 40.5 -85.5t98 -72.5t115 -70.5t98 -96 t40.5 -131.5q0 -110 -68 -170t-205 -60q-156 0 -275 114z" />
<glyph unicode="t" horiz-adv-x="463" d="M152 0v1156h83v-311h177v-79h-177v-766h-83z" />
<glyph unicode="u" horiz-adv-x="1042" d="M156 374v471h84v-431q0 -86 16.5 -150t43 -102t66.5 -61.5t81 -31.5t93 -8q125 0 254 70v714h84v-763q-155 -102 -343 -102q-61 0 -112.5 9.5t-102.5 36t-85.5 69t-56.5 114t-22 165.5z" />
<glyph unicode="v" horiz-adv-x="871" d="M29 845h90l320 -691l321 691h89l-410 -884z" />
<glyph unicode="w" horiz-adv-x="1430" d="M34 845h88l295 -678l298 718l298 -718l296 678h88l-385 -884l-297 712l-296 -712z" />
<glyph unicode="x" horiz-adv-x="865" d="M25 0l353 459l-305 386h107l251 -317l244 317h107l-297 -385l362 -460h-107l-308 391l-301 -391h-106z" />
<glyph unicode="y" horiz-adv-x="897" d="M27 845h94l328 -655l328 655h94l-657 -1311h-94l281 562z" />
<glyph unicode="z" horiz-adv-x="849" d="M41 0l562 766h-499v79h659l-563 -766h596v-79h-755z" />
<glyph unicode="{" horiz-adv-x="561" d="M71 510v84q85 5 128.5 59.5t43.5 136.5v414q0 64 20 112.5t53 75.5t69.5 40t74.5 13h76v-80h-68q-72 0 -105.5 -48t-33.5 -128v-402q0 -103 -41.5 -161t-97.5 -74v-1q55 -17 97 -73.5t42 -159.5v-405q0 -80 34.5 -128.5t104.5 -48.5h68v-80h-86q-33 0 -67.5 14 t-66.5 41.5t-52.5 77.5t-20.5 115v409q0 83 -43.5 137t-128.5 60z" />
<glyph unicode="|" horiz-adv-x="445" d="M182 -466v2000h87v-2000h-87z" />
<glyph unicode="}" horiz-adv-x="561" d="M25 -264h68q70 0 105 48.5t35 128.5v405q0 103 41.5 160t97.5 73v1q-55 16 -97 74t-42 161v402q0 81 -33.5 128.5t-106.5 47.5h-68v80h76q38 0 75 -13t70 -40t53.5 -75.5t20.5 -112.5v-414q0 -82 43.5 -136.5t127.5 -59.5v-84q-85 -6 -128 -60t-43 -137v-409 q0 -65 -20.5 -115t-53 -77.5t-67 -41.5t-67.5 -14h-87v80z" />
<glyph unicode="~" horiz-adv-x="1240" d="M141 501q12 124 77.5 191.5t158.5 67.5q59 0 116 -19.5t102.5 -47.5t88.5 -56t89 -47.5t88 -19.5q67 0 104.5 43.5t55.5 137.5h87q-12 -124 -77 -191.5t-158 -67.5q-59 0 -116.5 19.5t-103 47t-88 55.5t-89 47.5t-88.5 19.5q-67 0 -104 -43t-55 -137h-88z" />
<glyph unicode="&#xa1;" horiz-adv-x="456" d="M157 981q0 31 21.5 53t52.5 22t53 -22t22 -53t-22 -53t-53 -22t-52.5 22t-21.5 53zM189 -340v1082h85v-1082h-85z" />
<glyph unicode="&#xa2;" horiz-adv-x="889" d="M90 688q0 169 110 294.5t273 145.5v157h76v-155q139 -9 249 -99l-61 -51q-102 70 -212 70q-144 0 -247 -106.5t-103 -255.5t103 -255.5t247 -106.5q137 0 245 100l63 -49q-117 -120 -284 -131v-155h-76v158q-163 20 -273 145t-110 294z" />
<glyph unicode="&#xa3;" horiz-adv-x="1066" d="M96 0v53q120 119 173.5 236.5t53.5 218.5q0 49 -10 90h-175v80h153q-8 24 -27 76t-29 82.5t-19 77t-9 87.5q0 105 47.5 194.5t140 145t211.5 55.5q149 0 262 -97.5t142 -236.5h-87q-29 104 -115.5 179t-196.5 75q-137 0 -227 -90.5t-90 -228.5q0 -59 13 -110t39 -114.5 t36 -94.5h221v-80h-202q9 -46 9 -103q0 -71 -40.5 -186.5t-136.5 -229.5h744v-79h-881z" />
<glyph unicode="&#xa4;" horiz-adv-x="1197" d="M146 271l140 138q-91 110 -91 251q0 145 91 255l-140 139l57 59l141 -142q113 91 255 91q145 0 255 -88l139 139l59 -59l-140 -136q95 -112 95 -258q0 -142 -95 -253l141 -137l-60 -59l-139 141q-114 -90 -255 -90q-148 0 -257 90l-139 -141zM280 661q0 -128 92 -221 t225 -93q129 0 225.5 91t96.5 223q0 130 -93.5 222.5t-228.5 92.5q-130 0 -223.5 -91.5t-93.5 -223.5z" />
<glyph unicode="&#xa5;" horiz-adv-x="943" d="M45 1376h94l336 -626l334 626h93l-380 -715h234v-79h-238v-148h238v-79h-238v-355h-86v355h-241v79h241v148h-241v79h237z" />
<glyph unicode="&#xa6;" horiz-adv-x="418" d="M170 340h86v-691h-86v691zM170 728v691h86v-691h-86z" />
<glyph unicode="&#xa7;" horiz-adv-x="986" d="M106 590q0 124 67 223t192 165q-87 66 -132.5 137t-45.5 159q0 113 92 196t216 83q126 0 211.5 -83t95.5 -207h-84q-8 88 -67 149t-150 61q-105 0 -167 -61t-62 -153q0 -55 29 -103t75.5 -81t95.5 -55t99 -34q134 -34 223.5 -143.5t89.5 -252.5q0 -124 -68 -223.5 t-192 -163.5q89 -68 133 -137.5t44 -158.5q0 -113 -91 -196t-215 -83q-127 0 -212.5 82.5t-95.5 207.5h83q8 -87 67 -148.5t151 -61.5q105 0 167 61.5t62 152.5q0 45 -20 86t-51.5 71t-72.5 54.5t-80 39t-77 23.5q-136 31 -223 140t-87 254zM190 590q0 -133 87 -227t218 -94 q129 0 216.5 95t87.5 226q0 132 -87.5 227t-216.5 95q-130 0 -217.5 -94.5t-87.5 -227.5z" />
<glyph unicode="&#xa8;" horiz-adv-x="676" d="M133 1252q0 29 20.5 50.5t49.5 21.5t50.5 -21.5t21.5 -50.5t-21.5 -50t-50.5 -21t-49.5 21t-20.5 50zM402 1252q0 29 21.5 50.5t50.5 21.5t50 -21.5t21 -50.5t-21 -50t-50 -21t-50.5 21t-21.5 50z" />
<glyph unicode="&#xa9;" horiz-adv-x="1644" d="M113 690q0 196 93.5 358t256 255t358.5 93t358.5 -93t256 -255t93.5 -358t-93.5 -359t-256 -257t-358.5 -94t-358.5 94t-256 257t-93.5 359zM197 690q0 -175 83 -320.5t226 -228.5t315 -83q129 0 244.5 49t198.5 133t132 201t49 249q0 174 -82.5 318t-226 227t-315.5 83 q-128 0 -244 -49t-199 -132.5t-132 -200t-49 -246.5zM466 690q0 84 23.5 162t68 141.5t116 102t159.5 38.5q81 0 152.5 -24.5t126 -80t64.5 -132.5h-84q-13 75 -85 116t-174 41q-121 0 -201 -97t-80 -267q0 -173 76.5 -269.5t204.5 -96.5q96 0 170 49.5t89 131.5h84 q-11 -119 -108 -190.5t-235 -71.5q-120 0 -204.5 61.5t-123.5 160.5t-39 225z" />
<glyph unicode="&#xaa;" horiz-adv-x="739" d="M114 979q0 86 60.5 135.5t159.5 49.5q108 0 177 -65v33q0 50 -12 82t-36 47.5t-49.5 20.5t-62.5 5q-59 0 -142 -35l-28 64q91 44 188 44q224 0 224 -210v-298q-106 -70 -245 -70q-101 0 -167.5 53.5t-66.5 143.5zM197 978q0 -57 45.5 -89.5t113.5 -32.5q80 0 155 39v98 q-61 98 -182 98q-55 0 -93.5 -30.5t-38.5 -82.5z" />
<glyph unicode="&#xab;" horiz-adv-x="847" d="M65 440l275 390h93l-250 -390l250 -389h-93zM377 440l276 390h93l-251 -390l252 -389h-94z" />
<glyph unicode="&#xac;" horiz-adv-x="1260" d="M101 674v81h979v-549h-94v468h-885z" />
<glyph unicode="&#xad;" horiz-adv-x="744" d="M112 484v79h522v-79h-522z" />
<glyph unicode="&#xae;" horiz-adv-x="1089" d="M114 963q0 182 125 307t307 125t307.5 -125t125.5 -307t-125.5 -307.5t-307.5 -125.5t-307 125.5t-125 307.5zM179 963q0 -157 106.5 -264t260.5 -107q155 0 261.5 107t106.5 264q0 156 -106.5 263t-261.5 107q-154 0 -260.5 -107t-106.5 -263zM377 715v514h179 q197 0 197 -146q0 -57 -29.5 -93t-84.5 -47l112 -228h-74l-106 218h-129v-218h-65zM442 992h112q68 0 101 21.5t33 69.5t-34 68t-103 20h-109v-179z" />
<glyph unicode="&#xaf;" horiz-adv-x="809" d="M143 1212v73h525v-73h-525z" />
<glyph unicode="&#xb0;" horiz-adv-x="744" d="M109 1131q0 110 78 187.5t188 77.5q109 0 187 -78t78 -187q0 -110 -78 -188t-187 -78q-110 0 -188 78t-78 188zM189 1131q0 -77 54.5 -131t131.5 -54t131 54t54 131t-54 131t-131 54t-131.5 -54t-54.5 -131z" />
<glyph unicode="&#xb1;" horiz-adv-x="1210" d="M116 23v81h979v-81h-979zM116 660v77h444v400h91v-400h444v-77h-444v-409h-91v409h-444z" />
<glyph unicode="&#xb2;" horiz-adv-x="572" d="M42 1396q17 88 83 149.5t152 61.5q105 0 170.5 -68t65.5 -163q0 -100 -80 -203l-236 -294h316v-70h-470l323 401q69 85 69 165q0 68 -46.5 114.5t-113.5 46.5q-111 0 -159 -140h-74z" />
<glyph unicode="&#xb3;" horiz-adv-x="621" d="M52 998h74q18 -58 66.5 -92.5t103.5 -34.5q73 0 121 44t48 113q0 63 -42.5 107.5t-107.5 54.5v64q57 9 92.5 46t35.5 92q0 60 -43.5 103.5t-103.5 43.5q-51 0 -88 -32.5t-57 -85.5h-74q17 79 80.5 133.5t138.5 54.5q99 0 161 -63t62 -148q0 -58 -21 -99t-69 -74 q115 -66 115 -197q0 -92 -68 -160.5t-180 -68.5q-85 0 -156 56.5t-88 142.5z" />
<glyph unicode="&#xb4;" horiz-adv-x="396" d="M82 1131l172 271h122l-219 -271h-75z" />
<glyph unicode="&#xb5;" horiz-adv-x="1139" d="M197 -466v1311h83v-484q0 -125 63.5 -208.5t181.5 -83.5q141 0 226.5 133t85.5 334v309h84v-507q0 -46 0.5 -70.5t3 -61t8.5 -57t15.5 -43.5t26 -36.5t38.5 -20.5v-69q-47 0 -80 21t-51 61.5t-26.5 81.5t-13.5 99l-1 1q-34 -121 -122.5 -192.5t-191.5 -71.5 q-76 0 -132.5 30t-114.5 97v-573h-83z" />
<glyph unicode="&#xb6;" horiz-adv-x="1174" d="M55 988q0 192 118.5 290t330.5 98h471v-1679h-80v1604h-315v-1604h-80v914q-206 0 -325.5 107.5t-119.5 269.5z" />
<glyph unicode="&#xb7;" horiz-adv-x="399" d="M129 564q0 31 21.5 52.5t52.5 21.5t53 -21.5t22 -52.5q0 -32 -22 -53.5t-53 -21.5t-52.5 22t-21.5 53z" />
<glyph unicode="&#xb8;" horiz-adv-x="435" d="M39 -360l22 57q53 -23 109 -23q44 0 76.5 18.5t32.5 62.5q0 50 -55.5 77.5t-110.5 27.5l83 140h74l-64 -99q68 -2 112.5 -38.5t44.5 -98.5q0 -78 -56.5 -115t-140.5 -37q-74 0 -127 28z" />
<glyph unicode="&#xb9;" horiz-adv-x="412" d="M52 1528l42 70h162v-788h-77v718h-127z" />
<glyph unicode="&#xba;" horiz-adv-x="793" d="M111 1071q0 120 84 204.5t203 84.5t203 -84.5t84 -204.5q0 -119 -84 -204t-203 -85t-203 85t-84 204zM193 1071q0 -88 60.5 -151.5t144.5 -63.5t144.5 63.5t60.5 151.5q0 89 -60.5 152.5t-144.5 63.5q-83 0 -144 -64t-61 -152z" />
<glyph unicode="&#xbb;" horiz-adv-x="850" d="M107 51l251 389l-251 390h93l276 -390l-276 -389h-93zM420 51l250 389l-250 390h94l276 -390l-276 -389h-94z" />
<glyph unicode="&#xbc;" horiz-adv-x="1251" d="M56 1305l42 70h162v-788h-78v718h-126zM150 -39l820 1455h89l-821 -1455h-88zM643 142l441 662v-596h89v-66h-89v-148h-74v148h-367zM773 208h237v357z" />
<glyph unicode="&#xbd;" horiz-adv-x="1407" d="M57 1305l41 70h163v-788h-78v718h-126zM151 -39l820 1455h88l-820 -1455h-88zM849 -1l324 402q69 85 69 164q0 68 -46.5 115t-114.5 47q-57 0 -97.5 -38.5t-61.5 -102.5h-73q17 89 82.5 150.5t151.5 61.5q106 0 171.5 -67.5t65.5 -163.5q0 -99 -81 -203l-236 -294h317 v-71h-471z" />
<glyph unicode="&#xbe;" horiz-adv-x="1435" d="M66 775h73q18 -58 66.5 -92.5t103.5 -34.5q73 0 121.5 44.5t48.5 112.5q0 63 -42.5 107.5t-107.5 54.5v63q57 9 92.5 46.5t35.5 92.5q0 60 -44 103.5t-104 43.5q-51 0 -88 -32.5t-57 -85.5h-74q17 79 80.5 133.5t138.5 54.5q99 0 161.5 -62.5t62.5 -148.5 q0 -58 -21.5 -99t-69.5 -74q115 -66 115 -197q0 -92 -68 -160.5t-180 -68.5q-85 0 -155.5 56.5t-87.5 142.5zM335 -39l821 1455h88l-820 -1455h-89zM828 142l441 662v-596h90v-66h-90v-148h-74v148h-367zM959 208h236v357z" />
<glyph unicode="&#xbf;" horiz-adv-x="860" d="M60 28q0 62 19.5 114t51 88.5t69.5 69.5t76.5 67.5t70 73t51 94t19.5 122.5v85h84v-120q0 -64 -19.5 -119.5t-51 -95t-69 -75t-75.5 -68.5t-69.5 -67t-51 -78.5t-19.5 -95.5q0 -123 85.5 -213t218.5 -90q87 0 154.5 43.5t102 105t42.5 130.5h81q-6 -147 -117 -253 t-263 -106q-170 0 -280 115.5t-110 272.5zM384 981q0 31 22 53t53 22t53 -22t22 -53t-22 -53t-53 -22t-53 22t-22 53z" />
<glyph unicode="&#xc0;" d="M4 0l606 1416l554 -1416h-91l-109 280h-748l-120 -280h-92zM250 359h683l-327 836zM343 1727h131l184 -218h-80z" />
<glyph unicode="&#xc1;" d="M4 0l606 1416l554 -1416h-91l-109 280h-748l-120 -280h-92zM250 359h683l-327 836zM562 1504l183 219h131l-234 -219h-80z" />
<glyph unicode="&#xc2;" d="M4 0l606 1416l554 -1416h-91l-109 280h-748l-120 -280h-92zM250 359h683l-327 836zM375 1505l184 219h105l182 -219h-83l-153 165l-153 -165h-82z" />
<glyph unicode="&#xc3;" d="M4 0l606 1416l554 -1416h-91l-109 280h-748l-120 -280h-92zM250 359h683l-327 836zM385 1532q9 79 44.5 121t81.5 42q36 0 64 -14.5t42.5 -32.5t34.5 -32.5t41 -14.5q54 0 71 89h67q-9 -78 -44.5 -120t-81.5 -42q-36 0 -64.5 14.5t-43 32.5t-34 32.5t-40.5 14.5 q-54 0 -71 -90h-67z" />
<glyph unicode="&#xc4;" d="M4 0l606 1416l554 -1416h-91l-109 280h-748l-120 -280h-92zM250 359h683l-327 836zM403 1608q0 29 21 50t50 21t50 -21t21 -50t-21 -50t-50 -21t-50 21t-21 50zM673 1608q0 29 21 50t50 21t50 -21t21 -50t-21 -50t-50 -21t-50 21t-21 50z" />
<glyph unicode="&#xc5;" d="M4 0l606 1416l554 -1416h-91l-109 280h-748l-120 -280h-92zM250 359h683l-327 836zM417 1671q0 79 56 135t135 56t135 -56t56 -135t-56 -134.5t-135 -55.5t-135 55.5t-56 134.5zM484 1671q0 -52 36 -88t88 -36t88.5 36t36.5 88t-36.5 88.5t-88.5 36.5t-88 -36.5 t-36 -88.5z" />
<glyph unicode="&#xc6;" horiz-adv-x="1563" d="M-3 0l826 1376h639v-79h-530v-517h452v-79h-452v-621h564v-80h-651v280h-582l-168 -280h-98zM311 359h534v890z" />
<glyph unicode="&#xc7;" horiz-adv-x="1423" d="M119 688q0 192 96 355t260.5 258t357.5 95q142 0 274 -53t231 -148l-63 -52q-88 81 -203 127t-239 46q-171 0 -315.5 -84.5t-228 -229t-83.5 -314.5q0 -127 49.5 -243t133 -200t200 -134t244.5 -50t244 47.5t205 132.5l58 -57q-96 -93 -221 -146t-264 -57l-45 -69 q67 -2 112 -39t45 -99q0 -78 -56.5 -114.5t-140.5 -36.5q-76 0 -127 27l22 58q55 -24 109 -24q43 0 76 19t33 63q0 50 -55 77t-111 27l66 112q-137 9 -260 68.5t-211.5 153t-140.5 220t-52 264.5z" />
<glyph unicode="&#xc8;" horiz-adv-x="927" d="M209 0v1376h617v-79h-530v-517h452v-79h-452v-621h564v-80h-651zM309 1727h130l184 -218h-80z" />
<glyph unicode="&#xc9;" horiz-adv-x="927" d="M209 0v1376h617v-79h-530v-517h452v-79h-452v-621h564v-80h-651zM440 1504l184 219h131l-235 -219h-80z" />
<glyph unicode="&#xca;" horiz-adv-x="927" d="M209 0v1376h617v-79h-530v-517h452v-79h-452v-621h564v-80h-651zM300 1505l184 219h105l182 -219h-84l-153 165l-153 -165h-81z" />
<glyph unicode="&#xcb;" horiz-adv-x="927" d="M209 0v1376h617v-79h-530v-517h452v-79h-452v-621h564v-80h-651zM315 1610q0 29 21 50t50 21t50 -21t21 -50t-21 -50t-50 -21t-50 21t-21 50zM585 1610q0 29 21 50t50 21t50 -21t21 -50t-21 -50t-50 -21t-50 21t-21 50z" />
<glyph unicode="&#xcc;" horiz-adv-x="500" d="M-17 1727h131l184 -218h-81zM209 0v1376h87v-1376h-87z" />
<glyph unicode="&#xcd;" horiz-adv-x="500" d="M208 1504l185 219h130l-234 -219h-81zM209 0v1376h87v-1376h-87z" />
<glyph unicode="&#xce;" horiz-adv-x="500" d="M17 1505l184 219h104l183 -219h-84l-153 165l-153 -165h-81zM209 0v1376h87v-1376h-87z" />
<glyph unicode="&#xcf;" horiz-adv-x="500" d="M46 1610q0 29 21 50t50 21t50 -21t21 -50t-21 -50t-50 -21t-50 21t-21 50zM209 0v1376h87v-1376h-87zM316 1610q0 29 21 50t50 21t50 -21t21 -50t-21 -50t-50 -21t-50 21t-21 50z" />
<glyph unicode="&#xd1;" horiz-adv-x="1601" d="M209 0v1416l1092 -1231v1191h87v-1415l-1093 1231v-1192h-86zM575 1571q9 79 44 121t81 42q36 0 64.5 -14.5t43 -32t34.5 -32t41 -14.5q55 0 72 89h66q-9 -79 -44.5 -121t-81.5 -42q-36 0 -64.5 14.5t-43 32.5t-34 32.5t-40.5 14.5q-55 0 -72 -90h-66z" />
<glyph unicode="&#xd2;" horiz-adv-x="1655" d="M120 688q0 144 56 275t150.5 226t225 151t274.5 56t274.5 -56t225 -151t150.5 -226t56 -275t-56 -275t-150.5 -226t-225 -151t-274.5 -56t-274.5 56t-225 151t-150.5 226t-56 275zM207 688q0 -170 83 -314.5t225.5 -228.5t310.5 -84t310.5 84t225.5 228.5t83 314.5 q0 127 -49 243t-131.5 200.5t-197.5 134.5t-241 50t-241 -50t-197.5 -134.5t-131.5 -200.5t-49 -243zM587 1728h130l184 -218h-81z" />
<glyph unicode="&#xd3;" horiz-adv-x="1655" d="M120 688q0 144 56 275t150.5 226t225 151t274.5 56t274.5 -56t225 -151t150.5 -226t56 -275t-56 -275t-150.5 -226t-225 -151t-274.5 -56t-274.5 56t-225 151t-150.5 226t-56 275zM207 688q0 -170 83 -314.5t225.5 -228.5t310.5 -84t310.5 84t225.5 228.5t83 314.5 q0 127 -49 243t-131.5 200.5t-197.5 134.5t-241 50t-241 -50t-197.5 -134.5t-131.5 -200.5t-49 -243zM764 1505l184 219h130l-233 -219h-81z" />
<glyph unicode="&#xd4;" horiz-adv-x="1655" d="M120 688q0 144 56 275t150.5 226t225 151t274.5 56t274.5 -56t225 -151t150.5 -226t56 -275t-56 -275t-150.5 -226t-225 -151t-274.5 -56t-274.5 56t-225 151t-150.5 226t-56 275zM207 688q0 -170 83 -314.5t225.5 -228.5t310.5 -84t310.5 84t225.5 228.5t83 314.5 q0 127 -49 243t-131.5 200.5t-197.5 134.5t-241 50t-241 -50t-197.5 -134.5t-131.5 -200.5t-49 -243zM590 1506l184 219h105l182 -219h-84l-152 165l-153 -165h-82z" />
<glyph unicode="&#xd5;" horiz-adv-x="1655" d="M120 688q0 144 56 275t150.5 226t225 151t274.5 56t274.5 -56t225 -151t150.5 -226t56 -275t-56 -275t-150.5 -226t-225 -151t-274.5 -56t-274.5 56t-225 151t-150.5 226t-56 275zM207 688q0 -170 83 -314.5t225.5 -228.5t310.5 -84t310.5 84t225.5 228.5t83 314.5 q0 127 -49 243t-131.5 200.5t-197.5 134.5t-241 50t-241 -50t-197.5 -134.5t-131.5 -200.5t-49 -243zM602 1531q9 79 45 120.5t81 41.5q36 0 64.5 -14.5t43 -32t34.5 -32t41 -14.5q54 0 71 89h67q-9 -78 -45 -120t-82 -42q-36 0 -64.5 14.5t-43 32t-34 32t-40.5 14.5 q-54 0 -71 -89h-67z" />
<glyph unicode="&#xd6;" horiz-adv-x="1655" d="M120 688q0 144 56 275t150.5 226t225 151t274.5 56t274.5 -56t225 -151t150.5 -226t56 -275t-56 -275t-150.5 -226t-225 -151t-274.5 -56t-274.5 56t-225 151t-150.5 226t-56 275zM207 688q0 -170 83 -314.5t225.5 -228.5t310.5 -84t310.5 84t225.5 228.5t83 314.5 q0 127 -49 243t-131.5 200.5t-197.5 134.5t-241 50t-241 -50t-197.5 -134.5t-131.5 -200.5t-49 -243zM620 1609q0 29 21 50.5t50 21.5t50 -21.5t21 -50.5t-21 -49.5t-50 -20.5t-50 20.5t-21 49.5zM890 1609q0 29 20.5 50.5t49.5 21.5t50.5 -21.5t21.5 -50.5t-21.5 -50 t-50.5 -21t-49.5 21t-20.5 50z" />
<glyph unicode="&#xd7;" horiz-adv-x="1069" d="M100 203l374 375l-373 374l62 62l374 -374l374 373l59 -59l-373 -374l376 -375l-62 -63l-376 375l-374 -375z" />
<glyph unicode="&#xd8;" horiz-adv-x="1655" d="M120 688q0 144 56 275t150.5 226t225 151t274.5 56q243 0 437 -152l153 175l54 -56l-150 -170q100 -98 156 -229t56 -276q0 -144 -56 -275t-150.5 -226t-225 -151t-274.5 -56q-247 0 -437 152l-154 -174l-54 55l150 171q-100 98 -155.5 228t-55.5 276zM207 688 q0 -127 47 -241.5t132 -200.5l821 936q-169 134 -381 134q-126 0 -241 -50t-197.5 -134.5t-131.5 -200.5t-49 -243zM444 195q169 -134 382 -134q168 0 310.5 84t225.5 228.5t83 314.5q0 126 -47.5 240t-132.5 201z" />
<glyph unicode="&#xd9;" horiz-adv-x="1369" d="M198 503v873h87v-845q0 -96 16.5 -172t40 -124.5t64.5 -83.5t74.5 -52t86.5 -26t84 -10.5t82 -1.5q183 0 349 109v1206h86v-1257q-95 -65 -209 -102t-226 -37q-82 0 -147 9t-127.5 30t-108.5 60t-81 95.5t-53 139.5t-18 189zM457 1727h130l185 -218h-81z" />
<glyph unicode="&#xda;" horiz-adv-x="1369" d="M198 503v873h87v-845q0 -96 16.5 -172t40 -124.5t64.5 -83.5t74.5 -52t86.5 -26t84 -10.5t82 -1.5q183 0 349 109v1206h86v-1257q-95 -65 -209 -102t-226 -37q-82 0 -147 9t-127.5 30t-108.5 60t-81 95.5t-53 139.5t-18 189zM606 1504l184 219h130l-233 -219h-81z" />
<glyph unicode="&#xdb;" horiz-adv-x="1369" d="M198 503v873h87v-845q0 -96 16.5 -172t40 -124.5t64.5 -83.5t74.5 -52t86.5 -26t84 -10.5t82 -1.5q183 0 349 109v1206h86v-1257q-95 -65 -209 -102t-226 -37q-82 0 -147 9t-127.5 30t-108.5 60t-81 95.5t-53 139.5t-18 189zM459 1505l184 219h105l182 -219h-84l-153 165 l-153 -165h-81z" />
<glyph unicode="&#xdc;" horiz-adv-x="1369" d="M198 503v873h87v-845q0 -96 16.5 -172t40 -124.5t64.5 -83.5t74.5 -52t86.5 -26t84 -10.5t82 -1.5q183 0 349 109v1206h86v-1257q-95 -65 -209 -102t-226 -37q-82 0 -147 9t-127.5 30t-108.5 60t-81 95.5t-53 139.5t-18 189zM477 1610q0 29 21.5 50t50.5 21t49.5 -21 t20.5 -50t-20.5 -50t-49.5 -21t-50.5 21t-21.5 50zM747 1610q0 29 21 50t50 21t50.5 -21t21.5 -50t-21.5 -50t-50.5 -21t-50 21t-21 50z" />
<glyph unicode="&#xdd;" horiz-adv-x="943" d="M-2 1376h98l378 -626l376 626h99l-432 -721v-655h-86v655zM399 1498l184 219h130l-234 -219h-80z" />
<glyph unicode="&#xdf;" horiz-adv-x="1039" d="M164 0v1108q0 214 96 329.5t258 115.5q158 0 258 -101t100 -246q0 -63 -20.5 -116.5t-51.5 -88t-67.5 -69t-67.5 -62t-51.5 -65.5t-20.5 -80q0 -41 21 -78t54.5 -67t74.5 -60t81.5 -62.5t74 -68t54.5 -83.5t21 -102q0 -105 -65 -164.5t-194 -59.5q-136 0 -251 104l57 61 q50 -42 96.5 -63.5t112.5 -21.5q75 0 116 43.5t41 105.5q0 49 -28 93.5t-70 77t-91.5 71.5t-91.5 75.5t-70 90t-28 114.5q0 48 20.5 90t51 71.5t66.5 64t66.5 66.5t51 80t20.5 103q0 113 -78 190t-192 77q-124 0 -197 -98.5t-73 -276.5v-1098h-84z" />
<glyph unicode="&#xe0;" horiz-adv-x="960" d="M90 276q0 129 90 203.5t237 74.5q85 0 166 -32.5t140 -104.5v102q0 69 -15 119t-38.5 78t-61.5 44t-74 20.5t-86 4.5q-90 0 -218 -51l-30 72q132 59 273 59q334 0 334 -322v-461q-157 -102 -368 -102q-149 0 -249 80t-100 216zM176 274q0 -99 79.5 -156t197.5 -57 q139 0 270 70v172q-107 170 -313 170q-99 0 -166.5 -54t-67.5 -145zM258 1260h121l172 -270h-75z" />
<glyph unicode="&#xe1;" horiz-adv-x="960" d="M90 276q0 129 90 203.5t237 74.5q85 0 166 -32.5t140 -104.5v102q0 69 -15 119t-38.5 78t-61.5 44t-74 20.5t-86 4.5q-90 0 -218 -51l-30 72q132 59 273 59q334 0 334 -322v-461q-157 -102 -368 -102q-149 0 -249 80t-100 216zM176 274q0 -99 79.5 -156t197.5 -57 q139 0 270 70v172q-107 170 -313 170q-99 0 -166.5 -54t-67.5 -145zM396 990l172 270h122l-218 -270h-76z" />
<glyph unicode="&#xe2;" horiz-adv-x="960" d="M90 276q0 129 90 203.5t237 74.5q85 0 166 -32.5t140 -104.5v102q0 69 -15 119t-38.5 78t-61.5 43.5t-74 20t-86 4.5q-93 0 -218 -50l-30 72q132 59 273 59q334 0 334 -322v-461q-157 -102 -368 -102q-149 0 -249 80t-100 216zM176 274q0 -99 79.5 -156t197.5 -57 q139 0 270 70v172q-107 170 -313 170q-99 0 -166.5 -54t-67.5 -145zM265 990l166 270h104l170 -270h-78l-143 214l-143 -214h-76z" />
<glyph unicode="&#xe3;" horiz-adv-x="960" d="M90 276q0 129 90 203.5t237 74.5q85 0 166 -32.5t140 -104.5v102q0 69 -15 119t-38.5 78t-61.5 44t-74 20.5t-86 4.5q-90 0 -218 -51l-30 72q132 59 273 59q334 0 334 -322v-461q-157 -102 -368 -102q-149 0 -249 80t-100 216zM176 274q0 -99 79.5 -156t197.5 -57 q139 0 270 70v172q-107 170 -313 170q-99 0 -166.5 -54t-67.5 -145zM254 1030q9 81 44.5 125t81.5 44q30 0 53.5 -10t38.5 -24.5t28 -28.5t28.5 -24t33.5 -10q55 0 72 93h66q-9 -82 -44.5 -125.5t-80.5 -43.5q-36 0 -64.5 15t-43 33.5t-34 33.5t-40.5 15q-55 0 -72 -93h-67z " />
<glyph unicode="&#xe4;" horiz-adv-x="960" d="M90 276q0 129 90 203.5t237 74.5q85 0 166 -32.5t140 -104.5v102q0 69 -15 119t-38.5 78t-61.5 44t-74 20.5t-86 4.5q-90 0 -218 -51l-30 72q132 59 273 59q334 0 334 -322v-461q-157 -102 -368 -102q-149 0 -249 80t-100 216zM176 274q0 -99 79.5 -156t197.5 -57 q139 0 270 70v172q-107 170 -313 170q-99 0 -166.5 -54t-67.5 -145zM279 1103q0 29 21 50t50 21t50 -21t21 -50t-21 -50t-50 -21t-50 21t-21 50zM549 1103q0 29 21 50t50 21t50 -21t21 -50t-21 -50t-50 -21t-50 21t-21 50z" />
<glyph unicode="&#xe5;" horiz-adv-x="960" d="M90 276q0 129 90 203.5t237 74.5q85 0 166 -32.5t140 -104.5v102q0 69 -15 119t-38.5 78t-61.5 44t-74 20.5t-86 4.5q-90 0 -218 -51l-30 72q132 59 273 59q334 0 334 -322v-461q-157 -102 -368 -102q-149 0 -249 80t-100 216zM176 274q0 -99 79.5 -156t197.5 -57 q139 0 270 70v172q-107 170 -313 170q-99 0 -166.5 -54t-67.5 -145zM287 1162q0 79 55.5 135t134.5 56q80 0 136 -56t56 -135t-56.5 -135t-135.5 -56t-134.5 56t-55.5 135zM353 1162q0 -52 36 -88t88 -36t88.5 36t36.5 88t-36.5 88.5t-88.5 36.5t-88 -36.5t-36 -88.5z" />
<glyph unicode="&#xe6;" horiz-adv-x="1594" d="M90 276q0 129 90 203.5t237 74.5q193 0 306 -137v102q0 69 -15 119t-38.5 78t-61.5 44t-74 20.5t-86 4.5q-90 0 -218 -51l-30 72q127 59 273 59q252 0 314 -182q54 86 139 134t186 48q163 0 269.5 -119t123.5 -318h-698q0 -166 91 -266.5t236 -100.5q81 0 140 23.5 t118 76.5l61 -52q-139 -129 -319 -129q-207 0 -327 156v-54q-157 -102 -368 -102q-149 0 -249 80t-100 216zM176 274q0 -99 79.5 -156t197.5 -57q139 0 270 70v172q-104 170 -313 170q-99 0 -166.5 -54t-67.5 -145zM812 507h599q-34 137 -113 207.5t-186 70.5 q-109 0 -194 -72t-106 -206z" />
<glyph unicode="&#xe7;" horiz-adv-x="903" d="M105 423q0 184 127.5 313t307.5 129q153 0 274 -99l-61 -51q-102 70 -213 70q-144 0 -247 -106.5t-103 -255.5t103 -255.5t247 -106.5q138 0 245 99l63 -49q-114 -116 -270 -129l-45 -70q67 -2 111.5 -39t44.5 -99q0 -78 -56.5 -114.5t-140.5 -36.5q-75 0 -126 27l22 58 q55 -24 108 -24q43 0 76 19t33 63q0 50 -55 77t-111 27l66 112q-168 13 -284 140t-116 301z" />
<glyph unicode="&#xe8;" horiz-adv-x="985" d="M108 423q0 194 113.5 318t281.5 124q163 0 269.5 -119t123.5 -318h-698q0 -166 91 -266.5t236 -100.5q81 0 140 23.5t118 76.5l61 -52q-139 -129 -319 -129q-182 0 -299.5 124t-117.5 319zM202 507h599q-34 137 -112.5 207.5t-185.5 70.5q-110 0 -194.5 -72t-106.5 -206z M323 1260h122l172 -270h-75z" />
<glyph unicode="&#xe9;" horiz-adv-x="985" d="M108 423q0 194 113.5 318t281.5 124q163 0 269.5 -119t123.5 -318h-698q0 -166 91 -266.5t236 -100.5q81 0 140 23.5t118 76.5l61 -52q-139 -129 -319 -129q-182 0 -299.5 124t-117.5 319zM202 507h599q-34 137 -112.5 207.5t-185.5 70.5q-110 0 -194.5 -72t-106.5 -206z M445 990l173 270h121l-218 -270h-76z" />
<glyph unicode="&#xea;" horiz-adv-x="985" d="M108 423q0 194 113.5 318t281.5 124q163 0 269.5 -119.5t123.5 -317.5h-698q0 -166 91 -266.5t236 -100.5q81 0 140 23.5t118 76.5l61 -52q-139 -129 -319 -129q-182 0 -299.5 124t-117.5 319zM202 507h599q-34 137 -112.5 207.5t-185.5 70.5q-110 0 -194.5 -72 t-106.5 -206zM299 990l166 270h104l170 -270h-78l-143 214l-143 -214h-76z" />
<glyph unicode="&#xeb;" horiz-adv-x="985" d="M108 423q0 194 113.5 318t281.5 124q163 0 269.5 -119t123.5 -318h-698q0 -166 91 -266.5t236 -100.5q81 0 140 23.5t118 76.5l61 -52q-139 -129 -319 -129q-182 0 -299.5 124t-117.5 319zM202 507h599q-34 137 -112.5 207.5t-185.5 70.5q-110 0 -194.5 -72t-106.5 -206z M321 1103q0 29 21 50t50 21t50 -21t21 -50t-21 -50t-50 -21t-50 21t-21 50zM591 1103q0 29 21 50t50 21t50 -21t21 -50t-21 -50t-50 -21t-50 21t-21 50z" />
<glyph unicode="&#xec;" horiz-adv-x="391" d="M-47 1263h122l172 -271h-76zM157 0v845h83v-845h-83z" />
<glyph unicode="&#xed;" horiz-adv-x="391" d="M154 992l172 271h122l-219 -271h-75zM157 0v845h83v-845h-83z" />
<glyph unicode="&#xee;" horiz-adv-x="391" d="M-21 993l166 270h104l170 -270h-79l-142 214l-143 -214h-76zM157 0v845h83v-845h-83z" />
<glyph unicode="&#xef;" horiz-adv-x="391" d="M-7 1104q0 29 20.5 50t49.5 21t50.5 -21t21.5 -50t-21.5 -50t-50.5 -21t-49.5 21t-20.5 50zM157 0v845h83v-845h-83zM262 1104q0 29 21.5 50t50.5 21t50 -21t21 -50t-21 -50.5t-50 -21.5t-50.5 21.5t-21.5 50.5z" />
<glyph unicode="&#xf1;" horiz-adv-x="1063" d="M164 0v845h84v-145h1q56 79 143 122t195 43q152 0 238 -94t86 -285v-486h-84v425q0 195 -65.5 277t-208.5 82q-124 0 -214.5 -93.5t-90.5 -260.5v-430h-84zM321 1032q9 81 45 125t82 44q36 0 64 -15t42.5 -33.5t34.5 -33.5t41 -15q55 0 72 93h67q-9 -82 -45 -126t-81 -44 q-36 0 -65 15.5t-43.5 33.5t-34 33.5t-40.5 15.5q-28 0 -45 -22t-26 -71h-68z" />
<glyph unicode="&#xf2;" horiz-adv-x="1078" d="M105 423q0 184 127 313t307 129t308 -129.5t128 -312.5q0 -184 -128 -313.5t-308 -129.5t-307 129.5t-127 313.5zM190 423q0 -149 102.5 -255.5t246.5 -106.5t247.5 106.5t103.5 255.5t-103.5 255.5t-247.5 106.5t-246.5 -106.5t-102.5 -255.5zM339 1260h121l172 -270 h-75z" />
<glyph unicode="&#xf3;" horiz-adv-x="1078" d="M105 423q0 184 127 313t307 129t308 -129.5t128 -312.5q0 -184 -128 -313.5t-308 -129.5t-307 129.5t-127 313.5zM190 423q0 -149 102.5 -255.5t246.5 -106.5t247.5 106.5t103.5 255.5t-103.5 255.5t-247.5 106.5t-246.5 -106.5t-102.5 -255.5zM456 990l172 270h122 l-218 -270h-76z" />
<glyph unicode="&#xf4;" horiz-adv-x="1078" d="M105 423q0 183 127 312.5t307 129.5t308 -129.5t128 -312.5q0 -184 -128 -313.5t-308 -129.5t-307 129.5t-127 313.5zM190 423q0 -149 102.5 -255.5t246.5 -106.5t247.5 106.5t103.5 255.5t-103.5 255.5t-247.5 106.5t-246.5 -106.5t-102.5 -255.5zM320 990l165 270h104 l170 -270h-78l-142 214l-143 -214h-76z" />
<glyph unicode="&#xf5;" horiz-adv-x="1078" d="M105 423q0 184 127 313t307 129t308 -129.5t128 -312.5q0 -184 -128 -313.5t-308 -129.5t-307 129.5t-127 313.5zM190 423q0 -149 102.5 -255.5t246.5 -106.5t247.5 106.5t103.5 255.5t-103.5 255.5t-247.5 106.5t-246.5 -106.5t-102.5 -255.5zM316 1030q9 81 44.5 125 t81.5 44q36 0 64 -15t42.5 -33.5t34.5 -33.5t41 -15q55 0 72 93h67q-9 -81 -44.5 -125t-81.5 -44q-36 0 -64.5 15t-43 33.5t-34 33.5t-40.5 15q-55 0 -72 -93h-67z" />
<glyph unicode="&#xf6;" horiz-adv-x="1078" d="M105 423q0 184 127 313t307 129t308 -129.5t128 -312.5q0 -184 -128 -313.5t-308 -129.5t-307 129.5t-127 313.5zM190 423q0 -149 102.5 -255.5t246.5 -106.5t247.5 106.5t103.5 255.5t-103.5 255.5t-247.5 106.5t-246.5 -106.5t-102.5 -255.5zM334 1103q0 29 21 50 t50 21t50 -21t21 -50t-21 -50t-50 -21t-50 21t-21 50zM603 1103q0 29 21.5 50t50.5 21t50 -21t21 -50t-21 -50t-50 -21t-50.5 21t-21.5 50z" />
<glyph unicode="&#xf7;" horiz-adv-x="1188" d="M105 538v81h979v-81h-979zM509 144q0 35 25.5 60.5t60.5 25.5t60.5 -25.5t25.5 -60.5t-25.5 -60.5t-60.5 -25.5t-60.5 25.5t-25.5 60.5zM509 1013q0 35 25.5 60t60.5 25t60.5 -25t25.5 -60t-25.5 -60.5t-60.5 -25.5t-60.5 25.5t-25.5 60.5z" />
<glyph unicode="&#xf8;" horiz-adv-x="1078" d="M105 423q0 183 127 312.5t307 129.5q139 0 254 -83l85 102l52 -45l-85 -102q130 -130 130 -314t-128 -313.5t-308 -129.5q-138 0 -253 83l-84 -102l-53 45l85 102q-129 129 -129 315zM190 423q0 -144 98 -250l452 545q-91 67 -201 67q-144 0 -246.5 -106.5t-102.5 -255.5 zM339 127q90 -66 200 -66q144 0 247.5 106.5t103.5 255.5q0 142 -99 249z" />
<glyph unicode="&#xf9;" horiz-adv-x="1042" d="M156 374v471h84v-431q0 -86 16.5 -150t43 -102t66.5 -61.5t81 -31.5t93 -8q125 0 254 70v714h84v-763q-155 -102 -343 -102q-61 0 -112.5 9.5t-102.5 36t-85.5 69t-56.5 114t-22 165.5zM308 1263h122l172 -271h-76z" />
<glyph unicode="&#xfa;" horiz-adv-x="1042" d="M156 374v471h84v-431q0 -86 16.5 -150t43 -102t66.5 -61.5t81 -31.5t93 -8q125 0 254 70v714h84v-763q-155 -102 -343 -102q-61 0 -112.5 9.5t-102.5 36t-85.5 69t-56.5 114t-22 165.5zM440 992l172 271h122l-218 -271h-76z" />
<glyph unicode="&#xfb;" horiz-adv-x="1042" d="M156 374v471h84v-431q0 -86 16.5 -150t43 -102t66.5 -61.5t81 -31.5t93 -8q125 0 254 70v714h84v-763q-155 -102 -343 -102q-61 0 -112.5 9.5t-102.5 36t-85.5 69t-56.5 114t-22 165.5zM297 993l166 270h104l170 -270h-78l-143 214l-143 -214h-76z" />
<glyph unicode="&#xfc;" horiz-adv-x="1042" d="M156 374v471h84v-431q0 -86 16.5 -150t43 -102t66.5 -61.5t81 -31.5t93 -8q125 0 254 70v714h84v-763q-155 -102 -343 -102q-61 0 -112.5 9.5t-102.5 36t-85.5 69t-56.5 114t-22 165.5zM311 1104q0 29 21 50t50 21t50 -21t21 -50t-21 -50t-50 -21t-50 21t-21 50z M581 1104q0 29 21 50t50 21t50 -21t21 -50t-21 -50.5t-50 -21.5t-50 21.5t-21 50.5z" />
<glyph unicode="&#xfd;" horiz-adv-x="897" d="M27 845h94l328 -655l328 655h94l-657 -1311h-94l281 562zM402 992l172 271h122l-219 -271h-75z" />
<glyph unicode="&#xff;" horiz-adv-x="897" d="M27 845h94l328 -655l328 655h94l-657 -1311h-94l281 562zM263 1104q0 29 21 50t50 21t50.5 -21t21.5 -50t-21.5 -50t-50.5 -21t-50 21t-21 50zM533 1104q0 29 21 50t50 21t50 -21t21 -50t-21 -50t-50 -21t-50 21t-21 50z" />
<glyph unicode="&#x152;" horiz-adv-x="2164" d="M120 688q0 144 56 275t150.5 226t225 151t274.5 56q197 0 362 -100t257 -266h1v346h617v-79h-531v-517h453v-79h-453v-621h565v-80h-651v347h-1q-91 -166 -256.5 -266.5t-362.5 -100.5q-144 0 -274.5 56t-225 151t-150.5 226t-56 275zM207 688q0 -170 83 -314.5 t225.5 -228.5t310.5 -84q126 0 241 50t197.5 134t131.5 200t49 243t-49 243t-131.5 200.5t-197.5 134.5t-241 50t-241 -50t-197.5 -134.5t-131.5 -200.5t-49 -243z" />
<glyph unicode="&#x153;" horiz-adv-x="1762" d="M105 423q0 184 127 313t307 129q123 0 226.5 -65t159.5 -173q48 111 143 174.5t212 63.5q163 0 269.5 -119t123.5 -318h-698q0 -166 91 -266.5t236 -100.5q81 0 140 23.5t118 76.5l61 -52q-139 -129 -319 -129q-128 0 -228 64t-149 175q-55 -108 -159 -173.5t-227 -65.5 q-180 0 -307 129.5t-127 313.5zM190 423q0 -149 102.5 -255.5t246.5 -106.5t247.5 106.5t103.5 255.5t-103.5 255.5t-247.5 106.5t-246.5 -106.5t-102.5 -255.5zM979 507h599q-34 137 -112.5 207.5t-185.5 70.5q-110 0 -195 -72t-106 -206z" />
<glyph unicode="&#x178;" horiz-adv-x="943" d="M-2 1376h98l378 -626l376 626h99l-432 -721v-655h-86v655zM278 1604q0 29 21 50t50 21t50 -21t21 -50t-21 -50t-50 -21t-50 21t-21 50zM548 1604q0 29 21 50t50 21t50 -21t21 -50t-21 -50.5t-50 -21.5t-50 21.5t-21 50.5z" />
<glyph unicode="&#x2c6;" horiz-adv-x="621" d="M94 1131l166 271h104l170 -271h-78l-143 215l-143 -215h-76z" />
<glyph unicode="&#x2dc;" horiz-adv-x="691" d="M129 1177q9 81 44.5 125t81.5 44q30 0 53.5 -10t38.5 -24t28 -28.5t28.5 -24.5t33.5 -10q55 0 72 93h67q-9 -82 -45 -126t-81 -44q-36 0 -64.5 15.5t-43 33.5t-34 33.5t-40.5 15.5q-55 0 -72 -93h-67z" />
<glyph unicode="&#x2000;" horiz-adv-x="931" />
<glyph unicode="&#x2001;" horiz-adv-x="1862" />
<glyph unicode="&#x2002;" horiz-adv-x="931" />
<glyph unicode="&#x2003;" horiz-adv-x="1862" />
<glyph unicode="&#x2004;" horiz-adv-x="620" />
<glyph unicode="&#x2005;" horiz-adv-x="465" />
<glyph unicode="&#x2006;" horiz-adv-x="310" />
<glyph unicode="&#x2007;" horiz-adv-x="310" />
<glyph unicode="&#x2008;" horiz-adv-x="232" />
<glyph unicode="&#x2009;" horiz-adv-x="372" />
<glyph unicode="&#x200a;" horiz-adv-x="103" />
<glyph unicode="&#x2010;" horiz-adv-x="744" d="M112 484v79h522v-79h-522z" />
<glyph unicode="&#x2011;" horiz-adv-x="744" d="M112 484v79h522v-79h-522z" />
<glyph unicode="&#x2012;" horiz-adv-x="744" d="M112 484v79h522v-79h-522z" />
<glyph unicode="&#x2013;" horiz-adv-x="1209" d="M112 487v73h988v-73h-988z" />
<glyph unicode="&#x2014;" horiz-adv-x="2164" d="M112 487v73h1942v-73h-1942z" />
<glyph unicode="&#x2018;" horiz-adv-x="374" d="M100 1116l146 418h66l-106 -418h-106z" />
<glyph unicode="&#x2019;" horiz-adv-x="364" d="M103 1116l106 418h105l-145 -418h-66z" />
<glyph unicode="&#x201a;" horiz-adv-x="382" d="M68 -300l105 417h105l-145 -417h-65z" />
<glyph unicode="&#x201c;" horiz-adv-x="613" d="M100 1116l145 418h67l-107 -418h-105zM339 1116l145 418h67l-107 -418h-105z" />
<glyph unicode="&#x201d;" horiz-adv-x="604" d="M103 1116l106 418h105l-145 -418h-66zM342 1116l107 418h105l-145 -418h-67z" />
<glyph unicode="&#x201e;" horiz-adv-x="621" d="M68 -300l106 417h105l-145 -417h-66zM307 -300l107 417h104l-144 -417h-67z" />
<glyph unicode="&#x2022;" horiz-adv-x="804" d="M129 661q0 114 80.5 194.5t194.5 80.5t195 -80.5t81 -194.5t-81 -195t-195 -81t-194.5 81t-80.5 195z" />
<glyph unicode="&#x2026;" horiz-adv-x="1730" d="M138 55q0 31 21.5 53t52.5 22t53 -22t22 -53t-21.5 -53t-53.5 -22q-31 0 -52.5 22t-21.5 53zM793 55q0 31 22 53t53 22t53 -22t22 -53t-21.5 -53t-53.5 -22q-31 0 -53 22t-22 53zM1448 55q0 31 22 53t53 22t53 -22t22 -53t-22 -53t-53 -22t-53 22t-22 53z" />
<glyph unicode="&#x202f;" horiz-adv-x="372" />
<glyph unicode="&#x2039;" horiz-adv-x="535" d="M65 440l275 390h94l-251 -390l251 -389h-94z" />
<glyph unicode="&#x203a;" horiz-adv-x="537" d="M107 830h94l275 -390l-275 -389h-93l250 389z" />
<glyph unicode="&#x205f;" horiz-adv-x="465" />
<glyph unicode="&#x20ac;" horiz-adv-x="1239" d="M63 544l37 80h114q-3 33 -3 64q0 29 4 81h-152l37 80h126q44 239 196 393t344 154q224 0 388 -201l-61 -55q-69 80 -153.5 128t-173.5 48q-162 0 -286.5 -134t-164.5 -333h696l-38 -80h-670q-4 -54 -4 -81q0 -31 3 -64h612l-38 -80h-564q37 -203 162 -343t292 -140 q89 0 178.5 49t152.5 130l58 -58q-76 -96 -176 -149t-213 -53q-200 0 -351.5 161.5t-191.5 402.5h-160z" />
<glyph unicode="&#x2122;" horiz-adv-x="1898" d="M61 1305v71h637v-71h-280v-754h-77v754h-280zM823 551v825h133l315 -702l309 702h132v-825h-79v749l-2 1l-337 -750h-54l-337 750l-1 -1v-749h-79z" />
<glyph unicode="&#x25fc;" horiz-adv-x="844" d="M0 0v845h845v-845h-845z" />
<glyph unicode="&#xfb01;" horiz-adv-x="881" d="M151 -466v1637q0 106 27 183.5t73 119t96.5 60.5t107.5 19q184 0 282 -123v-172h-83v138q-86 77 -199 77q-32 0 -60.5 -7t-58.5 -27.5t-52 -53.5t-36 -88.5t-14 -128.5v-323h176v-79h-176v-1232h-83zM654 0v845h83v-845h-83z" />
<glyph unicode="&#xfb02;" horiz-adv-x="908" d="M151 -466v1637q0 105 28 183t75.5 119.5t99 60.5t108.5 19q184 0 289 -123v-1430h-83v1396q-94 77 -206 77q-32 0 -61 -7t-60.5 -27.5t-54 -53.5t-37.5 -88.5t-15 -128.5v-323h176v-79h-176v-1232h-83z" />
<glyph unicode="&#xfb03;" horiz-adv-x="1376" d="M151 -466v1627q0 106 26.5 183.5t71.5 119.5t95 61t107 19q162 0 262 -109q80 118 238 118q184 0 282 -123v-172h-84v138q-86 77 -198 77q-32 0 -60.5 -7t-59 -27.5t-52.5 -53.5t-36 -88.5t-14 -128.5v-323h177v-79h-177v-1232h-83v1637q0 111 29 189q-91 103 -224 103 q-32 0 -60 -7t-57.5 -28t-51 -53.5t-35 -88t-13.5 -128.5v-313h176v-79h-176v-1232h-83zM1149 0v845h84v-845h-84z" />
<glyph unicode="&#xfb04;" horiz-adv-x="1404" d="M151 -466v1627q0 106 26.5 183.5t71.5 119.5t95 61t107 19q163 0 264 -110q44 62 108 90.5t134 28.5q185 0 290 -123v-1430h-84v1396q-94 77 -206 77q-32 0 -61 -7t-60.5 -27.5t-54 -53.5t-37.5 -88.5t-15 -128.5v-323h177v-79h-177v-1232h-83v1637q0 107 30 188 q-91 104 -225 104q-32 0 -60 -7t-57.5 -28t-51 -53.5t-35 -88t-13.5 -128.5v-313h176v-79h-176v-1232h-83z" />
</font>
</defs>
</svg>
