
<svg width="289px" height="204px" viewBox="0 0 289 204" version="1.1" xmlns="http://www.w3.org/2000/svg" xmlns:xlink="http://www.w3.org/1999/xlink">
  <!-- Generator: Sketch 48.2 (47327) - http://www.bohemiancoding.com/sketch -->
  <desc>Created with Sketch.</desc>
  <defs>
    <polygon id="path-1" points="0 0 8.90917969 34.6162109 30.6015625 34.6162109 20.6015625 155.02832 8.90917969 155.02832 0 189.925781 91.8613281 189.925781 91.8613281 155.02832 76.4628906 155.02832 76.4628906 47.8310547 113.667969 189.925781 157.269531 189.925781 194.349609 47.8310547 194.349609 155.02832 179.945312 155.02832 179.945312 189.925781 270.823242 189.925781 262.792969 155.02832 251.05957 155.02832 241.05957 34.6162109 262.792969 34.6162109 270.823242 0 160.949219 0 135.411621 94.9628906 110.929688 0"></polygon>
    <linearGradient x1="50%" y1="0%" x2="50%" y2="100%" id="linearGradient-3">
      <stop stop-color="#3D8DB8" offset="0%"></stop>
      <stop stop-color="#2B617F" offset="100%"></stop>
    </linearGradient>
    <linearGradient x1="41.5472172%" y1="71.118282%" x2="54.0333239%" y2="-13.3322011%" id="linearGradient-4">
      <stop stop-color="#2B617F" offset="0%"></stop>
      <stop stop-color="#3D8DB8" offset="100%"></stop>
    </linearGradient>
    <linearGradient x1="47.8168625%" y1="51.8998139%" x2="57.6998071%" y2="1.82033189%" id="linearGradient-5">
      <stop stop-color="#2B617F" offset="0%"></stop>
      <stop stop-color="#3881A8" offset="59.5846398%"></stop>
      <stop stop-color="#3D8DB8" offset="100%"></stop>
    </linearGradient>
    <linearGradient x1="47.531496%" y1="51.8998139%" x2="58.7062792%" y2="1.82033189%" id="linearGradient-6">
      <stop stop-color="#2B617F" offset="0%"></stop>
      <stop stop-color="#3881A8" offset="59.5846398%"></stop>
      <stop stop-color="#3D8DB8" offset="100%"></stop>
    </linearGradient>
    <linearGradient x1="36.8822704%" y1="97.1013416%" x2="12.0781784%" y2="-31.8973293%" id="linearGradient-7">
      <stop stop-color="#2B617F" offset="0%"></stop>
      <stop stop-color="#3D8DB8" offset="100%"></stop>
    </linearGradient>
    <linearGradient x1="44.6332994%" y1="102.783439%" x2="22.1709695%" y2="13.635077%" id="linearGradient-8">
      <stop stop-color="#2B617F" offset="0%"></stop>
      <stop stop-color="#3D8DB8" offset="100%"></stop>
    </linearGradient>
    <linearGradient x1="64.0694186%" y1="7.4926404%" x2="37.836824%" y2="93.1796309%" id="linearGradient-9">
      <stop stop-color="#2B617F" offset="0%"></stop>
      <stop stop-color="#3D8DB8" offset="100%"></stop>
    </linearGradient>
    <linearGradient x1="43.8583682%" y1="2.59349385%" x2="48.1620445%" y2="98.0794271%" id="linearGradient-10">
      <stop stop-color="#2B617F" offset="0%"></stop>
      <stop stop-color="#3D8DB8" offset="100%"></stop>
    </linearGradient>
    <linearGradient x1="61.4229012%" y1="41.0193435%" x2="33.8809362%" y2="6.48428676%" id="linearGradient-11">
      <stop stop-color="#2B617F" offset="0%"></stop>
      <stop stop-color="#3D8DB8" offset="100%"></stop>
    </linearGradient>
    <linearGradient x1="83.9565002%" y1="69.4809554%" x2="58.8068248%" y2="38.0967352%" id="linearGradient-12">
      <stop stop-color="#2B617F" offset="0%"></stop>
      <stop stop-color="#3D8DB8" offset="100%"></stop>
    </linearGradient>
    <linearGradient x1="37.2404062%" y1="48.3587166%" x2="85.40909%" y2="72.7292883%" id="linearGradient-13">
      <stop stop-color="#2B617F" offset="0%"></stop>
      <stop stop-color="#3D8DB8" offset="100%"></stop>
    </linearGradient>
    <polygon id="path-14" points="0 0 8.90917969 34.6162109 30.6015625 34.6162109 20.6015625 155.02832 8.90917969 155.02832 0 189.925781 91.8613281 189.925781 91.8613281 155.02832 76.4628906 155.02832 76.4628906 47.8310547 113.667969 189.925781 157.269531 189.925781 194.349609 47.8310547 194.349609 155.02832 179.945312 155.02832 179.945312 189.925781 270.823242 189.925781 262.792969 155.02832 251.05957 155.02832 241.05957 34.6162109 262.792969 34.6162109 270.823242 0 160.949219 0 135.411621 94.9628906 110.929688 0"></polygon>
    <linearGradient x1="41.8529584%" y1="35.7828922%" x2="91.1087745%" y2="156.481767%" id="linearGradient-16">
      <stop stop-color="#3D8DB8" offset="0%"></stop>
      <stop stop-color="#2B617F" offset="100%"></stop>
    </linearGradient>
  </defs>
  <g id="Page-2" stroke="none" stroke-width="1" fill="none" fill-rule="evenodd">
    <g id="Group-2" transform="translate(-485.000000, -37.000000)">
      <g id="yeah" transform="translate(492.000000, 43.000000)">
        <g id="Mask">
          <g id="path-1-link" transform="translate(2.000000, 1.000000)" fill="#FFFFFF">
            <polygon id="path-1" points="0 0 8.90917969 34.6162109 30.6015625 34.6162109 20.6015625 155.02832 8.90917969 155.02832 0 189.925781 91.8613281 189.925781 91.8613281 155.02832 76.4628906 155.02832 76.4628906 47.8310547 113.667969 189.925781 157.269531 189.925781 194.349609 47.8310547 194.349609 155.02832 179.945312 155.02832 179.945312 189.925781 270.823242 189.925781 262.792969 155.02832 251.05957 155.02832 241.05957 34.6162109 262.792969 34.6162109 270.823242 0 160.949219 0 135.411621 94.9628906 110.929688 0"></polygon>
          </g>
          <polygon id="Shape" stroke="#FFFFFF" stroke-width="12" points="137.432031 92.0363309 162.182612 0 274.081777 0 265.587543 36.6162109 244.146061 36.6162109 253.979965 155.02832 265.588992 155.02832 274.079487 191.925781 180.945312 191.925781 180.945312 155.02832 195.349609 155.02832 195.349609 56.6235912 160.042066 191.925781 114.896092 191.925781 79.4628906 56.5982598 79.4628906 155.02832 94.8613281 155.02832 94.8613281 191.925781 0.71263043 191.925781 10.132402 155.02832 21.6811681 155.02832 31.5150718 36.6162109 10.1339612 36.6162109 0.71004115 0 113.704579 0"></polygon>
        </g>
        <g id="Gradients-Clipped" transform="translate(2.000000, 1.000000)">
          <mask id="mask-2" fill="white">
            <use xlink:href="#path-1"></use>
          </mask>
          <g id="path-1"></g>
          <g id="Gradients" mask="url(#mask-2)">
            <g transform="translate(-564.000000, -275.000000)" id="Group">
              <g>
                <polygon id="Rectangle" fill="url(#linearGradient-3)" fill-rule="nonzero" points="114 178 1313 178 1313 561 114 561"></polygon>
                <polygon id="Rectangle-2" fill="url(#linearGradient-4)" fill-rule="nonzero" points="729.609375 257 1109 257 1109 464 677.496094 464"></polygon>
                <polygon id="Path" fill="url(#linearGradient-5)" fill-rule="nonzero" points="736.61956 182.671323 1175.3912 194.791667 1175.3912 581 637.695602 574.570514"></polygon>
                <polygon id="Rectangle-2" fill="url(#linearGradient-6)" fill-rule="nonzero" transform="translate(572.166016, 294.145182) scale(-1, 1) translate(-572.166016, -294.145182) " points="246.84961 24.0820312 915.000001 24.0820312 906.222598 564.208333 229.332032 564.208333"></polygon>
                <polygon id="Rectangle-2" fill="url(#linearGradient-7)" fill-rule="nonzero" points="794.460938 0.83203125 1122.69141 0.83203125 1106.50391 454 694.609375 368.164062"></polygon>
                <polygon id="Rectangle-2" fill="url(#linearGradient-8)" fill-rule="nonzero" points="900.113281 41 1261.50391 41 1261.50391 317 830 317"></polygon>
                <polygon id="Rectangle-2" fill="url(#linearGradient-9)" fill-rule="nonzero" transform="translate(354.751953, 183.000000) scale(-1, 1) translate(-354.751953, -183.000000) " points="209.113281 45 570.503906 45 570.503906 321 139 321"></polygon>
                <polygon id="Rectangle-2" fill="url(#linearGradient-10)" fill-rule="nonzero" points="792.522089 315 1340 315 1340 620 687 620"></polygon>
                <polygon id="Rectangle-2" fill="url(#linearGradient-11)" fill-rule="nonzero" points="71.617372 315 593 315 573.224501 698 0 661.273032"></polygon>
                <polygon id="Rectangle-2" fill="url(#linearGradient-12)" fill-rule="nonzero" points="759.275391 338.488281 805.757812 440.332031 831.71875 429.529297 909.40625 760.625 647.458984 767.800781"></polygon>
                <polygon id="Rectangle-2" fill="url(#linearGradient-13)" fill-rule="nonzero" transform="translate(608.392578, 553.591797) scale(-1, 1) translate(-608.392578, -553.591797) " points="576.339844 333 623.984375 440.332031 647.882812 428.097656 741.404297 774.183594 475.380859 746.792969"></polygon>
              </g>
            </g>
          </g>
        </g>
        <g id="Path-Clipped" transform="translate(2.000000, 1.000000)">
          <mask id="mask-15" fill="white">
            <use xlink:href="#path-14"></use>
          </mask>
          <g id="path-1"></g>
          <polygon id="Path" stroke="url(#linearGradient-16)" stroke-width="5" mask="url(#mask-15)" points="135.462645 85.1464912 159.032703 -2.5 273.96958 -2.5 264.779405 37.1162109 243.775797 37.1162109 253.360556 152.52832 264.783027 152.52832 273.963853 192.425781 177.445312 192.425781 177.445312 152.52832 191.849609 152.52832 191.849609 67.312396 159.200867 192.425781 111.738276 192.425781 78.9628906 67.2490676 78.9628906 152.52832 94.3613281 152.52832 94.3613281 192.425781 -3.21842394 192.425781 6.96723539 152.52832 18.3005764 152.52832 27.8853358 37.1162109 6.97113336 37.1162109 -3.22489712 -2.5 112.866917 -2.5"></polygon>
        </g>
      </g>
    </g>
  </g>
</svg>