<svg width="592" height="415" xmlns="http://www.w3.org/2000/svg" xmlns:xlink="http://www.w3.org/1999/xlink"><defs><path id="a" d="M0 0l19.438 75.526h47.329L44.949 338.244h-25.51L0 414.384h200.425v-76.14h-33.597V104.359l81.175 310.025h95.13l80.903-310.025v233.885h-31.428v76.14h198.28l-17.522-76.14h-25.6L525.948 75.526h47.418L590.887 0H351.162l-55.718 207.192L242.028 0z"/><linearGradient x1="50%" y1="0%" x2="50%" y2="100%" id="c"><stop stop-color="#3D8DB8" offset="0%"/><stop stop-color="#2B617F" offset="100%"/></linearGradient><linearGradient x1="48.055%" y1="71.118%" x2="50.928%" y2="-13.332%" id="d"><stop stop-color="#2B617F" offset="0%"/><stop stop-color="#3D8DB8" offset="100%"/></linearGradient><linearGradient x1="48.802%" y1="51.9%" x2="54.226%" y2="1.82%" id="e"><stop stop-color="#2B617F" offset="0%"/><stop stop-color="#3881A8" offset="59.585%"/><stop stop-color="#3D8DB8" offset="100%"/></linearGradient><linearGradient x1="48.468%" y1="51.9%" x2="55.403%" y2="1.82%" id="f"><stop stop-color="#2B617F" offset="0%"/><stop stop-color="#3881A8" offset="59.585%"/><stop stop-color="#3D8DB8" offset="100%"/></linearGradient><linearGradient x1="36.882%" y1="92.031%" x2="12.078%" y2="-23.081%" id="g"><stop stop-color="#2B617F" offset="0%"/><stop stop-color="#3D8DB8" offset="100%"/></linearGradient><linearGradient x1="47.804%" y1="102.783%" x2="38.615%" y2="13.635%" id="h"><stop stop-color="#2B617F" offset="0%"/><stop stop-color="#3D8DB8" offset="100%"/></linearGradient><linearGradient x1="55.756%" y1="7.493%" x2="45.024%" y2="93.18%" id="i"><stop stop-color="#2B617F" offset="0%"/><stop stop-color="#3D8DB8" offset="100%"/></linearGradient><linearGradient x1="48.66%" y1="2.593%" x2="49.599%" y2="98.079%" id="j"><stop stop-color="#2B617F" offset="0%"/><stop stop-color="#3D8DB8" offset="100%"/></linearGradient><linearGradient x1="54.765%" y1="41.019%" x2="43.276%" y2="6.484%" id="k"><stop stop-color="#2B617F" offset="0%"/><stop stop-color="#3D8DB8" offset="100%"/></linearGradient><linearGradient x1="83.957%" y1="57.253%" x2="58.807%" y2="45.569%" id="l"><stop stop-color="#2B617F" offset="0%"/><stop stop-color="#3D8DB8" offset="100%"/></linearGradient><linearGradient x1="37.24%" y1="49.403%" x2="85.409%" y2="58.264%" id="m"><stop stop-color="#2B617F" offset="0%"/><stop stop-color="#3D8DB8" offset="100%"/></linearGradient><path id="n" d="M0 0l19.438 75.526h47.329L44.949 338.244h-25.51L0 414.384h200.425v-76.14h-33.597V104.359l81.175 310.025h95.13l80.903-310.025v233.885h-31.428v76.14h198.28l-17.522-76.14h-25.6L525.948 75.526h47.418L590.887 0H351.162l-55.718 207.192L242.028 0z"/></defs><g fill="none" fill-rule="evenodd"><path d="M.364.182l19.438 75.526H67.13L45.312 338.425h-25.51L.364 414.565h200.424v-76.14h-33.596V104.54l81.174 310.025h95.131L424.4 104.54v233.885h-31.427v76.14H591.25l-17.52-76.14h-25.6L526.312 75.708h47.418L591.25.182H351.527l-55.719 207.192L242.392.182z"/><path d="M295.852 198.807L349.853-2h244.144l-18.533 79.89h-46.782l21.456 258.354h25.329l18.525 80.503H390.79v-80.503h31.427V121.542l-77.034 295.205h-98.5l-77.31-295.26v214.757h33.597v80.503H-2.445l20.552-80.503h25.197L64.76 77.89H18.11L-2.45-2h246.533z"/><g transform="translate(.364 .182)"><mask id="b" fill="#fff"><use xlink:href="#a"/></mask><g fill-rule="nonzero" mask="url(#b)"><path fill="url(#c)" d="M248.727 388.364h2616V1224h-2616z" transform="translate(-1230.545 -600)"/><path fill="url(#d)" d="M1591.875 560.727h827.761v451.637h-941.463z" transform="translate(-1230.545 -600)"/><path fill="url(#e)" d="M1607.17 398.556L2564.49 425v842.636l-1173.154-14.028z" transform="translate(-1230.545 -600)"/><path fill="url(#f)" transform="matrix(-1 0 0 1 1266.179 -600)" d="M538.581 52.543h1457.783L1977.213 1231H500.36z"/><path fill="url(#g)" d="M1733.37 1.815h716.139l-35.319 988.73-898.679-187.278z" transform="translate(-1230.545 -600)"/><path fill="url(#h)" d="M1963.884 89.455h788.488v602.181H1810.91z" transform="translate(-1230.545 -600)"/><path fill="url(#i)" transform="matrix(-1 0 0 1 317.463 -600)" d="M456.247 98.182h788.489v602.182H303.273z"/><path fill="url(#j)" d="M1729.14 687.273h1194.496v665.454H1498.91z" transform="translate(-1230.545 -600)"/><path fill="url(#k)" d="M156.256 687.273h1137.562l-43.146 835.636L0 1442.778z" transform="translate(-1230.545 -600)"/><path fill="url(#l)" d="M1656.6 738.52l101.417 222.204 56.642-23.57 169.5 722.391-571.521 15.657z" transform="translate(-1230.545 -600)"/><path fill="url(#m)" transform="matrix(-1 0 0 1 1424.259 -600)" d="M1257.469 726.545l103.951 234.18 52.142-26.694 204.047 755.097-580.414-59.762z"/></g></g><g transform="translate(.364 .182)"><mask id="o" fill="#fff"><use xlink:href="#n"/></mask><path mask="url(#o)" d="M295.555 185.774L346.98-5.455h250.772L577.7 80.981h-45.827l20.913 251.808h24.921l20.031 87.05H387.153v-87.05h31.428V146.863l-71.234 272.975H243.793l-71.51-273.113V332.79h33.596v87.05H-7.022l22.223-87.05H39.93L60.84 80.981H15.21L-7.036-5.455h253.291z"/></g></g></svg>