<svg xmlns="http://www.w3.org/2000/svg"><defs><font id="simplo_w00_regularregular" horiz-adv-x="1062"><font-face units-per-em="2048" ascent="1558" descent="-490"/><glyph horiz-adv-x="2048"/><glyph horiz-adv-x="2048"/><glyph horiz-adv-x="2048"/><glyph horiz-adv-x="583"/><glyph horiz-adv-x="583"/><glyph horiz-adv-x="583"/><glyph unicode="!" horiz-adv-x="521" d="M157 87q0 44 31 75t75 31 75-31 31-75-31-75.5T263-20t-75 31.5T157 87zm30 245v1044h151V332H187z"/><glyph unicode="&quot;" horiz-adv-x="672" d="M116 1534h162l-17-497H135zm287 0h161l-17-497H421z"/><glyph unicode="#" horiz-adv-x="1118" d="M84 409v127h210l43 306H135v127h219l56 407h130l-56-407h250l57 407h130l-57-407h176V842H847l-43-306h181V409H786L729 0H599l57 409H406L348 0H218l57 409H84zm340 127h251l41 306H466z"/><glyph unicode="$" horiz-adv-x="927" d="M65 226l119 82q53-93 123-139.5T480 122q89 0 155.5 56.5T702 321q0 68-32 127t-83 103-112.5 86.5-123.5 88-113 96-83 121-32 153.5q0 113 75.5 195.5T389 1391v193h135v-197q141-27 259-169l-105-84q-117 126-221 126-77 0-130-43.5T274 1088q0-57 32-109t83.5-94T503 800.5t124.5-89 114-98 83.5-121T857 343q0-148-88.5-246.5T529-17v-191H391v196Q172 24 65 226z"/><glyph unicode="%" horiz-adv-x="1584" d="M74 992q0 103 33 191t101 145.5 159 57.5 159-57.5T626.5 1183 659 992q0-61-11-120t-34.5-113-57.5-95-82.5-65T367 575q-72 0-129.5 36.5t-92.5 97T92 842 74 992zm116 0q0-54 9.5-106t29-100.5T284 707t83-30 83 30 55 78.5T533.5 886t9.5 106q0 68-16.5 131.5t-58 112T367 1284q-45 0-80.5-27.5t-55.5-72-30.5-94T190 992zM315-39l821 1455h130L446-39H315zm607 446q0 102 32.5 190.5t100.5 146 159 57.5q90 0 158-57.5t101-146 33-190.5q0-61-11-120t-34.5-113-57.5-95-82.5-65T1214-10q-72 0-129.5 36.5t-92 97T940 257t-18 150zm115 0q0-54 9.5-106t29-100.5T1131 122t83-30 83 30 55.5 78.5 29 100.5 9.5 106q0 68-17 132t-59 112.5-101 48.5q-60 0-101.5-48.5T1054 539t-17-132z"/><glyph unicode="&amp;" horiz-adv-x="1220" d="M77 375q0 83 35 151.5T211.5 655 396 801q-149 171-149 305 0 131 84 210.5t215 79.5q125 0 213-77t88-202q0-51-18.5-98t-57-91-75-76-94.5-77l286-359 144 172 97-102-150-182L1220 0h-186L877 199Q687-20 477-20 309-20 193 92T77 375zm144 2q0-105 75.5-182T473 118q44 0 86.5 15t84 45.5 71.5 58 72 71.5L485 689q-65-45-105-75.5t-80.5-71-59.5-81-19-84.5zm170 741q0-44 26.5-92.5T516 884q39 28 67 51t58 53.5 45.5 63.5 15.5 67q0 69-46 109.5T543 1269q-64 0-108-43t-44-108z"/><glyph unicode="'" horiz-adv-x="386" d="M116 1534h162l-18-497H134z"/><glyph unicode="(" horiz-adv-x="592" d="M119 547q0 482 295 912h155q-292-450-292-912t292-905H414Q281-178 200 57t-81 490z"/><glyph unicode=")" horiz-adv-x="592" d="M24-358Q316 90 316 547q0 462-292 912h155q295-433 295-912 0-255-80.5-489.5T179-358H24z"/><glyph unicode="*" horiz-adv-x="780" d="M90 1007l189 109-188 108 55 98 191-110v219h112v-217l189 108 56-98-189-108 189-109-56-98-189 108V802H337v217L146 909z"/><glyph unicode="+" horiz-adv-x="1117" d="M71 507v144h414v416h148V651h415V507H633V89H485v418H71z"/><glyph unicode="," horiz-adv-x="452" d="M50-299l133 488h180L181-299H50z"/><glyph unicode="-" horiz-adv-x="750" d="M117 459v128h521V459H117z"/><glyph unicode="." horiz-adv-x="454" d="M124 87q0 44 31 75t75 31 75-31 31-75-31-75.5T230-20t-75 31.5T124 87z"/><glyph unicode="/" horiz-adv-x="753" d="M12-159l558 1583h151L163-159H12z"/><glyph unicode="0" horiz-adv-x="1247" d="M125 708q0 132 33.5 254.5t95 219.5 158 155.5T624 1396t212.5-58.5 158-155.5 95-219.5T1123 708q0-107-19-210.5T1044.5 300t-98-165T806 22 624-20 442 22 301.5 135t-98 165T144 497.5 125 708zm156 0q0-100 18.5-197.5t56.5-188T463.5 176 624 120q74 0 134 37.5t98 97.5 64 139 37 157.5T968 708q0 73-12 147t-39 146.5-65.5 128.5-97.5 91-130 35q-88 0-156.5-52t-108-135.5-59-176T281 708z"/><glyph unicode="1" horiz-adv-x="643" d="M61 1237l78 139h291V0H276v1237H61z"/><glyph unicode="2" horiz-adv-x="1006" d="M61 0l575 707q117 145 117 279 0 110-79.5 190T484 1256q-109 0-180.5-66.5T205 1013H65q15 156 135.5 269.5T487 1396q125 0 222.5-57T858 1189.5 909 988q0-61-11-113t-34.5-97-43-74-53.5-72L374 139h535V0H61z"/><glyph unicode="3" horiz-adv-x="1072" d="M84 343h141q17-98 102-160.5T514 120q122 0 203 75t81 190q0 112-75.5 187.5T536 656v125q98 8 161 71t63 161q0 100-73 172t-173 72q-93 0-158.5-57T267 1054H126q15 141 129 241.5T514 1396q175 0 286-111t111-263q0-194-166-295 108-55 158.5-145T954 385q0-79-30.5-151.5t-86-129T698 14 514-20Q352-20 225.5 84T84 343z"/><glyph unicode="4" horiz-adv-x="1064" d="M18 263l810 1153V403h161V263H828V0H673v263H18zm274 140h381v551z"/><glyph unicode="5" horiz-adv-x="1045" d="M30 219l116 81q46-85 127-132.5T445 120q144 0 244.5 100.5T790 465 689.5 709.5 445 810q-164 0-272-93l190 659h562v-139H484l-83-291q30 5 44 5 214 0 356.5-137.5T944 465q0-210-141.5-347.5T445-20q-129 0-239 63T30 219z"/><glyph unicode="6" horiz-adv-x="1138" d="M93 465q0 167 116 317l460 594h180L513 944q26 6 59 6 97 0 186-38.5T911 808t102-155 38-188-38-188-102-155T758 18.5 572-20q-197 0-338 142.5T93 465zm155 0q0-137 94-241t230-104 230 102.5T896 465q0 138-93.5 241.5T572 810q-136 0-230-102.5T248 465z"/><glyph unicode="7" horiz-adv-x="1111" d="M62 1237v139h1042L266 0H87l749 1237H62z"/><glyph unicode="8" horiz-adv-x="1089" d="M112 385q0 102 53.5 191.5T325 726q-88 54-130.5 132T152 1022q0 161 110.5 267.5T542 1396t279.5-106.5T932 1022q0-85-43-163T759 726q104-55 158.5-147.5T972 385q0-169-122.5-287T542-20Q356-20 234 97.5T112 385zm155 0q0-110 80-187.5T542 120q116 0 195.5 77.5T817 385t-79.5 186.5T542 648t-195.5-76.5T267 385zm35 641q0-99 70.5-168.5T542 788q100 0 170 69.5t70 168.5q0 97-71 167t-169 70-169-70-71-167z"/><glyph unicode="9" horiz-adv-x="1136" d="M89 911q0 98 38 188t102 155 153 103.5 186 38.5q197 0 338.5-142.5T1048 911q0-167-116-317L472 0H291l336 433q-30-7-59-7-97 0-186 38.5T229 568 127 723 89 911zm155 0q0-138 93.5-241T568 567q136 0 230 102t94 242q0 137-94 241t-230 104-230-102.5T244 911z"/><glyph unicode=":" horiz-adv-x="462" d="M128 87q0 44 31.5 75t75.5 31 75-31 31-75-31-75.5T235-20t-75.5 31.5T128 87zm0 672q0 43 32 74.5t75 31.5q44 0 75-31.5t31-74.5q0-44-31-75t-75-31-75.5 31-31.5 75z"/><glyph unicode=";" horiz-adv-x="482" d="M41-299l134 488h179L172-299H41zM160 759q0 43 31.5 74.5T267 865t75-31.5 31-74.5q0-44-31-75t-75-31-75.5 31-31.5 75z"/><glyph unicode="&lt;" horiz-adv-x="1178" d="M66 507v142l966 445V938L241 578l791-360V61z"/><glyph unicode="=" horiz-adv-x="1267" d="M146 299v144h977V299H146zm0 414v144h977V713H146z"/><glyph unicode="&gt;" horiz-adv-x="1182" d="M151 61v157l792 360-792 360v156l967-445V507z"/><glyph unicode="?" horiz-adv-x="893" d="M39 1029q3 98 58 183t144.5 134.5T432 1396q88 0 164.5-32t128-85 81-122.5T835 1012q0-61-18.5-111.5t-48.5-86-66-67-71.5-62.5-65.5-64.5-48.5-81.5T498 433V332H350v152q0 59 18.5 108.5t47.5 85 65 67 71.5 60.5 64.5 58.5 47.5 68T683 1014q0 98-73.5 170T432 1256q-103 0-171-66.5T179 1029H39zM318 87q0 44 31 75t75 31 75-31 31-75-31-75.5T424-20t-75 31.5T318 87z"/><glyph unicode="@" horiz-adv-x="1711" d="M108 452q0 199 93 355.5t250.5 240T801 1131q113 0 209-43t157-130.5 61-203.5V266q-161-113-367-113-150 0-250 80T511 450q0 132 90.5 207T841 732q142 0 238-102v56q0 144-69 226.5T801 995q-155 0-278-65.5t-194.5-190T257 452q0-164 77-301.5T550-68t311-81q173 0 312 81t216 218 77 302q0 114-36 210l136 56q50-121 50-266 0-202-99.5-371t-273-267.5T861-285t-382 98.5T207 81t-99 371zm553-4q0-77 59-119t154-42q100 0 205 56v124q-73 130-241 130-74 0-125.5-41T661 448z"/><glyph unicode="A" horiz-adv-x="1212" d="M-5 0l639 1416L1216 0h-166l-99 240H273L165 0H-5zm342 380h556l-266 651z"/><glyph unicode="B" horiz-adv-x="1135" d="M192 0v1376h339q119 0 215-40.5t153.5-121T957 1028q0-186-163-291 120-55 180.5-150.5T1035 379q0-172-133.5-275.5T570 0H192zm155 140h223q131 0 221 65t90 189q0 82-44 141t-111.5 86.5T575 649H347V140zm0 648h189q112 0 189 57.5t77 167.5q0 111-78 167t-193 56H347V788z"/><glyph unicode="C" horiz-adv-x="1406" d="M105 688q0 144 56 275t151.5 226 227 151 275.5 56q152 0 289.5-61t236.5-169l-110-94q-79 83-188 130.5T815 1250q-151 0-279-75.5t-202-205T260 688t74-281 202-204.5T815 127q123 0 234.5 49.5T1239 313l102-102q-99-109-235.5-170T815-20q-193 0-356.5 95T200 333t-95 355z"/><glyph unicode="D" horiz-adv-x="1397" d="M192 0v1376h294q226 0 407-81.5t289-239.5 108-367q0-141-53-267.5T1090.5 201t-230-147T565 0H192zm155 140h221q161 0 291 73t202.5 198.5T1134 688q0 127-50 231.5t-137 173-204 106-253 37.5H347V140z"/><glyph unicode="E" horiz-adv-x="959" d="M192 0v1376h662v-140H347V810h428V670H347V140h541V0H192z"/><glyph unicode="F" horiz-adv-x="892" d="M192 0v1376h662v-140H347V810h428V670H347V0H192z"/><glyph unicode="G" horiz-adv-x="1544" d="M98 688q0 144 56 275t151 226 226 151 275 56q175 0 326.5-79.5T1383 1100l-112-93q-77 112-200 177.5T806 1250q-150 0-277.5-75.5T327.5 970 254 688t73.5-282 201-204T806 127q180 0 310.5 90.5T1278 468H829v140h641q-6-176-91-319T1143.5 63 806-20q-144 0-275 56T305 187 154 413 98 688z"/><glyph unicode="H" horiz-adv-x="1405" d="M192 0v1376h155V810h710v566h155V0h-155v670H347V0H192z"/><glyph unicode="I" horiz-adv-x="534" d="M192 0v1376h155V0H192z"/><glyph unicode="J" horiz-adv-x="801" d="M8 37l63 126q75-43 145-43 250 0 250 341v915h155V425q0-95-23-172t-61.5-127-91-83.5T336-5.5 216-20Q112-20 8 37z"/><glyph unicode="K" horiz-adv-x="1203" d="M192 0v1376h155V790l591 586h214L503 730 1205 0H989L347 667V0H192z"/><glyph unicode="L" horiz-adv-x="798" d="M192 0v1376h155V140h440V0H192z"/><glyph unicode="M" horiz-adv-x="1600" d="M38 0l333 1416L798 337l427 1079L1559 0h-160l-217 936L798-39 414 936 197 0H38z"/><glyph unicode="N" horiz-adv-x="1604" d="M192 0v1416L1254 331v1045h154V-39L347 1046V0H192z"/><glyph unicode="O" horiz-adv-x="1628" d="M105 688q0 144 56 275t151 226 225.5 151 274.5 56q192 0 355-95t257.5-258 94.5-355-94.5-355T1167 75 812-20q-144 0-274.5 56T312 187 161 413t-56 275zm155 0q0-152 74-281t201-204.5T812 127t277 75.5T1290 407t74 281-73.5 281.5-201 205T812 1250t-277-75.5-201-205T260 688z"/><glyph unicode="P" horiz-adv-x="1004" d="M192 0v1376h353q180 0 301-107.5T967 981q0-179-120.5-286.5T546 587H347V0H192zm155 727h180q122 0 203.5 64.5T812 981q0 126-82 190.5T525 1236H347V727z"/><glyph unicode="Q" horiz-adv-x="1657" d="M107 688q0 144 56 275t151 226 225.5 151 274.5 56q192 0 355-95t257.5-258 94.5-355q0-150-59.5-283.5T1296 173q111-53 225-53V-20q-181 0-351 96-165-96-356-96-144 0-274.5 56T314 187 163 413t-56 275zm155 0q0-152 74-281t201-204.5T814 127q113 0 212 44-80 51-145 77.5T737 275v140q54 0 105.5-9.5t86-20.5 81.5-36 67-38 67-45l18-12q96 79 150 191.5t54 242.5q0 152-73.5 281.5t-201 205T814 1250t-277-75.5-201-205T262 688z"/><glyph unicode="R" horiz-adv-x="1061" d="M192 0v1376h352q181 0 302-101.5T967 1002q0-121-65-214.5T722 651L977 0H806L563 627H347V0H192zm155 767h197q114 0 191 59t77 176-77 175.5-191 58.5H347V767z"/><glyph unicode="S" horiz-adv-x="945" d="M73 231l122 71q51-90 122-135t173-45q89 0 155.5 56.5T712 321q0 68-32 127t-83 103-112.5 86.5-123.5 88-113 96-83 121-32 153.5q0 127 94 213.5t228 86.5q191 0 339-178l-106-84q-117 126-221 126-77 0-130-43.5T284 1088q0-57 32-109t83.5-94T513 800.5t124.5-89 114-98 83.5-121T867 343q0-161-103.5-262T487-20Q204-20 73 231z"/><glyph unicode="T" horiz-adv-x="865" d="M14 1236v140h842v-140H512V0H358v1236H14z"/><glyph unicode="U" horiz-adv-x="1406" d="M182 512v864h155V562q0-95 16-169t46.5-121 67-78.5 87-47T649 125t102-6q165 0 315 95v1162h155V128Q1121 59 997.5 19.5T751-20Q649-20 569.5-7T415 41t-124.5 93.5-79 154T182 512z"/><glyph unicode="V" horiz-adv-x="1174" d="M-4 1376h167L600 354l416 1022h167L600-39z"/><glyph unicode="W" horiz-adv-x="2055" d="M15 1376h167L614 357l416 1059 430-1057 411 1017h167L1459-39l-429 1055L616-39z"/><glyph unicode="X" horiz-adv-x="1061" d="M-5 0l446 725-400 651h181l310-503 309 503h183L622 725 1069 0H887L532 579 176 0H-5z"/><glyph unicode="Y" horiz-adv-x="1035" d="M-7 1376h181l346-561 344 561h181L597 646V0H442v646z"/><glyph unicode="Z" horiz-adv-x="965" d="M29 0l648 1236H87v140h838L278 140h648V0H29z"/><glyph unicode="[" horiz-adv-x="574" d="M172-344v1789h371v-134H318V-210h225v-134H172z"/><glyph unicode="\" horiz-adv-x="757" d="M36 1424h151L745-159H594z"/><glyph unicode="]" horiz-adv-x="574" d="M31-210h226v1521H31v134h371V-344H31v134z"/><glyph unicode="^" horiz-adv-x="942" d="M66 635l332 741h153l330-741H734l-260 581-261-581H66z"/><glyph unicode="_" horiz-adv-x="1058" d="M10-179h1038v-102H10v102z"/><glyph unicode="`" horiz-adv-x="451" d="M16 1411h189l177-290H254z"/><glyph unicode="a" horiz-adv-x="953" d="M79 286q0 136 92.5 212.5T417 575q150 0 247-104v40q0 67-16.5 111.5t-50 67-73 31T429 729q-100 0-199-43l-47 106q128 73 286 73 53 0 101-9.5t93-31.5 78-55 53-83.5T814 571V93Q650-20 438-20q-153 0-256 83T79 286zm150-2q0-79 62.5-123.5T450 116q106 0 214 57v132q-76 133-250 133-77 0-131-42.5T229 284z"/><glyph unicode="b" horiz-adv-x="1076" d="M150 93v1441h149V771q125 94 266 94 187 0 302.5-121T983 435q0-207-120-331T520-20Q314-20 150 93zm149 81q110-58 220-58 145 0 229 84.5T832 433q0 133-82 214.5T543 729q-142 0-244-122V174z"/><glyph unicode="c" horiz-adv-x="916" d="M92 423q0 184 129 313t311 129q179 0 304-125l-104-88q-83 77-200 77-120 0-205-90t-85-216 85-216.5T532 116q137 0 226 106l108-84Q805 64 718 22T532-20q-182 0-311 129.5T92 423z"/><glyph unicode="d" horiz-adv-x="1077" d="M97 435q0 188 115.5 309T515 865q140 0 265-94v763h149V93Q765-20 559-20q-224 0-343 124T97 435zm149-2q0-148 84.5-232.5T560 116q110 0 220 58v433Q678 729 536 729q-126 0-208-82t-82-214z"/><glyph unicode="e" horiz-adv-x="983" d="M96 423q0 194 116 318t287 124q174 0 285-124.5T901 407H251q0-133 73.5-216T520 108q76 0 130.5 25.5T768 216l97-82Q792 59 710.5 19.5T520-20q-184 0-304 124T96 423zm164 99h482q-27 106-91 161.5T499 739t-153-57-86-160z"/><glyph unicode="f" horiz-adv-x="522" d="M144-466v1646q0 169 89 270t238 103v-135q-178-3-178-240V845h178V710H293V-466H144z"/><glyph unicode="g" horiz-adv-x="1078" d="M98 410q0 207 119 331t343 124q208 0 371-112V-72q0-198-107.5-306T519-486q-164 0-328 82l50 120q143-66 286-66 132 0 193 82t61 220V74Q656-20 517-20q-192 0-305.5 122.5T98 410zm151 3q0-133 82-215t207-82q142 0 243 122v434q-108 57-220 57-145 0-228.5-84T249 413z"/><glyph unicode="h" horiz-adv-x="1072" d="M151 0v1534h149V728q113 137 303 137 162 0 246.5-97T934 477V0H784v430q0 156-56 227.5T555 729q-115 0-185-76.5T300 436V0H151z"/><glyph unicode="i" horiz-adv-x="431" d="M133 1177v84q0 23 16.5 39t39.5 16h60q23 0 39-16t16-39v-84q0-23-16-39.5t-39-16.5h-60q-23 0-39.5 16.5T133 1177zM144 0v845h149V0H144z"/><glyph unicode="j" horiz-adv-x="430" d="M133 1178v83q0 23 16 39t39 16h60q23 0 39.5-16t16.5-39v-83q0-23-16.5-39.5T248 1122h-60q-23 0-39 16.5t-16 39.5zm10-1644V845h150V-466H143z"/><glyph unicode="k" horiz-adv-x="862" d="M149 0v1534h150V505l347 340h196L434 446 863 0H670L299 385V0H149z"/><glyph unicode="l" horiz-adv-x="444" d="M151 0v1534h150V0H151z"/><glyph unicode="m" horiz-adv-x="1583" d="M151 0v845h149V732q104 133 273 133 197 0 265-171 123 171 304 171 146 0 222-93.5t76-281.5V0h-150v430q0 156-47.5 227.5T1096 729q-103 0-164.5-77T870 428V0H720v430q0 156-48 227.5T525 729q-103 0-164-77t-61-224V0H151z"/><glyph unicode="n" horiz-adv-x="1072" d="M151 0v845h149V728q113 137 303 137 162 0 246.5-97T934 477V0H784v430q0 156-56 227.5T555 729q-115 0-185-76.5T300 436V0H151z"/><glyph unicode="o" d="M92 423q0 184 129 313t311 129 310.5-129T971 423 842.5 109.5 532-20 221 109.5 92 423zm150 0q0-126 85-216.5T532 116t204.5 90.5T821 423t-84.5 216T532 729t-205-90-85-216z"/><glyph unicode="p" horiz-adv-x="1077" d="M150-466V753q163 112 371 112 223 0 342.5-124T983 410q0-189-115-309.5T565-20q-140 0-265 94v-540H150zm150 704q101-122 244-122 125 0 207 82t82 215q0 148-84 232t-229 84q-112 0-220-57V238z"/><glyph unicode="q" horiz-adv-x="1078" d="M98 410q0 207 119 331t342 124q208 0 371-112V-466H781V74Q656-20 516-20q-188 0-303 120.5T98 410zm150 3q0-133 81.5-215T536 116q143 0 245 122v434q-108 57-220 57-145 0-229-84t-84-232z"/><glyph unicode="r" horiz-adv-x="682" d="M151 0v845h149V717q119 148 254 148 68 0 124-37l-68-125q-49 26-98 26-88 0-150-75.5T300 463V0H151z"/><glyph unicode="s" horiz-adv-x="721" d="M56 109l88 93q57-47 105-70.5T360 108q64 0 100 33.5t36 88.5q0 45-38 83.5t-92.5 70T257 450t-92 89-38 122q0 95 65.5 149.5T356 865q123 0 214-85l-76-92q-72 52-126 52-42 0-68.5-23.5T273 651q0-28 20.5-53t53.5-47 73-44.5 80-50.5 73-59.5 53.5-76.5 20.5-98q0-116-74.5-179T354-20Q185-20 56 109z"/><glyph unicode="t" horiz-adv-x="521" d="M144 0v1156h150V845h178V709H294V0H144z"/><glyph unicode="u" horiz-adv-x="1053" d="M143 376v469h149V416q0-89 20-150.5t57.5-93 79-44T545 116q100 0 210 58v671h149V93Q740-20 540-20q-65 0-119 9.5t-107.5 36T224 95t-58.5 114.5T143 376z"/><glyph unicode="v" horiz-adv-x="904" d="M17 845h154l283-579 283 579h153L454-39z"/><glyph unicode="w" horiz-adv-x="1462" d="M23 845h153l261-573 294 613 274-613 282 573h153L1005-39 731 571 438-39z"/><glyph unicode="x" horiz-adv-x="921" d="M14 0l362 466L77 845h175l211-269 207 269h175L549 466 915 0H740L463 355 188 0H14z"/><glyph unicode="y" horiz-adv-x="949" d="M18 845h157l301-594 300 594h157L270-466H112L398 98z"/><glyph unicode="z" horiz-adv-x="885" d="M28 0l529 710H122v135h708L300 136h533V0H28z"/><glyph unicode="{" horiz-adv-x="597" d="M66 485v133q82 1 124.5 53T233 802v376q0 72 21.5 125.5T314 1387t83 44 98 14h83v-129h-72q-128 0-128-164V793q0-106-44.5-165.5T230 552v-1q59-16 103.5-74.5T378 312V-50q0-75 31.5-120t96.5-45h72v-129h-87q-110 0-184 65.5T233-71v372q0 79-42.5 130.5T66 485z"/><glyph unicode="|" horiz-adv-x="477" d="M172-466v2000h139V-466H172z"/><glyph unicode="}" horiz-adv-x="597" d="M20-215h72q66 0 97 45t31 120v362q0 106 44 164.5T367 551v1q-59 16-103 75.5T220 793v359q0 164-128 164H20v129h83q53 0 98-14t82.5-44 59-83.5T364 1178V802q0-79 42.5-131T531 618V485q-82-2-124.5-53.5T364 301V-71q0-74-21.5-128.5t-59-85-81.5-45-95-14.5H20v129z"/><glyph unicode="~" horiz-adv-x="1230" d="M127 473q13 152 84.5 233T385 787q63 0 119-18.5t96.5-44.5 77-52.5 75-45T829 608q57 0 89.5 41.5T968 779h142q-13-152-84-232.5T853 466q-63 0-119 18.5T637.5 529t-77 52-75 44.5T409 644q-57 0-90.5-41.5T270 473H127z"/><glyph unicode="¡" horiz-adv-x="502" d="M148 949q0 44 31 75.5t75 31.5 75.5-31.5T361 949t-31.5-75-75.5-31-75 31-31 75zm32-1289V704h149V-340H180z"/><glyph unicode="¢" horiz-adv-x="903" d="M80 688q0 162 103 284.5T441 1123v159h136v-156q144-18 247-121l-104-88q-84 78-200 78-119 0-204.5-90.5T230 688t85.5-216T520 382q136 0 226 106l109-85Q745 273 577 250V94H441v159q-155 27-258 150T80 688z"/><glyph unicode="£" horiz-adv-x="1110" d="M96 0v95q117 113 168 221.5T315 517q0 26-5 58H137v127h138q-2 5-11 28.5t-11.5 31T242 790t-10.5 31.5-8.5 30-8.5 33-5.5 32-4 35.5-1 35q0 168 117 288.5T624 1396q168 0 290-113.5t137-269.5H909q-23 106-97 174.5T629 1256q-112 0-191-79.5T359 984q0-52 10-94.5T404.5 784t32.5-82h218V575H466q5-55 5-70 0-174-155-366h700V0H96z"/><glyph unicode="¤" horiz-adv-x="1218" d="M128 277l141 137q-81 107-81 245 0 140 82 249l-142 140 92 92 141-142q112 82 248 82 138 0 248-80l140 140 93-92-141-137q85-112 85-252 0-135-85-246l142-136-94-94-140 141q-114-82-248-82-141 0-250 82L220 183zm195 383q0-116 82.5-200.5T608 375q116 0 203 83t87 202q0 118-84 202.5T608 947q-117 0-201-83.5T323 660z"/><glyph unicode="¥" horiz-adv-x="1027" d="M43 1376h170l305-561 304 561h169L629 707h219V592H595V441h253V326H595V0H441v326H186v115h255v151H186v115h221z"/><glyph unicode="¦" horiz-adv-x="446" d="M157 340h139v-691H157v691zm0 388v691h139V728H157z"/><glyph unicode="§" horiz-adv-x="1020" d="M95 590q0 120 63 219.5T331 970q-155 122-155 283 0 124 98.5 212t236.5 88 234.5-94.5T847 1227H705q-4 81-55.5 136T517 1418q-86 0-138.5-52T326 1239q0-48 25.5-90t67-70.5T504 1031t90-29q143-34 238-148t95-264q0-120-63-219.5T692 211Q847 86 847-73q0-124-99-212t-237-88q-137 0-233.5 95T176-46h142q4-81 55-136t132-55q87 0 139.5 52T697-58q0 50-25.5 92.5T604 105t-85.5 46-90.5 28q-144 31-238.5 145.5T95 590zm151 0q0-118 75-200.5T511 307t191 82.5T778 590t-76 200.5T511 873t-190-82.5T246 590z"/><glyph unicode="¨" horiz-adv-x="744" d="M122 1252q0 40 28.5 68t68.5 28 67-27.5 27-68.5-27-68.5-67-27.5-68.5 28-28.5 68zm312 0q0 40 28 68t68 28 67.5-28 27.5-68-27.5-68-67.5-28-68 28-28 68z"/><glyph unicode="©" horiz-adv-x="1619" d="M101 690q0 145 55.5 276t150 225 226 149.5T809 1396q194 0 356.5-94t256.5-256.5 94-355.5q0-194-94-357T1165.5 75 809-20q-145 0-276.5 56t-226 151-150 226.5T101 690zm109 0q0-169 79.5-309t217-219.5T809 82q166 0 303.5 79.5T1329 381t79 309q0 167-79 306t-216.5 218.5T809 1294q-165 0-302.5-79.5T289.5 996 210 690zm241 0q0 112 40.5 208.5t126 160T819 1122q79 0 150.5-26t126-85 65.5-142h-121q-12 73-72 112.5T819 1021q-106 0-173-88t-67-243 64.5-242T819 361q83 0 145.5 46t75.5 124h121q-11-125-109-201t-233-76q-120 0-204.5 59t-124 155.5T451 690z"/><glyph unicode="ª" horiz-adv-x="728" d="M103 980q0 90 62 141t165 51q88 0 149-54v13q0 75-36 101.5T337 1259q-67 0-133-30l-35 80q88 50 194 50 97 0 164-47t67-146V853q-109-76-251-76-103 0-171.5 55T103 980zm115-1q0-48 37.5-75t95.5-27q67 0 129 34v81q-47 80-152 80-46 0-78-25.5T218 979z"/><glyph unicode="«" horiz-adv-x="942" d="M53 439l279 396h153L231 439 485 44H332zm373 0l279 396h153L604 439 858 44H705z"/><glyph unicode="¬" horiz-adv-x="1250" d="M107 627v145h978V191H929v436H107z"/><glyph unicode="­" horiz-adv-x="750" d="M117 459v128h521V459H117z"/><glyph unicode="®" horiz-adv-x="1059" d="M99 963q0 180 126 306t307 126q180 0 305.5-126T963 963 837.5 656.5 532 530q-181 0-307 126.5T99 963zm80 0q0-151 102-254t251-103 250.5 103T884 963q0 150-102 253t-250 103q-149 0-251-103T179 963zm185-242v501h178q195 0 195-145 0-111-104-137l107-219h-95L545 928h-95V721h-86zm86 278h83q62 0 90.5 19t28.5 59q0 41-29 57.5t-93 16.5h-80V999z"/><glyph unicode="¯" horiz-adv-x="821" d="M136 1192v113h552v-113H136z"/><glyph unicode="°" horiz-adv-x="750" d="M97 1116q0 116 82 198t198 82q115 0 197.5-82t82.5-198-82.5-198T377 836q-116 0-198 82t-82 198zm103 0q0-74 52-125.5T377 939t125 51.5 52 125.5-52 125.5-125 51.5-125-51.5-52-125.5z"/><glyph unicode="±" horiz-adv-x="1215" d="M119 12v143h978V12H119zm0 633v140h413v360h153V785h412V645H685V280H532v365H119z"/><glyph unicode="²" horiz-adv-x="609" d="M37 808l336 413q62 77 62 147 0 56-40 97t-95 41-92-37-51-98H51q9 96 80.5 166.5T302 1608q110 0 179.5-70.5T551 1369q0-64-21.5-110.5T469 1164L266 910h285V808H37z"/><glyph unicode="³" horiz-adv-x="634" d="M49 1024h107q10-54 53-88.5t95-34.5q62 0 103 38t41 96q0 57-42 96.5T302 1175v93q55 4 90 35.5t35 81.5-36.5 87-86.5 37q-46 0-79-32t-46-82H73q9 89 76.5 152t154.5 63q104 0 170-65t66-154q0-106-83-164 106-63 106-192 0-96-71-166t-188-70q-96 0-171 64.5T49 1024z"/><glyph unicode="´" horiz-adv-x="452" d="M75 1121l178 290h188l-239-290H75z"/><glyph unicode="µ" horiz-adv-x="1149" d="M185-466V845h130V362q0-112 56.5-183.5T533 107q131 0 203.5 117.5T809 532v313h131V348q0-51 1-78t5.5-64.5T960 148t26-39 43-27V-20q-53 0-91.5 18.5t-61 53.5-35 72-19.5 86h-1Q781 101 704.5 40.5T533-20q-66 0-118.5 25.5T314 87v-553H185z"/><glyph unicode="¶" horiz-adv-x="1220" d="M48 974q0 198 127 300t353 102h502V-303H900v1567H630V-303H500v887q-133 1-237 54T103.5 779 48 974z"/><glyph unicode="·" horiz-adv-x="460" d="M127 564q0 44 31.5 75t74.5 31q44 0 75.5-31t31.5-75-31.5-75-75.5-31q-43 0-74.5 31T127 564z"/><glyph unicode="¸" horiz-adv-x="445" d="M28-366l29 77q58-28 115-28 37 0 63.5 15.5T262-250q0 45-54.5 67.5T97-160L192 0h103l-67-104q63-2 108.5-39t45.5-98q0-81-60.5-120.5T171-401q-81 0-143 35z"/><glyph unicode="¹" horiz-adv-x="423" d="M40 1497l57 102h186V810H168v687H40z"/><glyph unicode="º" horiz-adv-x="778" d="M99 1069q0 120 85.5 205t206.5 85q120 0 206-85t86-205q0-121-86-206.5T391 777q-121 0-206.5 85.5T99 1069zm114 0q0-79 52.5-135.5T391 877q72 0 124.5 56.5T568 1069q0 78-52.5 134T391 1259q-74 0-126-55.5T213 1069z"/><glyph unicode="»" horiz-adv-x="944" d="M90 44l255 395L90 835h153l280-396L243 44H90zm373 0l254 395-254 396h153l280-396L616 44H463z"/><glyph unicode="¼" horiz-adv-x="1298" d="M48 1273l56 102h187V586H175v687H48zM166-39l820 1455h130L296-39H166zm498 174l473 670V233h86v-98h-86V-6h-111v141H664zm195 98h167v241z"/><glyph unicode="½" horiz-adv-x="1469" d="M48 1273l57 102h186V586H176v687H48zM166-39l820 1455h131L297-39H166zM874-1l336 413q61 76 61 148 0 57-39.5 97t-95.5 40q-55 0-91-36.5T993 563H887q8 96 80 166t171 70q111 0 180-69.5t69-168.5q0-65-21.5-111.5T1305 355l-203-254h285V-1H874z"/><glyph unicode="¾" horiz-adv-x="1465" d="M57 800h107q9-54 52.5-88.5T312 677q63 0 103.5 38t40.5 97q0 57-42.5 96T310 951v92q55 4 89.5 36t34.5 82q0 51-36 87t-86 36q-45 0-78.5-31.5T187 1172H80q9 88 77.5 151t154.5 63q104 0 170-65.5t66-154.5q0-103-83-163 106-65 106-191 0-97-71-167t-188-70q-96 0-171 64.5T57 800zM337-39l820 1455h131L468-39H337zm499 174l472 670V233h86v-98h-86V-6h-111v141H836zm194 98h167v241z"/><glyph unicode="¿" horiz-adv-x="869" d="M50 24q0 61 18.5 111.5T117 221t66 66.5 72 62.5 66 65 48.5 82T388 603v101h147V553q0-59-18.5-108.5t-47.5-85-65-67.5-71.5-60.5T268 173t-47.5-68.5T202 22q0-99 73.5-170.5T453-220q103 0 171 67T706 8h141q-8-151-123-259.5T453-360q-88 0-164.5 32t-128 85-81 122.5T50 24zm305 925q0 44 31 75.5t75 31.5 75.5-31.5T568 949t-31.5-75-75.5-31-75 31-31 75z"/><glyph unicode="À" horiz-adv-x="1212" d="M-5 0l639 1416L1216 0h-166l-99 240H273L165 0H-5zm323 1735h202l190-234H573zm19-1355h556l-266 651z"/><glyph unicode="Á" horiz-adv-x="1212" d="M-5 0l639 1416L1216 0h-166l-99 240H273L165 0H-5zm342 380h556l-266 651zm220 1116l191 235h201l-255-235H557z"/><glyph unicode="Â" horiz-adv-x="1212" d="M-5 0l639 1416L1216 0h-166l-99 240H273L165 0H-5zm342 380h556l-266 651zm24 1116l208 236h130l210-236H769l-134 154-137-154H361z"/><glyph unicode="Ã" horiz-adv-x="1212" d="M-5 0l639 1416L1216 0h-166l-99 240H273L165 0H-5zm342 380h556l-266 651zm49 1136q9 93 51 144t95 51q38 0 68-15t45-33 33.5-33 37.5-15q50 0 64 91h97q-9-94-50-144t-95-50q-38 0-68 15t-45 33-34 33-38 15q-49 0-63-92h-98z"/><glyph unicode="Ä" horiz-adv-x="1212" d="M-5 0l639 1416L1216 0h-166l-99 240H273L165 0H-5zm342 380h556l-266 651zm44 1228q0 40 28.5 68t69.5 28q40 0 67-27.5t27-68.5-27-68-67-27q-41 0-69.5 27.5T381 1608zm311 0q0 40 28.5 68t68.5 28 67.5-27.5T884 1608t-27.5-68.5T789 1512t-68.5 28-28.5 68z"/><glyph unicode="Å" horiz-adv-x="1212" d="M-5 0l639 1416L1216 0h-166l-99 240H273L165 0H-5zm342 380h556l-266 651zm100 1291q0 81 57 138.5t138 57.5 138.5-57.5T828 1671t-57.5-138-138.5-57-138 57-57 138zm82 0q0-47 33.5-80t79.5-33q47 0 80.5 33t33.5 80-33.5 80-80.5 33q-46 0-79.5-33t-33.5-80z"/><glyph unicode="Æ" horiz-adv-x="1629" d="M-12 0l868 1376h668v-140h-506V810h428V670h-428V140h540V0H863v240H320L169 0H-12zm421 380h454v725z"/><glyph unicode="Ç" horiz-adv-x="1406" d="M105 688q0 144 56 275t151.5 226 227 151 275.5 56q153 0 290-61t236-169l-110-94q-79 83-187.5 130.5T815 1250q-113 0-216-44.5t-177-120T304 906t-44-218q0-152 74-281t202-204.5T815 127q123 0 234.5 49.5T1239 313l102-102q-93-100-216-160T863-18l-49-77q63-2 108-39t45-97q0-81-59.5-120.5T758-391q-82 0-144 35l29 77q58-28 115-28 37 0 63.5 15.5T848-240q0 45-54.5 68T683-149l78 132Q625-7 504 52.5T295 205 156 424t-51 264z"/><glyph unicode="È" horiz-adv-x="959" d="M192 0v1376h661v-139H347V810h428V670H347V140h540V0H192zm72 1735h202l190-234H520z"/><glyph unicode="É" horiz-adv-x="959" d="M192 0v1376h662v-140H347V810h428V670H347V140h541V0H192zm225 1496l191 235h201l-255-235H417z"/><glyph unicode="Ê" horiz-adv-x="959" d="M192 0v1376h662v-139H347V810h428V670H347V140h541V0H192zm74 1496l208 236h131l210-236H675l-134 154-138-154H266z"/><glyph unicode="Ë" horiz-adv-x="959" d="M192 0v1376h661v-140H347V810h428V670H347V140h540V0H192zm82 1610q0 40 28.5 68t69.5 28q40 0 67-27.5t27-68.5-27-68-67-27q-41 0-69.5 27.5T274 1610zm312 0q0 40 28 68t68 28 67.5-27.5T777 1610t-27.5-68.5T682 1514t-68 28-28 68z"/><glyph unicode="Ì" horiz-adv-x="534" d="M-49 1735h203l189-234H207zM192 0v1376h155V0H192z"/><glyph unicode="Í" horiz-adv-x="534" d="M192 0v1376h155V0H192zm6 1496l190 235h202l-255-235H198z"/><glyph unicode="Î" horiz-adv-x="533" d="M-4 1496l207 236h131l210-236H404l-134 154-138-154H-4zM192 0v1376h155V0H192z"/><glyph unicode="Ï" horiz-adv-x="534" d="M18 1610q0 40 28.5 68t69.5 28q40 0 67-27.5t27-68.5-27-68-67-27q-41 0-69.5 27.5T18 1610zM192 0v1376h155V0H192zm138 1610q0 40 28 68t68 28 67.5-28 27.5-68-27.5-68-67.5-28-68 28-28 68z"/><glyph unicode="Ñ" horiz-adv-x="1604" d="M192 0v1416L1254 331v1045h154V-39L347 1046V0H192zm363 1555q9 93 50.5 144.5T700 1751q38 0 68-15t45-33.5 33.5-33.5 37.5-15q51 0 65 92h96q-9-93-50.5-144t-94.5-51q-31 0-56 10t-41 24-29 28-27.5 24-30.5 10q-50 0-64-92h-97z"/><glyph unicode="Ò" horiz-adv-x="1628" d="M105 688q0 192 94.5 355T457 1301t355 95q144 0 275-56t226-151 151-226 56-275-56-275-151-226-226-151-275-56q-192 0-355 95T199.5 333 105 688zm155 0q0-152 74-281t201-204.5T812 127q112 0 214.5 44.5T1203 291t118 179 44 218q0 152-74 281.5t-201.5 205T812 1250t-277-75.5-201-205T260 688zm264 1048h202l190-234H779z"/><glyph unicode="Ó" horiz-adv-x="1628" d="M105 688q0 192 94.5 355T457 1301t355 95q144 0 275-56t226-151 151-226 56-275-56-275-151-226-226-151-275-56q-192 0-355 95T199.5 333 105 688zm155 0q0-152 74-281t201-204.5T812 127q112 0 214.5 44.5T1203 291t118 179 44 218q0 152-74 281.5t-201.5 205T812 1250t-277-75.5-201-205T260 688zm463 809l190 235h202l-255-235H723z"/><glyph unicode="Ô" horiz-adv-x="1628" d="M105 688q0 192 94.5 355T457 1301t355 95q144 0 275-56t226-151 151-226 56-275-56-275-151-226-226-151-275-56q-192 0-355 95T199.5 333 105 688zm155 0q0-152 74-281t201-204.5T812 127q112 0 214.5 44.5T1203 291t118 179 44 218q0 152-74 281.5t-201.5 205T812 1250t-277-75.5-201-205T260 688zm278 809l208 236h130l210-236H947l-135 154-137-154H538z"/><glyph unicode="Õ" horiz-adv-x="1628" d="M105 688q0 192 94.5 355T457 1301t355 95q144 0 275-56t226-151 151-226 56-275-56-275-151-226-226-151-275-56q-192 0-355 95T199.5 333 105 688zm155 0q0-152 74-281t201-204.5T812 127q112 0 214.5 44.5T1203 291t118 179 44 218q0 152-74 281.5t-201.5 205T812 1250t-277-75.5-201-205T260 688zm307 827q9 93 50.5 144t94.5 51q31 0 56-10t41-24 29-28 27.5-24 30.5-10q50 0 64 92h97q-9-93-50.5-144.5T912 1510q-31 0-56 10t-41 24-29 28.5-27.5 24.5-30.5 10q-50 0-64-92h-97z"/><glyph unicode="Ö" horiz-adv-x="1628" d="M105 688q0 192 94.5 355T457 1301t355 95q144 0 275-56t226-151 151-226 56-275-56-275-151-226-226-151-275-56q-192 0-355 95T199.5 333 105 688zm155 0q0-152 74-281t201-204.5T812 127q112 0 214.5 44.5T1203 291t118 179 44 218q0 152-74 281.5t-201.5 205T812 1250t-277-75.5-201-205T260 688zm301 921q0 40 28.5 68t68.5 28 67-27.5 27-68.5-27-68-67-27-68.5 27.5T561 1609zm312 0q0 41 27.5 68.5T968 1705t68-27.5 28-68.5-28-68.5-68-27.5-67.5 27.5T873 1609z"/><glyph unicode="×" d="M95 243l335 335L95 913l105 103 334-334 334 334 102-102-333-335 334-334-103-106-335 337-336-337z"/><glyph unicode="Ø" horiz-adv-x="1628" d="M105 688q0 144 56 275t150.5 226T537 1340t275 56q218 0 401-126l152 184 93-81-150-181q100-98 156-228.5t56-275.5q0-144-56-275t-151-226-226-151-275-56q-218 0-400 126L259-78 167 2l149 182q-100 98-155.5 228T105 688zm154 0q0-225 152-387l708 854q-137 95-307 95-151 0-278.5-75.5T332.5 970 259 688zm246-467q138-96 307-96 150 0 277.5 75.5t201.5 205 74 282.5q0 221-151 387z"/><glyph unicode="Ù" horiz-adv-x="1405" d="M182 512v864h154V562q0-82 12.5-148T382 302.5t53.5-79.5 66-53.5 78-31T663 123t87-4q166 0 316 95v1162h154V128Q1120 59 997 19.5T750-20Q649-20 569.5-7T415 41t-124.5 93-79 154T182 512zm243 1223h202l190-234H681z"/><glyph unicode="Ú" horiz-adv-x="1405" d="M182 512v864h154V562q0-82 12.5-148T382 302.5t53.5-79.5 66-53.5 78-31T663 123t87-4q166 0 316 95v1162h154V128Q1120 59 997 19.5T750-20Q649-20 569.5-7T415 41t-124.5 93-79 154T182 512zm414 984l190 235h202l-256-235H596z"/><glyph unicode="Û" horiz-adv-x="1405" d="M182 512v864h154V562q0-82 12.5-148T382 302.5t53.5-79.5 66-53.5 78-31T663 123t87-4q166 0 316 95v1162h154V128Q1120 59 997 19.5T750-20Q649-20 569.5-7T415 41t-124.5 93-79 154T182 512zm256 984l208 236h130l210-236H847l-135 154-137-154H438z"/><glyph unicode="Ü" horiz-adv-x="1406" d="M182 512v864h155V562q0-95 16-169t46.5-121 67-78.5 87-47T649 125t102-6q166 0 316 95v1162h154V128Q1121 59 997.5 19.5T751-20q-84 0-152 9T464 20 347.5 81.5t-87.5 97T202 320t-20 192zm268 1098q0 40 28.5 68t68.5 28 67-27.5 27-68.5-27-68-67-27-68.5 27.5T450 1610zm312 0q0 40 28 68t68 28 67.5-27.5T953 1610t-27.5-68.5T858 1514t-68 28-28 68z"/><glyph unicode="Ý" horiz-adv-x="1035" d="M-7 1376h181l346-561 344 561h181L597 646V0H442v646zm424 114l190 235h202l-256-235H417z"/><glyph unicode="ß" horiz-adv-x="1085" d="M151 0v1106q0 204 108.5 325.5T541 1553q166 0 279-106t113-257q0-75-28.5-136t-69-100.5-81-74-69-73T657 727q0-34 21-66.5t54-60 73.5-56 80.5-61 73-68.5 54-85 21-104q0-115-74-180.5T745-20q-160 0-289 126l89 92q56-46 102.5-68T754 108t94 37 34 86-38.5 94.5-93 84.5-109 81.5-93 104.5T510 732q0 43 15 81t39 66.5 53 55.5l58 54 53 55 39 65.5 15 80.5q0 97-68.5 162.5T541 1418q-112 0-176.5-84T300 1102V0H151z"/><glyph unicode="à" horiz-adv-x="953" d="M79 286q0 136 92.5 212.5T417 575q150 0 247-104v40q0 67-16.5 111.5t-50 67-73 31T429 729q-100 0-199-43l-47 106q130 73 286 73 53 0 101-9.5t93-31.5 78-55 53-83.5T814 571V93Q650-20 438-20q-153 0-256 83T79 286zm131 984h188l178-290H448zm19-986q0-79 62.5-123.5T450 116q106 0 214 57v132q-76 133-250 133-77 0-131-42.5T229 284z"/><glyph unicode="á" horiz-adv-x="952" d="M79 286q0 136 92.5 212.5T417 575q150 0 247-104v40q0 67-16.5 111.5t-50 67-73 31T429 729q-101 0-200-43l-47 106q130 73 287 73 67 0 126-15.5T704.5 801t80-92T814 571V93Q650-20 438-20q-153 0-256 83T79 286zm150-2q0-79 62.5-123.5T450 116q106 0 214 57v132q-75 133-251 133-77 0-130.5-42.5T229 284zm139 696l178 290h188L496 980H368z"/><glyph unicode="â" horiz-adv-x="953" d="M79 286q0 136 92.5 212.5T417 575q150 0 247-104v40q0 67-16.5 111.5t-50 67-73 31T429 729q-100 0-199-43l-47 106q130 73 286 73 53 0 101-9.5t93-31.5 78-55 53-83.5T814 571V93Q650-20 438-20q-153 0-256 83T79 286zm148 693l192 291h124l196-291H609l-126 195-128-195H227zm2-695q0-79 62.5-123.5T450 116q106 0 214 57v132q-76 133-250 133-77 0-131-42.5T229 284z"/><glyph unicode="ã" horiz-adv-x="953" d="M79 286q0 136 92.5 212.5T417 575q150 0 247-104v40q0 67-16.5 111.5t-50 67-73 31T429 729q-100 0-199-43l-47 106q130 73 286 73 67 0 126-15.5T704.5 801t80-92T814 571V93Q650-20 438-20q-153 0-256 83T79 286zm151-2q0-79 62.5-123.5T451 116q106 0 213 57v132q-73 133-250 133-77 0-130.5-42.5T230 284zm0 729q9 98 50 151t95 53q38 0 67.5-16t45-34.5T522 1132t38-16q50 0 64 96h97q-9-98-50-150.5t-95-52.5q-31 0-56.5 10.5t-41.5 25-29 29-27.5 25T391 1109q-49 0-63-96h-98z"/><glyph unicode="ä" horiz-adv-x="953" d="M79 286q0 136 92.5 212.5T417 575q150 0 247-104v40q0 67-16.5 111.5t-50 67-73 31T429 729q-100 0-199-43l-47 106q130 73 286 73 67 0 126-15.5T704.5 801t80-92T814 571V93Q650-20 438-20q-153 0-256 83T79 286zm150-2q0-79 62.5-123.5T450 116q106 0 214 57v132q-73 133-250 133-77 0-131-42.5T229 284zm3 819q0 40 28.5 68t68.5 28 67-27.5 27-68.5-27-68-67-27-68.5 27.5T232 1103zm311 0q0 40 28 68t69 28q40 0 67.5-28t27.5-68-27.5-68-67.5-28q-41 0-69 28t-28 68z"/><glyph unicode="å" horiz-adv-x="953" d="M79 286q0 136 92.5 212.5T417 575q150 0 247-104v40q0 67-16.5 111.5t-50 67-73 31T429 729q-100 0-199-43l-47 106q128 73 286 73 53 0 101-9.5t93-31.5 78-55 53-83.5T814 571V93Q650-20 438-20q-153 0-256 83T79 286zm150-2q0-79 62.5-123.5T450 116q106 0 214 57v132q-76 133-250 133-77 0-131-42.5T229 284zm51 878q0 81 57.5 138t138.5 57 138-57 57-138-57-138-138-57-138.5 57-57.5 138zm83 0q0-46 33.5-79.5T476 1049q47 0 80 33t33 80-33 80-80 33q-46 0-79.5-33.5T363 1162z"/><glyph unicode="æ" horiz-adv-x="1545" d="M79 286q0 136 92.5 212.5T417 575q150 0 247-104v40q0 67-16.5 111.5t-50 67-73 31T429 729q-101 0-200-43l-47 106q130 73 287 73 216 0 298-136 113 136 294 136 173 0 284.5-124.5T1463 407H814q0-133 72.5-216t194.5-83q76 0 131.5 25t117.5 83l97-82q-73-75-155-114.5T1081-20Q905-20 788 97V76Q635-20 437-20q-153 0-255.5 83T79 286zm150-2q0-79 62.5-123.5T450 116q106 0 214 57v132q-73 133-251 133-77 0-130.5-42.5T229 284zm593 238h482q-27 106-91 161.5T1061 739t-153-57-86-160z"/><glyph unicode="ç" horiz-adv-x="915" d="M92 423q0 184 129 313t311 129q179 0 304-125l-104-88q-83 77-200 77-119 0-205-90t-86-216 86-216.5T532 116q136 0 226 106l108-84Q760 12 598-14l-52-81q63-2 108-39t45-97q0-81-59.5-120.5T490-391q-82 0-144 35l29 77q58-28 115-28 37 0 64 16t27 51q0 31-30.5 53T484-157t-69 8l78 131Q323-3 207.5 123.5T92 423z"/><glyph unicode="è" horiz-adv-x="983" d="M96 423q0 194 116 318t287 124q174 0 285-124.5T901 407H251q0-133 73.5-216T520 108q76 0 130.5 25.5T768 216l97-82Q792 58 710.5 19T520-20q-184 0-304 124T96 423zm164 99h482q-28 105-91.5 161.5T499 740q-87 0-152.5-57.5T260 522zm13 748h188l178-290H512z"/><glyph unicode="é" horiz-adv-x="983" d="M96 423q0 194 116 318t287 124q174 0 285-124.5T901 407H251q0-133 73.5-216T520 108q76 0 130.5 25.5T768 216l97-82Q792 59 710.5 19.5T520-20q-184 0-304 124T96 423zm164 99h482q-27 106-91 162t-152 56-153-57.5T260 522zm155 458l178 290h189L543 980H415z"/><glyph unicode="ê" horiz-adv-x="983" d="M96 423q0 193 116.5 317.5T499 865q174 0 285-124.5T901 407H251q0-133 73.5-216T520 108q76 0 130.5 25.5T768 216l97-82Q792 59 710.5 19.5T520-20q-184 0-304 124T96 423zm163 556l192 291h124l197-291H641l-126 195-129-195H259zm1-457h482q-27 106-91 161.5T499 739t-153-57-86-160z"/><glyph unicode="ë" horiz-adv-x="983" d="M96 423q0 194 116 318t287 124q174 0 285-124.5T901 407H251q0-133 73.5-216T520 108q76 0 130.5 25.5T768 216l97-82Q792 58 710.5 19T520-20q-184 0-304 124T96 423zm164 99h482q-28 105-91.5 161.5T499 740q-87 0-152.5-57.5T260 522zm12 581q0 40 28.5 68t68.5 28 67-27.5 27-68.5-27-68-67-27-68.5 27.5T272 1103zm311 0q0 40 28 68t69 28q40 0 67.5-27.5T775 1103t-27.5-68.5T680 1007q-41 0-69 28t-28 68z"/><glyph unicode="ì" horiz-adv-x="431" d="M-73 1273h189l178-290H166zM144 0v845h150V0H144z"/><glyph unicode="í" horiz-adv-x="431" d="M144 0v845h150V0H144zm4 983l178 290h189L276 983H148z"/><glyph unicode="î" horiz-adv-x="431" d="M-37 983l192 290h124l197-290H345l-126 194L91 983H-37zM144 0v845h150V0H144z"/><glyph unicode="ï" horiz-adv-x="431" d="M-33 1104q0 40 28.5 67.5T65 1199q40 0 67-27t27-68-27-68.5-67-27.5q-41 0-69.5 28t-28.5 68zM144 0v845h150V0H144zm135 1104q0 40 27.5 67.5T375 1199t68-27.5 27-67.5q0-41-27.5-68.5T375 1008q-41 0-68.5 28t-27.5 68z"/><glyph unicode="ñ" horiz-adv-x="1072" d="M151 0v845h149V728q114 137 303 137 162 0 246.5-97T934 477V0H784v430q0 156-56 227.5T555 729q-115 0-185-76.5T300 436V0H151zm154 1015q9 98 50.5 150.5T450 1218q31 0 56.5-10.5t41.5-25 29-29 27.5-25T635 1118q49 0 63 96h98q-9-98-50.5-150.5T650 1011q-31 0-56 10.5t-41 25-29 29-27.5 25T466 1111q-50 0-64-96h-97z"/><glyph unicode="ò" d="M92 423q0 184 129 313t311 129 310.5-129T971 423 842.5 109.5 532-20 221 109.5 92 423zm150 0q0-126 85-216.5T532 116t204.5 90.5T821 423t-84.5 216T532 729t-205-90-85-216zm42 847h189l178-290H523z"/><glyph unicode="ó" d="M92 423q0 184 129 313t311 129q119 0 220-59t160-161 59-222q0-184-128.5-313.5T532-20 221 109.5 92 423zm151 0q0-126 84.5-216.5T532 116t205 90.5T822 423t-85 216-205 90-204.5-90T243 423zm179 557l178 290h188L550 980H422z"/><glyph unicode="ô" d="M92 423q0 183 129 312.5T532 865t310.5-129.5T971 423q0-184-128.5-313.5T532-20 221 109.5 92 423zm150 0q0-126 85-216.5T532 116t204.5 90.5T821 423t-84.5 216T532 729t-205-90-85-216zm33 556l193 291h124l196-291H657l-125 195-129-195H275z"/><glyph unicode="õ" d="M92 423q0 184 129 313t311 129 310.5-129T971 423 842.5 109.5 532-20 221 109.5 92 423zm150 0q0-126 85-216.5T532 116t204.5 90.5T821 423t-84.5 216T532 729t-205-90-85-216zm44 590q9 98 50 151t95 53q38 0 68-16t45-34.5 34-34.5 38-16q50 0 64 96h97q-9-98-50.5-150.5T632 1009q-38 0-68 15.5t-45 34.5-34 34.5-38 15.5q-25 0-40-22.5t-24-73.5h-97z"/><glyph unicode="ö" d="M92 423q0 184 129 313t311 129 310.5-129T971 423 842.5 109.5 532-20 221 109.5 92 423zm150 0q0-126 85-216.5T532 116t204.5 90.5T821 423t-84.5 216T532 729t-205-90-85-216zm38 680q0 40 28.5 68t68.5 28 67-27.5 27-68.5-27-68-67-27-68.5 27.5T280 1103zm312 0q0 40 28 68t68 28 67.5-27.5T783 1103t-27.5-68.5T688 1007t-68 28-28 68z"/><glyph unicode="÷" horiz-adv-x="1160" d="M92 506v144h978V506H92zm375-344q0 47 33.5 81t80.5 34 80.5-34 33.5-81-33.5-80T581 49t-80.5 33-33.5 80zm0 832q0 47 33.5 80.5T581 1108t80.5-33.5T695 994t-33.5-80.5T581 880t-80.5 33.5T467 994z"/><glyph unicode="ø" d="M92 423q0 183 129 312.5T532 865q123 0 227-66l90 114 81-64-88-113q129-129 129-313T842.5 109.5 532-20q-126 0-228 65L215-68 133-4l88 113Q92 238 92 423zm149 0q0-112 69-197l365 462q-66 41-143 41-120 0-205.5-90T241 423zm148-266q66-41 143-41 119 0 204.5 90T822 423q0 109-69 196z"/><glyph unicode="ù" horiz-adv-x="1053" d="M143 376v469h149V416q0-89 20-150.5t57.5-93 79-44T545 116q100 0 210 58v671h149V93Q740-20 540-20q-65 0-119 9.5t-107.5 36T224 95t-58.5 114.5T143 376zm125 897h189l177-290H507z"/><glyph unicode="ú" horiz-adv-x="1053" d="M143 376v469h149V416q0-89 20-150.5t57.5-93 79-44T545 116q100 0 210 58v671h149V93Q740-20 540-20q-65 0-119 9.5t-107.5 36T224 95t-58.5 114.5T143 376zm278 607l177 290h189L548 983H421z"/><glyph unicode="û" horiz-adv-x="1053" d="M143 376v469h149V416q0-89 20-150.5t57-93 78.5-44T544 116q101 0 211 58v671h149V93Q740-20 539-20q-65 0-119 9.5t-107 36T224 95t-58.5 114.5T143 376zm124 607l192 290h124l197-290H649l-125 194-129-194H267z"/><glyph unicode="ü" horiz-adv-x="1053" d="M143 376v469h149V416q0-89 20-150.5t57-93 78.5-44T544 116q101 0 211 58v671h149V93Q740-20 539-20q-65 0-119 9.5t-107 36T224 95t-58.5 114.5T143 376zm129 728q0 40 28.5 67.5T369 1199t67-27 27-68-27-68.5-67-27.5-68.5 28-28.5 68zm312 0q0 40 27.5 67.5T680 1199q40 0 67.5-27.5T775 1104t-27.5-68-67.5-28-68 28-28 68z"/><glyph unicode="ý" horiz-adv-x="949" d="M18 845h157l301-594 300 594h157L270-466H112L398 98zm384 138l178 290h189L530 983H402z"/><glyph unicode="ÿ" horiz-adv-x="949" d="M18 845h157l300-594 301 594h157L269-466H111L398 98zm226 259q0 40 28.5 67.5T342 1199q40 0 67-27t27-68q0-40-27-68t-67-28q-41 0-69.5 28t-28.5 68zm311 0q0 40 28 67.5t69 27.5q40 0 67.5-27.5T747 1104t-27.5-68-67.5-28q-41 0-69 28t-28 68z"/><glyph unicode="Œ" horiz-adv-x="2131" d="M105 688q0 192 94.5 355T457 1301t355 95q167 0 311.5-74t241.5-202v256h661v-140h-506V810h428V670h-428V140h540V0h-695v256q-97-128-241.5-202T812-20q-192 0-355 95T199.5 333 105 688zm155 0q0-152 74-281t201-204.5T812 127q112 0 214.5 44.5T1203 291t118 179 44 218q0 152-74 281.5t-201.5 205T812 1250t-277-75.5-201-205T260 688z"/><glyph unicode="œ" horiz-adv-x="1706" d="M92 423q0 184 129 313t311 129q115 0 212-54.5T900 662q55 92 140 147.5t182 55.5q174 0 285-124.5T1624 407H975q0-133 73-216t195-83q76 0 130.5 25.5T1491 216l97-82q-73-76-154.5-115T1243-20q-106 0-196 56.5T901 185Q842 91 744 35.5T532-20q-182 0-311 129.5T92 423zm150 0q0-126 85-216.5T532 116t204.5 90.5T821 423t-84.5 216T532 729t-205-90-85-216zm741 99h482q-27 105-91 161t-152 56q-87 0-152.5-57T983 522z"/><glyph unicode="Ÿ" horiz-adv-x="1035" d="M-7 1376h181l346-561 344 561h181L597 646V0H442v646zm286 228q0 40 28.5 68t67.5 28q40 0 67.5-27.5T470 1604q0-40-27-67.5t-68-27.5q-39 0-67.5 27.5T279 1604zm311 0q0 40 28 68t69 28q40 0 67.5-28t27.5-68-27.5-68-67.5-28q-41 0-69 28t-28 68z"/><glyph unicode="ˆ" horiz-adv-x="671" d="M82 1121l193 290h124l196-290H465l-126 193-129-193H82z"/><glyph unicode="˜" horiz-adv-x="711" d="M116 1160q9 97 50 150t95 53q38 0 67.5-15.5t45-34.5 34.5-34.5 38-15.5q50 0 64 96h97q-9-98-50.5-151t-95.5-53q-31 0-56 10.5t-41 25-29 29-27.5 25T277 1255q-50 0-64-95h-97z"/><glyph horiz-adv-x="933"/><glyph horiz-adv-x="1867"/><glyph horiz-adv-x="933"/><glyph horiz-adv-x="1867"/><glyph horiz-adv-x="622"/><glyph horiz-adv-x="466"/><glyph horiz-adv-x="311"/><glyph horiz-adv-x="311"/><glyph horiz-adv-x="233"/><glyph horiz-adv-x="373"/><glyph horiz-adv-x="103"/><glyph unicode="‐" horiz-adv-x="750" d="M117 459v128h521V459H117z"/><glyph unicode="‑" horiz-adv-x="750" d="M117 459v128h521V459H117z"/><glyph unicode="‒" horiz-adv-x="750" d="M117 459v128h521V459H117z"/><glyph unicode="–" horiz-adv-x="1216" d="M117 464v119h987V464H117z"/><glyph unicode="—" horiz-adv-x="2170" d="M117 464v119h1941V464H117z"/><glyph unicode="‘" horiz-adv-x="433" d="M88 1071l173 463h124l-127-463H88z"/><glyph unicode="’" horiz-adv-x="423" d="M92 1071l126 463h170l-173-463H92z"/><glyph unicode="‚" horiz-adv-x="440" d="M53-286l127 463h170L178-286H53z"/><glyph unicode="“" horiz-adv-x="734" d="M88 1071l172 463h124l-127-463H88zm302 0l172 463h124l-127-463H390z"/><glyph unicode="”" horiz-adv-x="726" d="M92 1071l127 463h169l-172-463H92zm301 0l127 463h170l-173-463H393z"/><glyph unicode="„" horiz-adv-x="741" d="M53-286l127 463h170L178-286H53zm302 0l127 463h169L479-286H355z"/><glyph unicode="•" horiz-adv-x="777" d="M115 661q0 114 80.5 194.5T390 936t194.5-80.5T665 661t-80.5-195T390 385t-194.5 81T115 661z"/><glyph unicode="…" horiz-adv-x="1764" d="M124 87q0 44 30.5 75t74.5 31 75-31 31-75-31-75.5T229-20q-43 0-74 31.5T124 87zm655 0q0 44 31 75t75 31 75-31 31-75-31-75.5T885-20t-75 31.5T779 87zm655 0q0 44 31 75t75 31 75.5-31 31.5-75-31.5-75.5T1540-20t-75 31.5-31 75.5z"/><glyph horiz-adv-x="373"/><glyph unicode="‹" horiz-adv-x="570" d="M53 439l279 396h154L231 439 486 44H332z"/><glyph unicode="›" horiz-adv-x="570" d="M90 44l254 395L90 835h153l279-396L243 44H90z"/><glyph horiz-adv-x="466"/><glyph unicode="€" horiz-adv-x="1295" d="M57 520l53 115h117q0 3-1 25.5t-1 27.5q0 36 3 70H57l53 116h135q50 229 204.5 375.5T799 1396q125 0 234.5-60.5T1222 1167l-104-89q-64 80-148.5 126T799 1250q-135 0-243.5-106.5T404 874h659l-53-116H383q-3-36-3-70 0-35 2-53h578l-53-115H400q40-170 149-281.5T799 127q87 0 174.5 48T1123 307l98-99q-77-107-186.5-167.5T799-20q-136 0-253.5 72.5T350.5 247 242 520H57z"/><glyph unicode="™" horiz-adv-x="1892" d="M57 1277v99h645v-99H437V551H321v726H57zm767-726v825h183l267-642 262 642h182V551h-117v699h-2l-290-699h-77l-289 699h-2V551H824z"/><glyph unicode="◼" horiz-adv-x="844" d="M0 0v845h845V0H0z"/><glyph unicode="ﬁ" horiz-adv-x="969" d="M144-466v1592q0 106 29 189.5t79.5 134.5 114 77 136.5 26q206 0 339-140v-201H692v143q-48 35-90.5 49t-98.5 14q-91 0-150.5-71.5T293 1124V845h178V710H293V-466H144zM692 0v845h150V0H692z"/><glyph unicode="ﬂ" horiz-adv-x="999" d="M144-466v1592q0 106 30 189.5t82 134 116.5 77T510 1553q107 0 189-34t156-106V0H705v1355q-50 35-94 49t-101 14q-92 0-154.5-72T293 1124V845h178V710H293V-466H144z"/><glyph unicode="ﬃ" horiz-adv-x="1520" d="M144-466v1582q0 106 29 189.5t79.5 134.5 114.5 77.5 137 26.5q173 0 292-103 96 112 258 112 106 0 187-34t151-106v-201h-150v143q-83 63-188 63-91 0-150.5-71.5T844 1124V845h177V710H844V-466H694v1592q0 116 32 197-58 51-110 68t-112 17q-92 0-151.5-71.5T293 1115V845h178V710H293V-466H144zM1242 0v845h150V0h-150z"/><glyph unicode="ﬄ" horiz-adv-x="1549" d="M144-466v1582q0 106 29 189.5t79.5 134.5 114.5 77.5 137 26.5q173 0 294-104 99 113 263 113 107 0 189-34t156-106V0h-150v1355q-50 35-94 49t-101 14q-92 0-154.5-72T844 1124V845h177V710H844V-466H694v1592q0 112 33 196-60 51-111 68.5T504 1408q-92 0-151.5-71.5T293 1115V845h178V710H293V-466H144z"/></font>
</defs>
</svg>
