<svg xmlns="http://www.w3.org/2000/svg"><defs><font id="simplo_w00_thinregular" horiz-adv-x="1169"><font-face units-per-em="2048" ascent="1558" descent="-490"/><glyph horiz-adv-x="2048"/><glyph horiz-adv-x="2048"/><glyph horiz-adv-x="2048"/><glyph horiz-adv-x="645"/><glyph horiz-adv-x="645"/><glyph horiz-adv-x="645"/><glyph unicode="!" horiz-adv-x="491" d="M174 55q0 31 21.5 53t52.5 22 53-22 22-53-21.5-53T248-20q-31 0-52.5 22T174 55zm32 239v1082h85V294h-85z"/><glyph unicode="&quot;" horiz-adv-x="570" d="M127 1534h100l-17-457h-66zm224 0h100l-17-457h-65z"/><glyph unicode="#" horiz-adv-x="1075" d="M87 426v78h206l50 370H138v79h215l57 423h82l-56-423h296l57 423h83l-57-423h180v-79H805l-49-370h184v-78H745L688 0h-82l56 426H366L309 0h-83l57 426H87zm289 78h297l49 370H425z"/><glyph unicode="$" horiz-adv-x="889" d="M73 206l73 42q55-93 131.5-139T467 63q107 0 184.5 68.5T729 306q0 76-33.5 141T609 560.5 491.5 654 362 745.5t-118 97-86.5 121T124 1116q0 109 75.5 188.5T385 1394v194h78v-195q147-17 263-153l-61-49q-120 128-237 128-92 0-156-54t-64-158q0-65 33.5-124T329 878t118.5-91.5 129.5-93 119-99T783.5 474 817 326q0-147-87.5-241.5T493-19v-193h-79v195Q181 4 73 206z"/><glyph unicode="%" horiz-adv-x="1534" d="M87 993q0 104 32.5 192.5T217 1330t150 56 150-56 98-144.5T648 993q0-108-30.5-200.5t-96-154.5T367 576t-154.5 62T117 792.5 87 993zm79 0q0-59 11-116.5T210.5 766t63.5-85.5 93-32.5 93 32.5 63.5 85.5 34 110.5T569 993q0 52-11 105t-33.5 103.5-63.5 82-94 31.5-93.5-32-63-82-33.5-103.5T166 993zM312-39l820 1455h89L401-39h-89zm570 446q0 104 32.5 192.5T1012 744t150 56q126 0 203-116t77-277q0-108-30-200.5T1316.5 52 1162-10t-154.5 62T912 206.5 882 407zm78 0q0-59 11.5-117t34-110.5T1069 94t93-33 93 33 63.5 85.5T1352 290t11 117q0 52-11 105t-33.5 103.5-63 82T1162 729t-93.5-32-63.5-82-34-103.5T960 407z"/><glyph unicode="&amp;" horiz-adv-x="1136" d="M88 361q0 114 69.5 205T419 801q-162 197-162 331 0 114 74.5 189t190.5 75q110 0 187.5-73t77.5-186q0-90-62-170T532 783l325-430 145 183 56-62-148-188L1126 0h-103L852 227Q748 101 651 40.5T453-20Q299-20 193.5 88T88 361zm84 2q0-127 80.5-214.5T448 61q41 0 81 13t72.5 32 70 52 64 61 65.5 72L468 733q-79-57-127-96.5T251 551t-60.5-91.5T172 363zm169 769q0-47 29.5-109.5T482 851q221 162 221 288 0 81-55 129t-130 48q-79 0-128-52t-49-132z"/><glyph unicode="'" horiz-adv-x="346" d="M127 1534h100l-17-457h-66z"/><glyph unicode="(" horiz-adv-x="544" d="M130 547q0 479 294 912h86q-288-454-288-912 0-460 287-905h-85Q290-178 210 57t-80 490z"/><glyph unicode=")" horiz-adv-x="544" d="M34-358Q321 87 321 547q0 459-287 912h86q294-433 294-912 0-255-80-489.5T120-358H34z"/><glyph unicode="*" horiz-adv-x="774" d="M96 989l220 128-219 125 34 62 223-128v255h71v-252l221 125 34-62-220-125 221-128-36-62-220 126V802h-71v253L131 927z"/><glyph unicode="+" horiz-adv-x="1114" d="M68 538v82h445v447h87V620h447v-82H600V88h-87v450H68z"/><glyph unicode="," horiz-adv-x="392" d="M65-311l111 441h113L136-311H65z"/><glyph unicode="-" horiz-adv-x="744" d="M112 484v79h522v-79H112z"/><glyph unicode="." horiz-adv-x="419" d="M138 55q0 31 21.5 53t52.5 22 53-22 22-53-21.5-53T212-20q-31 0-52.5 22T138 55z"/><glyph unicode="/" horiz-adv-x="710" d="M21-159l558 1583h91L111-159H21z"/><glyph unicode="0" horiz-adv-x="1234" d="M139 709q0 136 33 260t93 219 151.5 151.5T617 1396t200.5-56.5T969 1188t93.5-219 33.5-260q0-140-31-269t-89-232.5T824.5 42 617-20 410 42 259 207.5 170 440t-31 269zm87 0q0-87 13-174t43.5-173.5T357 209t111-107 149-41 149 41 111 107 74.5 152.5T995 535t13 174q0 76-12.5 155t-42 161-73 146-112 104.5T617 1316t-151-40.5T354.5 1171 281 1025t-42.5-161.5T226 709z"/><glyph unicode="1" horiz-adv-x="603" d="M76 1297l48 79h251V0h-87v1297H76z"/><glyph unicode="2" horiz-adv-x="962" d="M70 1062q29 139 139 236.5t254 97.5q119 0 211.5-55.5T815 1196t48-194q0-180-139-351L265 79h598V0H93l553 687q130 161 130 313 0 134-91.5 225T459 1316q-113 0-189.5-68.5T152 1062H70z"/><glyph unicode="3" horiz-adv-x="1049" d="M88 292h83q33-105 127-168t200-63q142 0 237 87t95 222q0 121-77 207T559 683v73q102 18 166.5 91t64.5 181q0 119-86.5 204T498 1317q-100 0-173.5-59T216 1105h-82q29 122 134 206.5t230 84.5q167 0 271.5-107T874 1038q0-109-42.5-183.5T692 723q226-111 226-353 0-75-29-144.5T808 101 675 13 498-20q-144 0-262.5 88.5T88 292z"/><glyph unicode="4" horiz-adv-x="1018" d="M24 275l753 1141V355h166v-80H777V0h-87v275H24zm153 80h513v777z"/><glyph unicode="5" horiz-adv-x="995" d="M22 186l66 47q59-82 143-127t176-45q166 0 279.5 114T800 454q0 166-114 280.5T407 849q-121 0-220-48l164 575h516v-79H418L310 916q54 13 97 13 206 0 343.5-134.5T888 454q0-205-136.5-339.5T407-20q-114 0-216 54T22 186z"/><glyph unicode="6" horiz-adv-x="1124" d="M106 454q0 164 113 312l466 610h106L436 911q59 17 129 17 93 0 178-37.5t146.5-101 98-151.5 36.5-184-36.5-184-98-151.5T743 17.5 565-20 387 17.5t-146.5 101-98 151.5T106 454zm88 0q0-101 47-191.5T374.5 116 565 60q103 0 189 55t134.5 145.5T937 454q0 157-107 276T565 849q-157 0-264-117.5T194 454z"/><glyph unicode="7" horiz-adv-x="1066" d="M75 1297v79h978L230 0h-98l776 1297H75z"/><glyph unicode="8" horiz-adv-x="1080" d="M131 370q0 101 60 199t179 154q-102 55-149.5 141T173 1038q0 151 105.5 254.5T541 1396q159 0 263.5-102.5T909 1038q0-86-47.5-173T713 723q81-38 136.5-99.5t78.5-125T951 370q0-162-116-276T541-20Q362-20 246.5 93T131 370zm88 0q0-129 94-219t228-90 228.5 90T864 370q0 130-93.5 220T541 680q-135 0-228.5-90T219 370zm37 672q0-118 83.5-200.5T541 759t202 83 84 200q0 115-84.5 196.5T541 1320t-201-81.5-84-196.5z"/><glyph unicode="9" horiz-adv-x="1120" d="M101 922q0 128 61.5 237.5t167 173T559 1396q93 0 178-37.5t146.5-101 98-151.5 36.5-184q0-164-112-311L439 0H333l356 465q-59-17-130-17-124 0-229.5 63.5t-167 173T101 922zm86 0q0-157 107-275.5T559 528q104 0 190.5 55t134 145T931 922q0 157-107.5 275.5T559 1316q-103 0-189-55t-134.5-145.5T187 922z"/><glyph unicode=":" horiz-adv-x="409" d="M134 55q0 31 22 53t53 22 52.5-22T283 55 261.5 2 209-20 156 2t-22 53zm0 735q0 32 22 53.5t53 21.5 52.5-22 21.5-53-21.5-52.5T209 716t-53 21.5-22 52.5z"/><glyph unicode=";" horiz-adv-x="404" d="M52-311l112 441h112L123-311H52zm96 1101q0 32 22 53.5t53 21.5 52.5-22 21.5-53-21.5-52.5T223 716t-53 21.5-22 52.5z"/><glyph unicode="&lt;" horiz-adv-x="1122" d="M63 533v88l940 472v-95L150 578l853-421V62z"/><glyph unicode="=" horiz-adv-x="1262" d="M143 334v81h978v-81H143zm0 407v81h978v-81H143z"/><glyph unicode="&gt;" horiz-adv-x="1120" d="M120 62v95l853 421-853 420v95l939-472v-88z"/><glyph unicode="?" horiz-adv-x="883" d="M45 1038q5 145 117 251.5T425 1396q113 0 203.5-54.5t138.5-143 48-190.5q0-62-19.5-114t-51-88.5-70-69.5-76.5-67.5-69.5-73-51-94T458 379v-85h-84v120q0 64 19.5 119.5t51 95 69 75T589 772t69.5 67 51 78.5T729 1013q0 123-85.5 213T425 1316q-127 0-206.5-84.5T126 1038H45zM342 55q0 31 21.5 53t52.5 22 53-22 22-53-21.5-53T416-20q-31 0-52.5 22T342 55z"/><glyph unicode="@" horiz-adv-x="1712" d="M120 453q0 198 91.5 354t246 240 343.5 84q194 0 300-102.5T1207 769V273q-150-102-343-102-140 0-234 75t-94 204q0 122 85 193.5T842 715q77 0 152.5-33.5T1123 582v144q0 324-322 324-126 0-235.5-43t-189-119.5-125.5-189T205 453q0-179 84.5-329.5T526-116t338-89q187 0 339 88.5t236 239 84 330.5q0 113-29 203l77 33q37-106 37-236 0-202-98-371.5t-269-268T864-285q-155 0-293 58T334-70 177.5 165.5 120 453zm502-4q0-94 70.5-146T876 251q124 0 247 69v154q-49 75-122.5 118T836 635q-90 0-152-51t-62-135z"/><glyph unicode="A" d="M4 0l606 1416L1164 0h-91L964 280H216L96 0H4zm246 359h683l-327 836z"/><glyph unicode="B" horiz-adv-x="1100" d="M209 0v1376h294q175 0 288-91t113-248q0-30-2-52t-11-58-26-65.5-49.5-64T737 735q246-110 246-364 0-169-125-270T542 0H209zm87 80h246q69 0 130 17t112 51.5 81 94T895 380q0 75-29 134t-78 94.5T679.5 662 554 680H296V80zm0 680h220q57 0 109.5 15.5t96 46.5 69.5 84.5 26 121.5q0 71-27 124.5t-73 84-99.5 45.5-114.5 15H296V760z"/><glyph unicode="C" horiz-adv-x="1423" d="M119 688q0 192 96 355t260.5 258 357.5 95q142 0 274-53t231-148l-63-52q-88 81-203 127t-239 46q-171 0-315.5-84.5t-228-229T206 688q0-127 49.5-243t133-200 200-134T833 61t244 47.5T1282 241l58-57q-99-97-230.5-150.5T833-20 556 36 328 187 175.5 413 119 688z"/><glyph unicode="D" horiz-adv-x="1372" d="M209 0v1376h252q169 0 314-48t249.5-135.5 164-217.5 59.5-287q0-142-50.5-267.5t-141-219T832 54 540 0H209zm86 80h249q177 0 318.5 81T1082 380.5t78 307.5q0 143-54 259t-148 192-220 117-272 41H295V80z"/><glyph unicode="E" horiz-adv-x="927" d="M209 0v1376h617v-79H296V780h452v-79H296V80h564V0H209z"/><glyph unicode="F" horiz-adv-x="867" d="M209 0v1376h617v-79H296V780h452v-79H296V0h-87z"/><glyph unicode="G" horiz-adv-x="1561" d="M112 688q0 144 56 275t151 226 226 151 275 56q165 0 311.5-71t247.5-196l-63-52q-90 111-219.5 175T820 1316q-169 0-312-84.5t-225.5-229T200 688q0-128 49-244t131.5-200T578 110.5 820 61q133 0 246.5 45.5t199 145T1379 493H882v80h597q-19-258-202.5-425.5T820-20q-144 0-275 56T319 187 168 413t-56 275z"/><glyph unicode="H" horiz-adv-x="1369" d="M209 0v1376h86V780h777v596h87V0h-87v701H295V0h-86z"/><glyph unicode="I" horiz-adv-x="500" d="M209 0v1376h87V0h-87z"/><glyph unicode="J" horiz-adv-x="748" d="M16 18l35 75q64-32 129-32 284 0 284 389v926h87V412q0-117-31-203.5t-84.5-135-117-71T180-20Q90-20 16 18z"/><glyph unicode="K" horiz-adv-x="1104" d="M209 0v1376h86V767l639 609h122L379 731 1107 0H986L295 693V0h-86z"/><glyph unicode="L" horiz-adv-x="763" d="M209 0v1376h86V80h452V0H209z"/><glyph unicode="M" horiz-adv-x="1575" d="M56 0l302 1416L786 212l428 1204L1516 0h-86l-236 1108L786-39 379 1109 143 0H56z"/><glyph unicode="N" horiz-adv-x="1601" d="M209 0v1416L1301 185v1191h87V-39L295 1192V0h-86z"/><glyph unicode="O" horiz-adv-x="1655" d="M120 688q0 144 56 275t150.5 226 225 151 274.5 56 274.5-56 225-151T1476 963t56-275-56-275-150.5-226-225-151T826-20 551.5 36t-225 151T176 413t-56 275zm87 0q0-170 83-314.5T515.5 145 826 61t310.5 84T1362 373.5t83 314.5q0 127-49 243t-131.5 200.5T1067 1266t-241 50-241-50-197.5-134.5T256 931t-49-243z"/><glyph unicode="P" horiz-adv-x="964" d="M209 0v1376h313q170 0 281.5-103T915 996q0-173-110.5-276.5T526 616H296V0h-87zm87 696h210q136 0 229 75t93 225q0 78-27 137.5t-73.5 94.5-103.5 52-122 17H296V696z"/><glyph unicode="Q" horiz-adv-x="1685" d="M124 688q0 144 56 275t150.5 226 225 151 274.5 56 274.5-56 225-151T1480 963t56-275q0-165-71.5-309T1269 135q141-75 267-75v-80q-166 0-341 103Q1026-20 830-20q-144 0-274.5 56t-225 151T180 413t-56 275zm87 0q0-170 83-314.5T519.5 145 830 61q153 0 286 71-59 37-86 53.5T952 227t-98 35-99 10v79q34 0 68.5-5t59.5-9.5 60-19 51.5-20.5 54-28 46.5-27 51-31.5 47-29.5q118 88 186.5 220.5T1448 688q0 170-82.5 314.5t-225 229T830 1316q-126 0-241-50t-197.5-134.5T260 931t-49-243z"/><glyph unicode="R" horiz-adv-x="1024" d="M209 0v1376h313q172 0 282.5-96.5T915 1018q0-121-65.5-213.5T655 670L906 0h-95L569 658H295V0h-86zm86 737h227q59 0 112 16t97 48.5 70 88 26 128.5-26 128.5-70 87.5-97 47.5-112 15.5H295V737z"/><glyph unicode="S" horiz-adv-x="913" d="M88 206l72 42q55-93 132-139t190-46q107 0 184.5 68.5T744 306q0 76-33.5 141t-87 113.5-118 93.5-129 91.5-118 97-87 121T138 1116q0 118 85 199t206 81q178 0 312-156l-61-49q-120 128-237 128-92 0-156-54t-64-158q0-65 33.5-124T344 878t118.5-91.5 129.5-93 119-99T798.5 474 832 326q0-154-96-250T479-20Q209-20 88 206z"/><glyph unicode="T" horiz-adv-x="805" d="M17 1297v79h773v-79H447V0h-86v1297H17z"/><glyph unicode="U" horiz-adv-x="1369" d="M198 503v873h87V531q0-96 16.5-172t40-124.5T406 151t74.5-52T567 73t84-10.5 82-1.5q183 0 349 109v1206h86V119q-95-65-209-102T733-20q-82 0-147 9T458.5 19 350 79t-81 95.5T216 314t-18 189z"/><glyph unicode="V" horiz-adv-x="1126" d="M7 1376h91L575 191l457 1185h91L576-39z"/><glyph unicode="W" horiz-adv-x="2008" d="M27 1376h91L581 200l432 1216 431-1213 445 1173h90L1442-39l-429 1203L585-39z"/><glyph unicode="X" horiz-adv-x="967" d="M-1 0l437 727-389 649h97l341-566 340 566h100L534 727 971 0h-99L485 645 98 0H-1z"/><glyph unicode="Y" horiz-adv-x="943" d="M-2 1376h98l378-626 376 626h99L517 655V0h-86v655z"/><glyph unicode="Z" horiz-adv-x="898" d="M35 0l665 1297H73v79h760L168 80h687V0H35z"/><glyph unicode="[" horiz-adv-x="538" d="M182-344v1789h321v-80H269V-264h234v-80H182z"/><glyph unicode="\" horiz-adv-x="714" d="M45 1424h90L694-159h-91z"/><glyph unicode="]" horiz-adv-x="538" d="M36-264h234v1629H36v80h320V-344H36v80z"/><glyph unicode="^" horiz-adv-x="923" d="M76 661l327 715h121l326-715h-86l-301 645-301-645H76z"/><glyph unicode="_" horiz-adv-x="1075" d="M18-179h1039v-102H18v102z"/><glyph unicode="`" horiz-adv-x="396" d="M28 1402h121l172-271h-75z"/><glyph unicode="a" horiz-adv-x="960" d="M90 276q0 129 90 203.5T417 554q85 0 166-32.5T723 417v102q0 69-15 119t-38.5 78-61.5 44-74 20.5-86 4.5q-90 0-218-51l-30 72q132 59 273 59 334 0 334-322V82Q650-20 439-20q-149 0-249 80T90 276zm86-2q0-99 79.5-156T453 61q139 0 270 70v172Q616 473 410 473q-99 0-166.5-54T176 274z"/><glyph unicode="b" horiz-adv-x="1083" d="M163 82v1452h84V751q153 114 305 114 131 0 228.5-58.5t146-155.5T975 434q0-207-116.5-330.5T520-20Q317-20 163 82zm84 49q129-70 270-70 175 0 274 97.5T890 432q0 154-96 253.5T551 785q-172 0-304-139V131z"/><glyph unicode="c" horiz-adv-x="903" d="M105 423q0 184 127.5 313T540 865q153 0 274-99l-61-51q-102 70-213 70-144 0-247-106.5T190 423t103-255.5T540 61q138 0 245 99l63-49Q720-20 540-20T232.5 109.5 105 423z"/><glyph unicode="d" horiz-adv-x="1083" d="M109 434q0 120 48.5 217t146 155.5T532 865q152 0 304-114v783h84V82Q765-20 563-20q-222 0-338 123.5T109 434zm84-2q0-176 99-273.5T566 61q141 0 270 70v515Q704 785 532 785q-147 0-243-99.5T193 432z"/><glyph unicode="e" horiz-adv-x="985" d="M108 423q0 194 113.5 318T503 865q163 0 269.5-119T896 428H198q0-166 91-266.5T525 61q81 0 140 23.5T783 161l61-52Q705-20 525-20q-182 0-299.5 124T108 423zm94 84h599q-34 137-112.5 207.5T503 785q-110 0-194.5-72T202 507z"/><glyph unicode="f" horiz-adv-x="465" d="M151-466v1711q0 145 66.5 225.5T410 1553v-80q-90-1-133-59t-43-175V845h176v-79H234V-466h-83z"/><glyph unicode="g" horiz-adv-x="1085" d="M111 411q0 207 116 330.5T565 865q203 0 357-101V-65q0-212-102.5-316.5T527-486q-166 0-313 82l31 73q61-32 142-53.5T532-406q155 0 231 93t76 254V94Q687-20 535-20q-131 0-228.5 58.5T160 194t-49 217zm85 3q0-154 96-253.5T535 61q172 0 304 139v514q-128 71-271 71-175 0-273.5-98T196 414z"/><glyph unicode="h" horiz-adv-x="1064" d="M164 0v1534h84V700h1q56 79 143 122t195 43q152 0 238-94t86-285V0h-84v425q0 195-65.5 277T553 784q-124 0-214.5-93.5T248 430V0h-84z"/><glyph unicode="i" horiz-adv-x="391" d="M149 1174v90q0 11 6 17.5t16 6.5h55q9 0 15.5-7t6.5-17v-90q0-10-6.5-17t-15.5-7h-55q-9 0-15.5 7t-6.5 17zM157 0v845h83V0h-83z"/><glyph unicode="j" horiz-adv-x="387" d="M147 1174v91q0 10 6.5 16.5t16.5 6.5h54q9 0 15.5-6.5t6.5-16.5v-91q0-10-6.5-17t-15.5-7h-54q-9 0-16 7t-7 17zm8-1640V845h83V-466h-83z"/><glyph unicode="k" horiz-adv-x="773" d="M162 0v1534h83V481l384 364h119L329 448 773 0H654L245 412V0h-83z"/><glyph unicode="l" horiz-adv-x="406" d="M165 0v1534h84V0h-84z"/><glyph unicode="m" horiz-adv-x="1589" d="M164 0v845h84V712h1q107 153 297 153 205 0 269-193 114 193 324 193 138 0 216-94t78-285V0h-84v425q0 195-57.5 277T1109 784q-109 0-188.5-93.5T841 430V0h-84v425q0 195-58 277t-183 82q-109 0-188.5-93.5T248 430V0h-84z"/><glyph unicode="n" horiz-adv-x="1063" d="M164 0v845h84V700h1q56 79 143 122t195 43q152 0 238-94t86-285V0h-84v425q0 195-65.5 277T553 784q-124 0-214.5-93.5T248 430V0h-84z"/><glyph unicode="o" horiz-adv-x="1078" d="M105 423q0 184 127 313t307 129 308-129.5T975 423q0-184-128-313.5T539-20 232 109.5 105 423zm85 0q0-149 102.5-255.5T539 61t247.5 106.5T890 423 786.5 678.5 539 785 292.5 678.5 190 423z"/><glyph unicode="p" horiz-adv-x="1082" d="M163-466V764q152 101 357 101 222 0 338.5-123.5T975 411q0-120-48.5-217t-146-155.5T552-20Q396-20 247 94v-560h-84zm84 666Q379 61 551 61q147 0 243 99.5T890 414q0 175-99 273t-274 98q-142 0-270-71V200z"/><glyph unicode="q" horiz-adv-x="1082" d="M108 411q0 207 116 330.5T562 865q203 0 357-101V-466h-83V94Q684-20 532-20q-131 0-228.5 58.5T157 194t-49 217zm85 3q0-154 96-253.5T532 61q172 0 304 139v514q-128 71-270 71-175 0-274-98t-99-273z"/><glyph unicode="r" horiz-adv-x="646" d="M164 0v845h83V707q119 158 271 158 65 0 113-31l-42-79q-51 30-102 30-98 0-169-96.5T247 436V0h-83z"/><glyph unicode="s" horiz-adv-x="691" d="M60 94l56 61q35-29 61.5-46.5t72-33T345 60q89 0 133 42t44 119q0 54-40.5 99t-98 78T269 467t-97.5 90T131 680q0 86 59 135.5T337 865q107 0 185-70l-50-61q-73 53-131 53-57 0-91-30t-34-91q0-46 40.5-85.5t98-72.5 115-70.5 98-96T608 210q0-110-68-170T335-20Q179-20 60 94z"/><glyph unicode="t" horiz-adv-x="463" d="M152 0v1156h83V845h177v-79H235V0h-83z"/><glyph unicode="u" horiz-adv-x="1042" d="M156 374v471h84V414q0-86 16.5-150t43-102 66.5-61.5T447 69t93-8q125 0 254 70v714h84V82Q723-20 535-20q-61 0-112.5 9.5T320 25.5t-85.5 69-56.5 114T156 374z"/><glyph unicode="v" horiz-adv-x="871" d="M29 845h90l320-691 321 691h89L439-39z"/><glyph unicode="w" horiz-adv-x="1430" d="M34 845h88l295-678 298 718 298-718 296 678h88L1012-39 715 673 419-39z"/><glyph unicode="x" horiz-adv-x="865" d="M25 0l353 459L73 845h107l251-317 244 317h107L485 460 847 0H740L432 391 131 0H25z"/><glyph unicode="y" horiz-adv-x="897" d="M27 845h94l328-655 328 655h94L214-466h-94L401 96z"/><glyph unicode="z" horiz-adv-x="849" d="M41 0l562 766H104v79h659L200 79h596V0H41z"/><glyph unicode="{" horiz-adv-x="561" d="M71 510v84q85 5 128.5 59.5T243 790v414q0 64 20 112.5t53 75.5 69.5 40 74.5 13h76v-80h-68q-72 0-105.5-48T329 1189V787q0-103-41.5-161T190 552v-1q55-17 97-73.5T329 318V-87q0-80 34.5-128.5T468-264h68v-80h-86q-33 0-67.5 14T316-288.5 263.5-211 243-96v409q0 83-43.5 137T71 510z"/><glyph unicode="|" horiz-adv-x="445" d="M182-466v2000h87V-466h-87z"/><glyph unicode="}" horiz-adv-x="561" d="M25-264h68q70 0 105 48.5T233-87v405q0 103 41.5 160t97.5 73v1q-55 16-97 74t-42 161v402q0 81-33.5 128.5T93 1365H25v80h76q38 0 75-13t70-40 53.5-75.5T320 1204V790q0-82 43.5-136.5T491 594v-84q-85-6-128-60t-43-137V-96q0-65-20.5-115t-53-77.5-67-41.5-67.5-14H25v80z"/><glyph unicode="~" horiz-adv-x="1240" d="M141 501q12 124 77.5 191.5T377 760q59 0 116-19.5T595.5 693t88.5-56 89-47.5 88-19.5q67 0 104.5 43.5T1021 751h87q-12-124-77-191.5T873 492q-59 0-116.5 19.5t-103 47-88 55.5-89 47.5T388 681q-67 0-104-43t-55-137h-88z"/><glyph unicode="¡" horiz-adv-x="456" d="M157 981q0 31 21.5 53t52.5 22 53-22 22-53-22-53-53-22-52.5 22-21.5 53zm32-1321V742h85V-340h-85z"/><glyph unicode="¢" horiz-adv-x="889" d="M90 688q0 169 110 294.5T473 1128v157h76v-155q139-9 249-99l-61-51q-102 70-212 70-144 0-247-106.5T175 688t103-255.5T525 326q137 0 245 100l63-49Q716 257 549 246V91h-76v158q-163 20-273 145T90 688z"/><glyph unicode="£" horiz-adv-x="1066" d="M96 0v53q120 119 173.5 236.5T323 508q0 49-10 90H138v80h153q-8 24-27 76t-29 82.5-19 77-9 87.5q0 105 47.5 194.5t140 145T606 1396q149 0 262-97.5t142-236.5h-87q-29 104-115.5 179T611 1316q-137 0-227-90.5T294 997q0-59 13-110t39-114.5 36-94.5h221v-80H401q9-46 9-103 0-71-40.5-186.5T233 79h744V0H96z"/><glyph unicode="¤" horiz-adv-x="1197" d="M146 271l140 138q-91 110-91 251 0 145 91 255l-140 139 57 59 141-142q113 91 255 91 145 0 255-88l139 139 59-59-140-136q95-112 95-258 0-142-95-253l141-137-60-59-139 141q-114-90-255-90-148 0-257 90L203 211zm134 390q0-128 92-221t225-93q129 0 225.5 91T919 661q0 130-93.5 222.5T597 976q-130 0-223.5-91.5T280 661z"/><glyph unicode="¥" horiz-adv-x="943" d="M45 1376h94l336-626 334 626h93L522 661h234v-79H518V434h238v-79H518V0h-86v355H191v79h241v148H191v79h237z"/><glyph unicode="¦" horiz-adv-x="418" d="M170 340h86v-691h-86v691zm0 388v691h86V728h-86z"/><glyph unicode="§" horiz-adv-x="986" d="M106 590q0 124 67 223t192 165q-87 66-132.5 137T187 1274q0 113 92 196t216 83q126 0 211.5-83t95.5-207h-84q-8 88-67 149t-150 61q-105 0-167-61t-62-153q0-55 29-103t75.5-81 95.5-55 99-34q134-34 223.5-143.5T884 590q0-124-68-223.5T624 203q89-68 133-137.5T801-93q0-113-91-196t-215-83q-127 0-212.5 82.5T187-82h83q8-87 67-148.5T488-292q105 0 167 61.5T717-78q0 45-20 86t-51.5 71-72.5 54.5-80 39-77 23.5q-136 31-223 140t-87 254zm84 0q0-133 87-227t218-94q129 0 216.5 95T799 590q0 132-87.5 227T495 912q-130 0-217.5-94.5T190 590z"/><glyph unicode="¨" horiz-adv-x="676" d="M133 1252q0 29 20.5 50.5T203 1324t50.5-21.5T275 1252t-21.5-50-50.5-21-49.5 21-20.5 50zm269 0q0 29 21.5 50.5T474 1324t50-21.5 21-50.5-21-50-50-21-50.5 21-21.5 50z"/><glyph unicode="©" horiz-adv-x="1644" d="M113 690q0 196 93.5 358t256 255 358.5 93 358.5-93 256-255 93.5-358-93.5-359-256-257T821-20 462.5 74t-256 257T113 690zm84 0q0-175 83-320.5T506 141t315-83q129 0 244.5 49T1264 240t132 201 49 249q0 174-82.5 318t-226 227-315.5 83q-128 0-244-49t-199-132.5-132-200T197 690zm269 0q0 84 23.5 162t68 141.5 116 102T833 1134q81 0 152.5-24.5t126-80T1176 897h-84q-13 75-85 116t-174 41q-121 0-201-97t-80-267q0-173 76.5-269.5T833 324q96 0 170 49.5t89 131.5h84q-11-119-108-190.5T833 243q-120 0-204.5 61.5T505 465t-39 225z"/><glyph unicode="ª" horiz-adv-x="739" d="M114 979q0 86 60.5 135.5T334 1164q108 0 177-65v33q0 50-12 82t-36 47.5-49.5 20.5-62.5 5q-59 0-142-35l-28 64q91 44 188 44 224 0 224-210V852q-106-70-245-70-101 0-167.5 53.5T114 979zm83-1q0-57 45.5-89.5T356 856q80 0 155 39v98q-61 98-182 98-55 0-93.5-30.5T197 978z"/><glyph unicode="«" horiz-adv-x="847" d="M65 440l275 390h93L183 440 433 51h-93zm312 0l276 390h93L495 440 747 51h-94z"/><glyph unicode="¬" horiz-adv-x="1260" d="M101 674v81h979V206h-94v468H101z"/><glyph unicode="­" horiz-adv-x="744" d="M112 484v79h522v-79H112z"/><glyph unicode="®" horiz-adv-x="1089" d="M114 963q0 182 125 307t307 125 307.5-125T979 963 853.5 655.5 546 530 239 655.5 114 963zm65 0q0-157 106.5-264T546 592q155 0 261.5 107T914 963q0 156-106.5 263T546 1333q-154 0-260.5-107T179 963zm198-248v514h179q197 0 197-146 0-57-29.5-93T639 943l112-228h-74L571 933H442V715h-65zm65 277h112q68 0 101 21.5t33 69.5-34 68-103 20H442V992z"/><glyph unicode="¯" horiz-adv-x="809" d="M143 1212v73h525v-73H143z"/><glyph unicode="°" horiz-adv-x="744" d="M109 1131q0 110 78 187.5t188 77.5q109 0 187-78t78-187q0-110-78-188t-187-78q-110 0-188 78t-78 188zm80 0q0-77 54.5-131T375 946t131 54 54 131-54 131-131 54-131.5-54-54.5-131z"/><glyph unicode="±" horiz-adv-x="1210" d="M116 23v81h979V23H116zm0 637v77h444v400h91V737h444v-77H651V251h-91v409H116z"/><glyph unicode="²" horiz-adv-x="572" d="M42 1396q17 88 83 149.5t152 61.5q105 0 170.5-68t65.5-163q0-100-80-203L197 879h316v-70H43l323 401q69 85 69 165 0 68-46.5 114.5T275 1536q-111 0-159-140H42z"/><glyph unicode="³" horiz-adv-x="621" d="M52 998h74q18-58 66.5-92.5T296 871q73 0 121 44t48 113q0 63-42.5 107.5T315 1190v64q57 9 92.5 46t35.5 92q0 60-43.5 103.5T296 1539q-51 0-88-32.5t-57-85.5H77q17 79 80.5 133.5T296 1609q99 0 161-63t62-148q0-58-21-99t-69-74q115-66 115-197 0-92-68-160.5T296 799q-85 0-156 56.5T52 998z"/><glyph unicode="´" horiz-adv-x="396" d="M82 1131l172 271h122l-219-271H82z"/><glyph unicode="µ" horiz-adv-x="1139" d="M197-466V845h83V361q0-125 63.5-208.5T525 69q141 0 226.5 133T837 536v309h84V338q0-46 .5-70.5t3-61 8.5-57 15.5-43.5 26-36.5T1013 49v-69q-47 0-80 21t-51 61.5-26.5 81.5-13.5 99l-1 1Q807 123 718.5 51.5T527-20q-76 0-132.5 30T280 107v-573h-83z"/><glyph unicode="¶" horiz-adv-x="1174" d="M55 988q0 192 118.5 290t330.5 98h471V-303h-80v1604H580V-303h-80v914q-206 0-325.5 107.5T55 988z"/><glyph unicode="·" horiz-adv-x="399" d="M129 564q0 31 21.5 52.5T203 638t53-21.5 22-52.5q0-32-22-53.5T203 489t-52.5 22-21.5 53z"/><glyph unicode="¸" horiz-adv-x="435" d="M39-360l22 57q53-23 109-23 44 0 76.5 18.5T279-245q0 50-55.5 77.5T113-140L196 0h74l-64-99q68-2 112.5-38.5T363-236q0-78-56.5-115T166-388q-74 0-127 28z"/><glyph unicode="¹" horiz-adv-x="412" d="M52 1528l42 70h162V810h-77v718H52z"/><glyph unicode="º" horiz-adv-x="793" d="M111 1071q0 120 84 204.5t203 84.5 203-84.5 84-204.5q0-119-84-204t-203-85-203 85-84 204zm82 0q0-88 60.5-151.5T398 856t144.5 63.5T603 1071q0 89-60.5 152.5T398 1287q-83 0-144-64t-61-152z"/><glyph unicode="»" horiz-adv-x="850" d="M107 51l251 389-251 390h93l276-390L200 51h-93zm313 0l250 389-250 390h94l276-390L514 51h-94z"/><glyph unicode="¼" horiz-adv-x="1251" d="M56 1305l42 70h162V587h-78v718H56zM150-39l820 1455h89L238-39h-88zm493 181l441 662V208h89v-66h-89V-6h-74v148H643zm130 66h237v357z"/><glyph unicode="½" horiz-adv-x="1407" d="M57 1305l41 70h163V587h-78v718H57zM151-39l820 1455h88L239-39h-88zM849-1l324 402q69 85 69 164 0 68-46.5 115T1081 727q-57 0-97.5-38.5T922 586h-73q17 89 82.5 150.5T1083 798q106 0 171.5-67.5T1320 567q0-99-81-203L1003 70h317V-1H849z"/><glyph unicode="¾" horiz-adv-x="1435" d="M66 775h73q18-58 66.5-92.5T309 648q73 0 121.5 44.5T479 805q0 63-42.5 107.5T329 967v63q57 9 92.5 46.5T457 1169q0 60-44 103.5T309 1316q-51 0-88-32.5t-57-85.5H90q17 79 80.5 133.5T309 1386q99 0 161.5-62.5T533 1175q0-58-21.5-99t-69.5-74q115-66 115-197 0-92-68-160.5T309 576q-85 0-155.5 56.5T66 775zM335-39l821 1455h88L424-39h-89zm493 181l441 662V208h90v-66h-90V-6h-74v148H828zm131 66h236v357z"/><glyph unicode="¿" horiz-adv-x="860" d="M60 28q0 62 19.5 114t51 88.5T200 300t76.5 67.5 70 73 51 94T417 657v85h84V622q0-64-19.5-119.5t-51-95-69-75T286 264t-69.5-67-51-78.5T146 23q0-123 85.5-213T450-280q87 0 154.5 43.5t102 105T749-1h81q-6-147-117-253T450-360q-170 0-280 115.5T60 28zm324 953q0 31 22 53t53 22 53-22 22-53-22-53-53-22-53 22-22 53z"/><glyph unicode="À" d="M4 0l606 1416L1164 0h-91L964 280H216L96 0H4zm246 359h683l-327 836zm93 1368h131l184-218h-80z"/><glyph unicode="Á" d="M4 0l606 1416L1164 0h-91L964 280H216L96 0H4zm246 359h683l-327 836zm312 1145l183 219h131l-234-219h-80z"/><glyph unicode="Â" d="M4 0l606 1416L1164 0h-91L964 280H216L96 0H4zm246 359h683l-327 836zm125 1146l184 219h105l182-219h-83l-153 165-153-165h-82z"/><glyph unicode="Ã" d="M4 0l606 1416L1164 0h-91L964 280H216L96 0H4zm246 359h683l-327 836zm135 1173q9 79 44.5 121t81.5 42q36 0 64-14.5t42.5-32.5 34.5-32.5 41-14.5q54 0 71 89h67q-9-78-44.5-120t-81.5-42q-36 0-64.5 14.5t-43 32.5-34 32.5T523 1622q-54 0-71-90h-67z"/><glyph unicode="Ä" d="M4 0l606 1416L1164 0h-91L964 280H216L96 0H4zm246 359h683l-327 836zm153 1249q0 29 21 50t50 21 50-21 21-50-21-50-50-21-50 21-21 50zm270 0q0 29 21 50t50 21 50-21 21-50-21-50-50-21-50 21-21 50z"/><glyph unicode="Å" d="M4 0l606 1416L1164 0h-91L964 280H216L96 0H4zm246 359h683l-327 836zm167 1312q0 79 56 135t135 56 135-56 56-135-56-134.5-135-55.5-135 55.5-56 134.5zm67 0q0-52 36-88t88-36 88.5 36 36.5 88-36.5 88.5T608 1796t-88-36.5-36-88.5z"/><glyph unicode="Æ" horiz-adv-x="1563" d="M-3 0l826 1376h639v-79H932V780h452v-79H932V80h564V0H845v280H263L95 0H-3zm314 359h534v890z"/><glyph unicode="Ç" horiz-adv-x="1423" d="M119 688q0 192 96 355t260.5 258 357.5 95q142 0 274-53t231-148l-63-52q-88 81-203 127t-239 46q-171 0-315.5-84.5t-228-229T206 688q0-127 49.5-243t133-200 200-134T833 61t244 47.5T1282 241l58-57q-96-93-221-146T855-19l-45-69q67-2 112-39t45-99q0-78-56.5-114.5T770-377q-76 0-127 27l22 58q55-24 109-24 43 0 76 19t33 63q0 50-55 77t-111 27l66 112Q646-9 523 50.5t-211.5 153-140.5 220T119 688z"/><glyph unicode="È" horiz-adv-x="927" d="M209 0v1376h617v-79H296V780h452v-79H296V80h564V0H209zm100 1727h130l184-218h-80z"/><glyph unicode="É" horiz-adv-x="927" d="M209 0v1376h617v-79H296V780h452v-79H296V80h564V0H209zm231 1504l184 219h131l-235-219h-80z"/><glyph unicode="Ê" horiz-adv-x="927" d="M209 0v1376h617v-79H296V780h452v-79H296V80h564V0H209zm91 1505l184 219h105l182-219h-84l-153 165-153-165h-81z"/><glyph unicode="Ë" horiz-adv-x="927" d="M209 0v1376h617v-79H296V780h452v-79H296V80h564V0H209zm106 1610q0 29 21 50t50 21 50-21 21-50-21-50-50-21-50 21-21 50zm270 0q0 29 21 50t50 21 50-21 21-50-21-50-50-21-50 21-21 50z"/><glyph unicode="Ì" horiz-adv-x="500" d="M-17 1727h131l184-218h-81zM209 0v1376h87V0h-87z"/><glyph unicode="Í" horiz-adv-x="500" d="M208 1504l185 219h130l-234-219h-81zM209 0v1376h87V0h-87z"/><glyph unicode="Î" horiz-adv-x="500" d="M17 1505l184 219h104l183-219h-84l-153 165-153-165H17zM209 0v1376h87V0h-87z"/><glyph unicode="Ï" horiz-adv-x="500" d="M46 1610q0 29 21 50t50 21 50-21 21-50-21-50-50-21-50 21-21 50zM209 0v1376h87V0h-87zm107 1610q0 29 21 50t50 21 50-21 21-50-21-50-50-21-50 21-21 50z"/><glyph unicode="Ñ" horiz-adv-x="1601" d="M209 0v1416L1301 185v1191h87V-39L295 1192V0h-86zm366 1571q9 79 44 121t81 42q36 0 64.5-14.5t43-32 34.5-32 41-14.5q55 0 72 89h66q-9-79-44.5-121t-81.5-42q-36 0-64.5 14.5t-43 32.5-34 32.5T713 1661q-55 0-72-90h-66z"/><glyph unicode="Ò" horiz-adv-x="1655" d="M120 688q0 144 56 275t150.5 226 225 151 274.5 56 274.5-56 225-151T1476 963t56-275-56-275-150.5-226-225-151T826-20 551.5 36t-225 151T176 413t-56 275zm87 0q0-170 83-314.5T515.5 145 826 61t310.5 84T1362 373.5t83 314.5q0 127-49 243t-131.5 200.5T1067 1266t-241 50-241-50-197.5-134.5T256 931t-49-243zm380 1040h130l184-218h-81z"/><glyph unicode="Ó" horiz-adv-x="1655" d="M120 688q0 144 56 275t150.5 226 225 151 274.5 56 274.5-56 225-151T1476 963t56-275-56-275-150.5-226-225-151T826-20 551.5 36t-225 151T176 413t-56 275zm87 0q0-170 83-314.5T515.5 145 826 61t310.5 84T1362 373.5t83 314.5q0 127-49 243t-131.5 200.5T1067 1266t-241 50-241-50-197.5-134.5T256 931t-49-243zm557 817l184 219h130l-233-219h-81z"/><glyph unicode="Ô" horiz-adv-x="1655" d="M120 688q0 144 56 275t150.5 226 225 151 274.5 56 274.5-56 225-151T1476 963t56-275-56-275-150.5-226-225-151T826-20 551.5 36t-225 151T176 413t-56 275zm87 0q0-170 83-314.5T515.5 145 826 61t310.5 84T1362 373.5t83 314.5q0 127-49 243t-131.5 200.5T1067 1266t-241 50-241-50-197.5-134.5T256 931t-49-243zm383 818l184 219h105l182-219h-84l-152 165-153-165h-82z"/><glyph unicode="Õ" horiz-adv-x="1655" d="M120 688q0 144 56 275t150.5 226 225 151 274.5 56 274.5-56 225-151T1476 963t56-275-56-275-150.5-226-225-151T826-20 551.5 36t-225 151T176 413t-56 275zm87 0q0-170 83-314.5T515.5 145 826 61t310.5 84T1362 373.5t83 314.5q0 127-49 243t-131.5 200.5T1067 1266t-241 50-241-50-197.5-134.5T256 931t-49-243zm395 843q9 79 45 120.5t81 41.5q36 0 64.5-14.5t43-32 34.5-32 41-14.5q54 0 71 89h67q-9-78-45-120t-82-42q-36 0-64.5 14.5t-43 32-34 32T740 1620q-54 0-71-89h-67z"/><glyph unicode="Ö" horiz-adv-x="1655" d="M120 688q0 144 56 275t150.5 226 225 151 274.5 56 274.5-56 225-151T1476 963t56-275-56-275-150.5-226-225-151T826-20 551.5 36t-225 151T176 413t-56 275zm87 0q0-170 83-314.5T515.5 145 826 61t310.5 84T1362 373.5t83 314.5q0 127-49 243t-131.5 200.5T1067 1266t-241 50-241-50-197.5-134.5T256 931t-49-243zm413 921q0 29 21 50.5t50 21.5 50-21.5 21-50.5-21-49.5-50-20.5-50 20.5-21 49.5zm270 0q0 29 20.5 50.5T960 1681t50.5-21.5 21.5-50.5-21.5-50-50.5-21-49.5 21-20.5 50z"/><glyph unicode="×" horiz-adv-x="1069" d="M100 203l374 375-373 374 62 62 374-374 374 373 59-59-373-374 376-375-62-63-376 375-374-375z"/><glyph unicode="Ø" horiz-adv-x="1655" d="M120 688q0 144 56 275t150.5 226 225 151 274.5 56q243 0 437-152l153 175 54-56-150-170q100-98 156-229t56-276q0-144-56-275t-150.5-226-225-151T826-20q-247 0-437 152L235-42l-54 55 150 171q-100 98-155.5 228T120 688zm87 0q0-127 47-241.5T386 246l821 936q-169 134-381 134-126 0-241-50t-197.5-134.5T256 931t-49-243zm237-493Q613 61 826 61q168 0 310.5 84T1362 373.5t83 314.5q0 126-47.5 240T1265 1129z"/><glyph unicode="Ù" horiz-adv-x="1369" d="M198 503v873h87V531q0-96 16.5-172t40-124.5T406 151t74.5-52T567 73t84-10.5 82-1.5q183 0 349 109v1206h86V119q-95-65-209-102T733-20q-82 0-147 9T458.5 19 350 79t-81 95.5T216 314t-18 189zm259 1224h130l185-218h-81z"/><glyph unicode="Ú" horiz-adv-x="1369" d="M198 503v873h87V531q0-96 16.5-172t40-124.5T406 151t74.5-52T567 73t84-10.5 82-1.5q183 0 349 109v1206h86V119q-95-65-209-102T733-20q-82 0-147 9T458.5 19 350 79t-81 95.5T216 314t-18 189zm408 1001l184 219h130l-233-219h-81z"/><glyph unicode="Û" horiz-adv-x="1369" d="M198 503v873h87V531q0-96 16.5-172t40-124.5T406 151t74.5-52T567 73t84-10.5 82-1.5q183 0 349 109v1206h86V119q-95-65-209-102T733-20q-82 0-147 9T458.5 19 350 79t-81 95.5T216 314t-18 189zm261 1002l184 219h105l182-219h-84l-153 165-153-165h-81z"/><glyph unicode="Ü" horiz-adv-x="1369" d="M198 503v873h87V531q0-96 16.5-172t40-124.5T406 151t74.5-52T567 73t84-10.5 82-1.5q183 0 349 109v1206h86V119q-95-65-209-102T733-20q-82 0-147 9T458.5 19 350 79t-81 95.5T216 314t-18 189zm279 1107q0 29 21.5 50t50.5 21 49.5-21 20.5-50-20.5-50-49.5-21-50.5 21-21.5 50zm270 0q0 29 21 50t50 21 50.5-21 21.5-50-21.5-50-50.5-21-50 21-21 50z"/><glyph unicode="Ý" horiz-adv-x="943" d="M-2 1376h98l378-626 376 626h99L517 655V0h-86v655zm401 122l184 219h130l-234-219h-80z"/><glyph unicode="ß" horiz-adv-x="1039" d="M164 0v1108q0 214 96 329.5T518 1553q158 0 258-101t100-246q0-63-20.5-116.5t-51.5-88-67.5-69-67.5-62-51.5-65.5-20.5-80q0-41 21-78t54.5-67 74.5-60 81.5-62.5 74-68T957 306t21-102q0-105-65-164.5T719-20Q583-20 468 84l57 61q50-42 96.5-63.5T734 60q75 0 116 43.5T891 209q0 49-28 93.5t-70 77-91.5 71.5-91.5 75.5-70 90T512 731q0 48 20.5 90t51 71.5 66.5 64 66.5 66.5 51 80 20.5 103q0 113-78 190t-192 77q-124 0-197-98.5T248 1098V0h-84z"/><glyph unicode="à" horiz-adv-x="960" d="M90 276q0 129 90 203.5T417 554q85 0 166-32.5T723 417v102q0 69-15 119t-38.5 78-61.5 44-74 20.5-86 4.5q-90 0-218-51l-30 72q132 59 273 59 334 0 334-322V82Q650-20 439-20q-149 0-249 80T90 276zm86-2q0-99 79.5-156T453 61q139 0 270 70v172Q616 473 410 473q-99 0-166.5-54T176 274zm82 986h121l172-270h-75z"/><glyph unicode="á" horiz-adv-x="960" d="M90 276q0 129 90 203.5T417 554q85 0 166-32.5T723 417v102q0 69-15 119t-38.5 78-61.5 44-74 20.5-86 4.5q-90 0-218-51l-30 72q132 59 273 59 334 0 334-322V82Q650-20 439-20q-149 0-249 80T90 276zm86-2q0-99 79.5-156T453 61q139 0 270 70v172Q616 473 410 473q-99 0-166.5-54T176 274zm220 716l172 270h122L472 990h-76z"/><glyph unicode="â" horiz-adv-x="960" d="M90 276q0 129 90 203.5T417 554q85 0 166-32.5T723 417v102q0 69-15 119t-38.5 78-61.5 43.5-74 20-86 4.5q-93 0-218-50l-30 72q132 59 273 59 334 0 334-322V82Q650-20 439-20q-149 0-249 80T90 276zm86-2q0-99 79.5-156T453 61q139 0 270 70v172Q616 473 410 473q-99 0-166.5-54T176 274zm89 716l166 270h104l170-270h-78l-143 214-143-214h-76z"/><glyph unicode="ã" horiz-adv-x="960" d="M90 276q0 129 90 203.5T417 554q85 0 166-32.5T723 417v102q0 69-15 119t-38.5 78-61.5 44-74 20.5-86 4.5q-90 0-218-51l-30 72q132 59 273 59 334 0 334-322V82Q650-20 439-20q-149 0-249 80T90 276zm86-2q0-99 79.5-156T453 61q139 0 270 70v172Q616 473 410 473q-99 0-166.5-54T176 274zm78 756q9 81 44.5 125t81.5 44q30 0 53.5-10t38.5-24.5 28-28.5 28.5-24 33.5-10q55 0 72 93h66q-9-82-44.5-125.5T575 1026q-36 0-64.5 15t-43 33.5-34 33.5-40.5 15q-55 0-72-93h-67z"/><glyph unicode="ä" horiz-adv-x="960" d="M90 276q0 129 90 203.5T417 554q85 0 166-32.5T723 417v102q0 69-15 119t-38.5 78-61.5 44-74 20.5-86 4.5q-90 0-218-51l-30 72q132 59 273 59 334 0 334-322V82Q650-20 439-20q-149 0-249 80T90 276zm86-2q0-99 79.5-156T453 61q139 0 270 70v172Q616 473 410 473q-99 0-166.5-54T176 274zm103 829q0 29 21 50t50 21 50-21 21-50-21-50-50-21-50 21-21 50zm270 0q0 29 21 50t50 21 50-21 21-50-21-50-50-21-50 21-21 50z"/><glyph unicode="å" horiz-adv-x="960" d="M90 276q0 129 90 203.5T417 554q85 0 166-32.5T723 417v102q0 69-15 119t-38.5 78-61.5 44-74 20.5-86 4.5q-90 0-218-51l-30 72q132 59 273 59 334 0 334-322V82Q650-20 439-20q-149 0-249 80T90 276zm86-2q0-99 79.5-156T453 61q139 0 270 70v172Q616 473 410 473q-99 0-166.5-54T176 274zm111 888q0 79 55.5 135t134.5 56q80 0 136-56t56-135-56.5-135T477 971t-134.5 56-55.5 135zm66 0q0-52 36-88t88-36 88.5 36 36.5 88-36.5 88.5T477 1287t-88-36.5-36-88.5z"/><glyph unicode="æ" horiz-adv-x="1594" d="M90 276q0 129 90 203.5T417 554q193 0 306-137v102q0 69-15 119t-38.5 78-61.5 44-74 20.5-86 4.5q-90 0-218-51l-30 72q127 59 273 59 252 0 314-182 54 86 139 134t186 48q163 0 269.5-119T1505 428H807q0-166 91-266.5T1134 61q81 0 140 23.5t118 76.5l61-52Q1314-20 1134-20q-207 0-327 156V82Q650-20 439-20q-149 0-249 80T90 276zm86-2q0-99 79.5-156T453 61q139 0 270 70v172Q619 473 410 473q-99 0-166.5-54T176 274zm636 233h599q-34 137-113 207.5T1112 785q-109 0-194-72T812 507z"/><glyph unicode="ç" horiz-adv-x="903" d="M105 423q0 184 127.5 313T540 865q153 0 274-99l-61-51q-102 70-213 70-144 0-247-106.5T190 423t103-255.5T540 61q138 0 245 99l63-49Q734-5 578-18l-45-70q67-2 111.5-39t44.5-99q0-78-56.5-114.5T492-377q-75 0-126 27l22 58q55-24 108-24 43 0 76 19t33 63q0 50-55 77t-111 27l66 112Q337-5 221 122T105 423z"/><glyph unicode="è" horiz-adv-x="985" d="M108 423q0 194 113.5 318T503 865q163 0 269.5-119T896 428H198q0-166 91-266.5T525 61q81 0 140 23.5T783 161l61-52Q705-20 525-20q-182 0-299.5 124T108 423zm94 84h599q-34 137-112.5 207.5T503 785q-110 0-194.5-72T202 507zm121 753h122l172-270h-75z"/><glyph unicode="é" horiz-adv-x="985" d="M108 423q0 194 113.5 318T503 865q163 0 269.5-119T896 428H198q0-166 91-266.5T525 61q81 0 140 23.5T783 161l61-52Q705-20 525-20q-182 0-299.5 124T108 423zm94 84h599q-34 137-112.5 207.5T503 785q-110 0-194.5-72T202 507zm243 483l173 270h121L521 990h-76z"/><glyph unicode="ê" horiz-adv-x="985" d="M108 423q0 194 113.5 318T503 865q163 0 269.5-119.5T896 428H198q0-166 91-266.5T525 61q81 0 140 23.5T783 161l61-52Q705-20 525-20q-182 0-299.5 124T108 423zm94 84h599q-34 137-112.5 207.5T503 785q-110 0-194.5-72T202 507zm97 483l166 270h104l170-270h-78l-143 214-143-214h-76z"/><glyph unicode="ë" horiz-adv-x="985" d="M108 423q0 194 113.5 318T503 865q163 0 269.5-119T896 428H198q0-166 91-266.5T525 61q81 0 140 23.5T783 161l61-52Q705-20 525-20q-182 0-299.5 124T108 423zm94 84h599q-34 137-112.5 207.5T503 785q-110 0-194.5-72T202 507zm119 596q0 29 21 50t50 21 50-21 21-50-21-50-50-21-50 21-21 50zm270 0q0 29 21 50t50 21 50-21 21-50-21-50-50-21-50 21-21 50z"/><glyph unicode="ì" horiz-adv-x="391" d="M-47 1263H75l172-271h-76zM157 0v845h83V0h-83z"/><glyph unicode="í" horiz-adv-x="391" d="M154 992l172 271h122L229 992h-75zm3-992v845h83V0h-83z"/><glyph unicode="î" horiz-adv-x="391" d="M-21 993l166 270h104l170-270h-79l-142 214L55 993h-76zM157 0v845h83V0h-83z"/><glyph unicode="ï" horiz-adv-x="391" d="M-7 1104q0 29 20.5 50t49.5 21 50.5-21 21.5-50-21.5-50-50.5-21-49.5 21-20.5 50zM157 0v845h83V0h-83zm105 1104q0 29 21.5 50t50.5 21 50-21 21-50-21-50.5-50-21.5-50.5 21.5T262 1104z"/><glyph unicode="ñ" horiz-adv-x="1063" d="M164 0v845h84V700h1q56 79 143 122t195 43q152 0 238-94t86-285V0h-84v425q0 195-65.5 277T553 784q-124 0-214.5-93.5T248 430V0h-84zm157 1032q9 81 45 125t82 44q36 0 64-15t42.5-33.5T589 1119t41-15q55 0 72 93h67q-9-82-45-126t-81-44q-36 0-65 15.5t-43.5 33.5-34 33.5T460 1125q-28 0-45-22t-26-71h-68z"/><glyph unicode="ò" horiz-adv-x="1078" d="M105 423q0 184 127 313t307 129 308-129.5T975 423q0-184-128-313.5T539-20 232 109.5 105 423zm85 0q0-149 102.5-255.5T539 61t247.5 106.5T890 423 786.5 678.5 539 785 292.5 678.5 190 423zm149 837h121l172-270h-75z"/><glyph unicode="ó" horiz-adv-x="1078" d="M105 423q0 184 127 313t307 129 308-129.5T975 423q0-184-128-313.5T539-20 232 109.5 105 423zm85 0q0-149 102.5-255.5T539 61t247.5 106.5T890 423 786.5 678.5 539 785 292.5 678.5 190 423zm266 567l172 270h122L532 990h-76z"/><glyph unicode="ô" horiz-adv-x="1078" d="M105 423q0 183 127 312.5T539 865t308-129.5T975 423q0-184-128-313.5T539-20 232 109.5 105 423zm85 0q0-149 102.5-255.5T539 61t247.5 106.5T890 423 786.5 678.5 539 785 292.5 678.5 190 423zm130 567l165 270h104l170-270h-78l-142 214-143-214h-76z"/><glyph unicode="õ" horiz-adv-x="1078" d="M105 423q0 184 127 313t307 129 308-129.5T975 423q0-184-128-313.5T539-20 232 109.5 105 423zm85 0q0-149 102.5-255.5T539 61t247.5 106.5T890 423 786.5 678.5 539 785 292.5 678.5 190 423zm126 607q9 81 44.5 125t81.5 44q36 0 64-15t42.5-33.5T583 1117t41-15q55 0 72 93h67q-9-81-44.5-125t-81.5-44q-36 0-64.5 15t-43 33.5-34 33.5-40.5 15q-55 0-72-93h-67z"/><glyph unicode="ö" horiz-adv-x="1078" d="M105 423q0 184 127 313t307 129 308-129.5T975 423q0-184-128-313.5T539-20 232 109.5 105 423zm85 0q0-149 102.5-255.5T539 61t247.5 106.5T890 423 786.5 678.5 539 785 292.5 678.5 190 423zm144 680q0 29 21 50t50 21 50-21 21-50-21-50-50-21-50 21-21 50zm269 0q0 29 21.5 50t50.5 21 50-21 21-50-21-50-50-21-50.5 21-21.5 50z"/><glyph unicode="÷" horiz-adv-x="1188" d="M105 538v81h979v-81H105zm404-394q0 35 25.5 60.5T595 230t60.5-25.5T681 144t-25.5-60.5T595 58t-60.5 25.5T509 144zm0 869q0 35 25.5 60t60.5 25 60.5-25 25.5-60-25.5-60.5T595 927t-60.5 25.5T509 1013z"/><glyph unicode="ø" horiz-adv-x="1078" d="M105 423q0 183 127 312.5T539 865q139 0 254-83l85 102 52-45-85-102q130-130 130-314T847 109.5 539-20q-138 0-253 83L202-39 149 6l85 102Q105 237 105 423zm85 0q0-144 98-250l452 545q-91 67-201 67-144 0-246.5-106.5T190 423zm149-296q90-66 200-66 144 0 247.5 106.5T890 423q0 142-99 249z"/><glyph unicode="ù" horiz-adv-x="1042" d="M156 374v471h84V414q0-86 16.5-150t43-102 66.5-61.5T447 69t93-8q125 0 254 70v714h84V82Q723-20 535-20q-61 0-112.5 9.5T320 25.5t-85.5 69-56.5 114T156 374zm152 889h122l172-271h-76z"/><glyph unicode="ú" horiz-adv-x="1042" d="M156 374v471h84V414q0-86 16.5-150t43-102 66.5-61.5T447 69t93-8q125 0 254 70v714h84V82Q723-20 535-20q-61 0-112.5 9.5T320 25.5t-85.5 69-56.5 114T156 374zm284 618l172 271h122L516 992h-76z"/><glyph unicode="û" horiz-adv-x="1042" d="M156 374v471h84V414q0-86 16.5-150t43-102 66.5-61.5T447 69t93-8q125 0 254 70v714h84V82Q723-20 535-20q-61 0-112.5 9.5T320 25.5t-85.5 69-56.5 114T156 374zm141 619l166 270h104l170-270h-78l-143 214-143-214h-76z"/><glyph unicode="ü" horiz-adv-x="1042" d="M156 374v471h84V414q0-86 16.5-150t43-102 66.5-61.5T447 69t93-8q125 0 254 70v714h84V82Q723-20 535-20q-61 0-112.5 9.5T320 25.5t-85.5 69-56.5 114T156 374zm155 730q0 29 21 50t50 21 50-21 21-50-21-50-50-21-50 21-21 50zm270 0q0 29 21 50t50 21 50-21 21-50-21-50.5-50-21.5-50 21.5-21 50.5z"/><glyph unicode="ý" horiz-adv-x="897" d="M27 845h94l328-655 328 655h94L214-466h-94L401 96zm375 147l172 271h122L477 992h-75z"/><glyph unicode="ÿ" horiz-adv-x="897" d="M27 845h94l328-655 328 655h94L214-466h-94L401 96zm236 259q0 29 21 50t50 21 50.5-21 21.5-50-21.5-50-50.5-21-50 21-21 50zm270 0q0 29 21 50t50 21 50-21 21-50-21-50-50-21-50 21-21 50z"/><glyph unicode="Œ" horiz-adv-x="2164" d="M120 688q0 144 56 275t150.5 226 225 151 274.5 56q197 0 362-100t257-266h1v346h617v-79h-531V780h453v-79h-453V80h565V0h-651v347h-1q-91-166-256.5-266.5T826-20q-144 0-274.5 56t-225 151T176 413t-56 275zm87 0q0-170 83-314.5T515.5 145 826 61q126 0 241 50t197.5 134T1396 445t49 243-49 243-131.5 200.5T1067 1266t-241 50-241-50-197.5-134.5T256 931t-49-243z"/><glyph unicode="œ" horiz-adv-x="1762" d="M105 423q0 184 127 313t307 129q123 0 226.5-65T925 627q48 111 143 174.5t212 63.5q163 0 269.5-119T1673 428H975q0-166 91-266.5T1302 61q81 0 140 23.5t118 76.5l61-52Q1482-20 1302-20q-128 0-228 64T925 219Q870 111 766 45.5T539-20q-180 0-307 129.5T105 423zm85 0q0-149 102.5-255.5T539 61t247.5 106.5T890 423 786.5 678.5 539 785 292.5 678.5 190 423zm789 84h599q-34 137-112.5 207.5T1280 785q-110 0-195-72T979 507z"/><glyph unicode="Ÿ" horiz-adv-x="943" d="M-2 1376h98l378-626 376 626h99L517 655V0h-86v655zm280 228q0 29 21 50t50 21 50-21 21-50-21-50-50-21-50 21-21 50zm270 0q0 29 21 50t50 21 50-21 21-50-21-50.5-50-21.5-50 21.5-21 50.5z"/><glyph unicode="ˆ" horiz-adv-x="621" d="M94 1131l166 271h104l170-271h-78l-143 215-143-215H94z"/><glyph unicode="˜" horiz-adv-x="691" d="M129 1177q9 81 44.5 125t81.5 44q30 0 53.5-10t38.5-24 28-28.5 28.5-24.5 33.5-10q55 0 72 93h67q-9-82-45-126t-81-44q-36 0-64.5 15.5t-43 33.5-34 33.5T268 1270q-55 0-72-93h-67z"/><glyph horiz-adv-x="931"/><glyph horiz-adv-x="1862"/><glyph horiz-adv-x="931"/><glyph horiz-adv-x="1862"/><glyph horiz-adv-x="620"/><glyph horiz-adv-x="465"/><glyph horiz-adv-x="310"/><glyph horiz-adv-x="310"/><glyph horiz-adv-x="232"/><glyph horiz-adv-x="372"/><glyph horiz-adv-x="103"/><glyph unicode="‐" horiz-adv-x="744" d="M112 484v79h522v-79H112z"/><glyph unicode="‑" horiz-adv-x="744" d="M112 484v79h522v-79H112z"/><glyph unicode="‒" horiz-adv-x="744" d="M112 484v79h522v-79H112z"/><glyph unicode="–" horiz-adv-x="1209" d="M112 487v73h988v-73H112z"/><glyph unicode="—" horiz-adv-x="2164" d="M112 487v73h1942v-73H112z"/><glyph unicode="‘" horiz-adv-x="374" d="M100 1116l146 418h66l-106-418H100z"/><glyph unicode="’" horiz-adv-x="364" d="M103 1116l106 418h105l-145-418h-66z"/><glyph unicode="‚" horiz-adv-x="382" d="M68-300l105 417h105L133-300H68z"/><glyph unicode="“" horiz-adv-x="613" d="M100 1116l145 418h67l-107-418H100zm239 0l145 418h67l-107-418H339z"/><glyph unicode="”" horiz-adv-x="604" d="M103 1116l106 418h105l-145-418h-66zm239 0l107 418h105l-145-418h-67z"/><glyph unicode="„" horiz-adv-x="621" d="M68-300l106 417h105L134-300H68zm239 0l107 417h104L374-300h-67z"/><glyph unicode="•" horiz-adv-x="804" d="M129 661q0 114 80.5 194.5T404 936t195-80.5T680 661t-81-195-195-81-194.5 81T129 661z"/><glyph unicode="…" horiz-adv-x="1730" d="M138 55q0 31 21.5 53t52.5 22 53-22 22-53-21.5-53T212-20q-31 0-52.5 22T138 55zm655 0q0 31 22 53t53 22 53-22 22-53-21.5-53T868-20q-31 0-53 22t-22 53zm655 0q0 31 22 53t53 22 53-22 22-53-22-53-53-22-53 22-22 53z"/><glyph horiz-adv-x="372"/><glyph unicode="‹" horiz-adv-x="535" d="M65 440l275 390h94L183 440 434 51h-94z"/><glyph unicode="›" horiz-adv-x="537" d="M107 830h94l275-390L201 51h-93l250 389z"/><glyph horiz-adv-x="465"/><glyph unicode="€" horiz-adv-x="1239" d="M63 544l37 80h114q-3 33-3 64 0 29 4 81H63l37 80h126q44 239 196 393t344 154q224 0 388-201l-61-55q-69 80-153.5 128T766 1316q-162 0-286.5-134T315 849h696l-38-80H303q-4-54-4-81 0-31 3-64h612l-38-80H312q37-203 162-343T766 61q89 0 178.5 49T1097 240l58-58q-76-96-176-149T766-20q-200 0-351.5 161.5T223 544H63z"/><glyph unicode="™" horiz-adv-x="1898" d="M61 1305v71h637v-71H418V551h-77v754H61zm762-754v825h133l315-702 309 702h132V551h-79v749l-2 1-337-750h-54l-337 750-1-1V551h-79z"/><glyph unicode="◼" horiz-adv-x="844" d="M0 0v845h845V0H0z"/><glyph unicode="ﬁ" horiz-adv-x="881" d="M151-466v1637q0 106 27 183.5t73 119 96.5 60.5 107.5 19q184 0 282-123v-172h-83v138q-86 77-199 77-32 0-60.5-7t-58.5-27.5-52-53.5-36-88.5-14-128.5V845h176v-79H234V-466h-83zM654 0v845h83V0h-83z"/><glyph unicode="ﬂ" horiz-adv-x="908" d="M151-466v1637q0 105 28 183t75.5 119.5 99 60.5 108.5 19q184 0 289-123V0h-83v1396q-94 77-206 77-32 0-61-7t-60.5-27.5-54-53.5-37.5-88.5-15-128.5V845h176v-79H234V-466h-83z"/><glyph unicode="ﬃ" horiz-adv-x="1376" d="M151-466v1627q0 106 26.5 183.5T249 1464t95 61 107 19q162 0 262-109 80 118 238 118 184 0 282-123v-172h-84v138q-86 77-198 77-32 0-60.5-7t-59-27.5T779 1385t-36-88.5-14-128.5V845h177v-79H729V-466h-83v1637q0 111 29 189-91 103-224 103-32 0-60-7t-57.5-28-51-53.5-35-88T234 1158V845h176v-79H234V-466h-83zM1149 0v845h84V0h-84z"/><glyph unicode="ﬄ" horiz-adv-x="1404" d="M151-466v1627q0 106 26.5 183.5T249 1464t95 61 107 19q163 0 264-110 44 62 108 90.5t134 28.5q185 0 290-123V0h-84v1396q-94 77-206 77-32 0-61-7t-60.5-27.5-54-53.5-37.5-88.5-15-128.5V845h177v-79H729V-466h-83v1637q0 107 30 188-91 104-225 104-32 0-60-7t-57.5-28-51-53.5-35-88T234 1158V845h176v-79H234V-466h-83z"/></font>
</defs>
</svg>
